solid Microphone_Cable_Clip-mk2-rounded
facet normal 0.9876883405951378 0.1564344650402308 0.0
outer loop
vertex 4.3458286986186065 0.6883116461770159 0.0
vertex 4.4 0.0 6.0
vertex 4.4 0.0 0.0
endloop
endfacet
facet normal 0.9969173337331281 0.07845909572784468 0.0
outer loop
vertex 4.4 0.0 6.0
vertex 4.3458286986186065 0.6883116461770159 0.0
vertex 4.3458286986186065 0.6883116461770159 6.0
endloop
endfacet
facet normal -0.0 1.0 0.0
outer loop
vertex 4.4 0.0 6.0
vertex 6.9 0.0 0.0
vertex 4.4 0.0 0.0
endloop
endfacet
facet normal -0.0 1.0 0.0
outer loop
vertex 6.9 0.0 0.0
vertex 4.4 0.0 6.0
vertex 6.9 0.0 6.0
endloop
endfacet
facet normal -0.707106781186548 0.707106781186547 0.0
outer loop
vertex 4.9 -14.399999999999999 6.0
vertex 3.3999999999999995 -15.900000000000002 0.0
vertex 3.3999999999999995 -15.900000000000002 6.0
endloop
endfacet
facet normal -0.707106781186548 0.707106781186547 0.0
outer loop
vertex 3.3999999999999995 -15.900000000000002 0.0
vertex 4.9 -14.399999999999999 6.0
vertex 4.9 -14.399999999999999 0.0
endloop
endfacet
facet normal -1.0 0.0 0.0
outer loop
vertex 4.9 -5.4 6.0
vertex 4.9 -14.399999999999999 0.0
vertex 4.9 -14.399999999999999 6.0
endloop
endfacet
facet normal -1.0 0.0 0.0
outer loop
vertex 4.9 -14.399999999999999 0.0
vertex 4.9 -5.4 6.0
vertex 4.9 -5.4 0.0
endloop
endfacet
facet normal -0.0 -1.0 -0.0
outer loop
vertex 4.9 -5.4 6.0
vertex -4.9 -5.4 0.0
vertex 4.9 -5.4 0.0
endloop
endfacet
facet normal -0.0 -1.0 -0.0
outer loop
vertex -4.9 -5.4 0.0
vertex 4.9 -5.4 6.0
vertex -4.9 -5.4 6.0
endloop
endfacet
facet normal 1.0 -0.0 -0.0
outer loop
vertex -4.9 -5.4 0.0
vertex -4.9 -14.399999999999999 6.0
vertex -4.9 -14.399999999999999 0.0
endloop
endfacet
facet normal 1.0 -0.0 -0.0
outer loop
vertex -4.9 -14.399999999999999 6.0
vertex -4.9 -5.4 0.0
vertex -4.9 -5.4 6.0
endloop
endfacet
facet normal -2.1553783664993425e-16 1.0 0.0
outer loop
vertex -6.9 0.0 6.0
vertex -4.4 5.388445916248355e-16 0.0
vertex -6.9 0.0 0.0
endloop
endfacet
facet normal -2.1553783664993425e-16 1.0 0.0
outer loop
vertex -4.4 5.388445916248355e-16 0.0
vertex -6.9 0.0 6.0
vertex -4.4 5.388445916248355e-16 6.0
endloop
endfacet
facet normal -0.9876883405951379 0.15643446504023084 0.0
outer loop
vertex -4.345828698618606 0.6883116461770163 6.0
vertex -4.4 5.388445916248355e-16 0.0
vertex -4.4 5.388445916248355e-16 6.0
endloop
endfacet
facet normal -0.9969173337331279 0.07845909572784568 0.0
outer loop
vertex -4.4 5.388445916248355e-16 0.0
vertex -4.345828698618606 0.6883116461770163 6.0
vertex -4.345828698618606 0.6883116461770163 0.0
endloop
endfacet
facet normal -0.9510565162951536 0.30901699437494723 0.0
outer loop
vertex -4.184648671698676 1.3596747752497693 6.0
vertex -4.345828698618606 0.6883116461770163 0.0
vertex -4.345828698618606 0.6883116461770163 6.0
endloop
endfacet
facet normal -0.9876883405951379 0.15643446504023084 0.0
outer loop
vertex -4.345828698618606 0.6883116461770163 0.0
vertex -4.184648671698676 1.3596747752497693 6.0
vertex -4.184648671698676 1.3596747752497693 0.0
endloop
endfacet
facet normal -0.8910065241883677 0.45399049973954686 0.0
outer loop
vertex -3.920428706428819 1.9975581988540063 6.0
vertex -4.184648671698676 1.3596747752497693 0.0
vertex -4.184648671698676 1.3596747752497693 6.0
endloop
endfacet
facet normal -0.9510565162951536 0.30901699437494723 0.0
outer loop
vertex -4.184648671698676 1.3596747752497693 0.0
vertex -3.920428706428819 1.9975581988540063 6.0
vertex -3.920428706428819 1.9975581988540063 0.0
endloop
endfacet
facet normal -0.8090169943749475 0.5877852522924734 0.0
outer loop
vertex -3.559674775249769 2.5862551100868822 6.0
vertex -3.920428706428819 1.9975581988540063 0.0
vertex -3.920428706428819 1.9975581988540063 6.0
endloop
endfacet
facet normal -0.8910065241883677 0.45399049973954686 0.0
outer loop
vertex -3.920428706428819 1.9975581988540063 0.0
vertex -3.559674775249769 2.5862551100868822 6.0
vertex -3.559674775249769 2.5862551100868822 0.0
endloop
endfacet
facet normal -0.7604059656000307 0.6494480483301841 0.0
outer loop
vertex -3.111269837220809 3.1112698372208096 6.0
vertex -3.559674775249769 2.5862551100868822 0.0
vertex -3.559674775249769 2.5862551100868822 6.0
endloop
endfacet
facet normal -0.8090169943749475 0.5877852522924734 0.0
outer loop
vertex -3.559674775249769 2.5862551100868822 0.0
vertex -3.111269837220809 3.1112698372208096 6.0
vertex -3.111269837220809 3.1112698372208096 0.0
endloop
endfacet
facet normal 0.7071067811865477 0.7071067811865475 0.0
outer loop
vertex -3.111269837220809 3.1112698372208096 0.0
vertex -1.9798989873223327 1.9798989873223332 6.0
vertex -1.9798989873223327 1.9798989873223332 0.0
endloop
endfacet
facet normal 0.7071067811865477 0.7071067811865475 0.0
outer loop
vertex -1.9798989873223327 1.9798989873223332 6.0
vertex -3.111269837220809 3.1112698372208096 0.0
vertex -3.111269837220809 3.1112698372208096 6.0
endloop
endfacet
facet normal 0.7604059656000309 -0.6494480483301839 0.0
outer loop
vertex -1.9798989873223327 1.9798989873223332 0.0
vertex -2.2652475842498525 1.645798706418925 6.0
vertex -2.2652475842498525 1.645798706418925 0.0
endloop
endfacet
facet normal 0.8090169943749476 -0.5877852522924731 0.0
outer loop
vertex -2.2652475842498525 1.645798706418925 6.0
vertex -1.9798989873223327 1.9798989873223332 0.0
vertex -1.9798989873223327 1.9798989873223332 6.0
endloop
endfacet
facet normal 0.8090169943749476 -0.5877852522924731 0.0
outer loop
vertex -2.2652475842498525 1.645798706418925 0.0
vertex -2.4948182677274295 1.271173399270731 6.0
vertex -2.4948182677274295 1.271173399270731 0.0
endloop
endfacet
facet normal 0.8910065241883679 -0.45399049973954686 0.0
outer loop
vertex -2.4948182677274295 1.271173399270731 6.0
vertex -2.2652475842498525 1.645798706418925 0.0
vertex -2.2652475842498525 1.645798706418925 6.0
endloop
endfacet
facet normal 0.8910065241883679 -0.45399049973954686 0.0
outer loop
vertex -2.4948182677274295 1.271173399270731 0.0
vertex -2.6629582456264296 0.865247584249853 6.0
vertex -2.6629582456264296 0.865247584249853 0.0
endloop
endfacet
facet normal 0.9510565162951536 -0.3090169943749477 0.0
outer loop
vertex -2.6629582456264296 0.865247584249853 6.0
vertex -2.4948182677274295 1.271173399270731 0.0
vertex -2.4948182677274295 1.271173399270731 6.0
endloop
endfacet
facet normal 0.9510565162951536 -0.3090169943749477 0.0
outer loop
vertex -2.6629582456264296 0.865247584249853 0.0
vertex -2.765527353666385 0.43801650211264676 6.0
vertex -2.765527353666385 0.43801650211264676 0.0
endloop
endfacet
facet normal 0.9876883405951378 -0.15643446504023106 0.0
outer loop
vertex -2.765527353666385 0.43801650211264676 6.0
vertex -2.6629582456264296 0.865247584249853 0.0
vertex -2.6629582456264296 0.865247584249853 6.0
endloop
endfacet
facet normal 0.9876883405951378 -0.15643446504023106 0.0
outer loop
vertex -2.765527353666385 0.43801650211264676 0.0
vertex -2.8 3.429011037612589e-16 6.0
vertex -2.8 3.429011037612589e-16 0.0
endloop
endfacet
facet normal 1.0 -4.032297951277659e-16 0.0
outer loop
vertex -2.8 3.429011037612589e-16 6.0
vertex -2.765527353666385 0.43801650211264676 0.0
vertex -2.765527353666385 0.43801650211264676 6.0
endloop
endfacet
facet normal 1.0 -4.032297951277659e-16 0.0
outer loop
vertex -2.8 3.429011037612589e-16 0.0
vertex -2.7655273536663856 -0.43801650211264603 6.0
vertex -2.7655273536663856 -0.43801650211264603 0.0
endloop
endfacet
facet normal 0.9876883405951378 0.15643446504023067 0.0
outer loop
vertex -2.7655273536663856 -0.43801650211264603 6.0
vertex -2.8 3.429011037612589e-16 0.0
vertex -2.8 3.429011037612589e-16 6.0
endloop
endfacet
facet normal 0.9876883405951378 0.15643446504023067 0.0
outer loop
vertex -2.7655273536663856 -0.43801650211264603 0.0
vertex -2.66295824562643 -0.8652475842498524 6.0
vertex -2.66295824562643 -0.8652475842498524 0.0
endloop
endfacet
facet normal 0.9510565162951536 0.3090169943749475 0.0
outer loop
vertex -2.66295824562643 -0.8652475842498524 6.0
vertex -2.7655273536663856 -0.43801650211264603 0.0
vertex -2.7655273536663856 -0.43801650211264603 6.0
endloop
endfacet
facet normal 0.9510565162951536 0.3090169943749475 0.0
outer loop
vertex -2.66295824562643 -0.8652475842498524 0.0
vertex -2.49481826772743 -1.2711733992707306 6.0
vertex -2.49481826772743 -1.2711733992707306 0.0
endloop
endfacet
facet normal 0.891006524188368 0.4539904997395465 0.0
outer loop
vertex -2.49481826772743 -1.2711733992707306 6.0
vertex -2.66295824562643 -0.8652475842498524 0.0
vertex -2.66295824562643 -0.8652475842498524 6.0
endloop
endfacet
facet normal 0.891006524188368 0.4539904997395465 0.0
outer loop
vertex -2.49481826772743 -1.2711733992707306 0.0
vertex -2.265247584249853 -1.6457987064189243 6.0
vertex -2.265247584249853 -1.6457987064189243 0.0
endloop
endfacet
facet normal 0.8090169943749479 0.5877852522924727 0.0
outer loop
vertex -2.265247584249853 -1.6457987064189243 6.0
vertex -2.49481826772743 -1.2711733992707306 0.0
vertex -2.49481826772743 -1.2711733992707306 6.0
endloop
endfacet
facet normal 0.8090169943749479 0.5877852522924727 0.0
outer loop
vertex -2.265247584249853 -1.6457987064189243 0.0
vertex -1.9798989873223336 -1.9798989873223327 6.0
vertex -1.9798989873223336 -1.9798989873223327 0.0
endloop
endfacet
facet normal 0.7071067811865476 0.7071067811865476 0.0
outer loop
vertex -1.9798989873223336 -1.9798989873223327 6.0
vertex -2.265247584249853 -1.6457987064189243 0.0
vertex -2.265247584249853 -1.6457987064189243 6.0
endloop
endfacet
facet normal 0.7071067811865476 0.7071067811865476 0.0
outer loop
vertex -1.9798989873223336 -1.9798989873223327 6.0
vertex -1.645798706418925 -2.2652475842498525 0.0
vertex -1.9798989873223336 -1.9798989873223327 0.0
endloop
endfacet
facet normal 0.5877852522924729 0.8090169943749476 0.0
outer loop
vertex -1.645798706418925 -2.2652475842498525 0.0
vertex -1.9798989873223336 -1.9798989873223327 6.0
vertex -1.645798706418925 -2.2652475842498525 6.0
endloop
endfacet
facet normal 0.5877852522924729 0.8090169943749476 0.0
outer loop
vertex -1.645798706418925 -2.2652475842498525 6.0
vertex -1.2711733992707313 -2.4948182677274295 0.0
vertex -1.645798706418925 -2.2652475842498525 0.0
endloop
endfacet
facet normal 0.45399049973954686 0.8910065241883679 0.0
outer loop
vertex -1.2711733992707313 -2.4948182677274295 0.0
vertex -1.645798706418925 -2.2652475842498525 6.0
vertex -1.2711733992707313 -2.4948182677274295 6.0
endloop
endfacet
facet normal 0.45399049973954686 0.8910065241883679 0.0
outer loop
vertex -1.2711733992707313 -2.4948182677274295 6.0
vertex -0.865247584249853 -2.6629582456264296 0.0
vertex -1.2711733992707313 -2.4948182677274295 0.0
endloop
endfacet
facet normal 0.3090169943749476 0.9510565162951536 0.0
outer loop
vertex -0.865247584249853 -2.6629582456264296 0.0
vertex -1.2711733992707313 -2.4948182677274295 6.0
vertex -0.865247584249853 -2.6629582456264296 6.0
endloop
endfacet
facet normal 0.3090169943749476 0.9510565162951536 0.0
outer loop
vertex -0.865247584249853 -2.6629582456264296 6.0
vertex -0.4380165021126468 -2.765527353666385 0.0
vertex -0.865247584249853 -2.6629582456264296 0.0
endloop
endfacet
facet normal 0.15643446504023106 0.9876883405951378 0.0
outer loop
vertex -0.4380165021126468 -2.765527353666385 0.0
vertex -0.865247584249853 -2.6629582456264296 6.0
vertex -0.4380165021126468 -2.765527353666385 6.0
endloop
endfacet
facet normal 0.15643446504023106 0.9876883405951378 0.0
outer loop
vertex -0.4380165021126468 -2.765527353666385 6.0
vertex -5.143516556418883e-16 -2.8 0.0
vertex -0.4380165021126468 -2.765527353666385 0.0
endloop
endfacet
facet normal 4.120919884272772e-16 1.0 0.0
outer loop
vertex -5.143516556418883e-16 -2.8 0.0
vertex -0.4380165021126468 -2.765527353666385 6.0
vertex -5.143516556418883e-16 -2.8 6.0
endloop
endfacet
facet normal 4.120919884272772e-16 1.0 0.0
outer loop
vertex -5.143516556418883e-16 -2.8 6.0
vertex 0.43801650211264587 -2.7655273536663856 0.0
vertex -5.143516556418883e-16 -2.8 0.0
endloop
endfacet
facet normal -0.15643446504023067 0.9876883405951378 0.0
outer loop
vertex 0.43801650211264587 -2.7655273536663856 0.0
vertex -5.143516556418883e-16 -2.8 6.0
vertex 0.43801650211264587 -2.7655273536663856 6.0
endloop
endfacet
facet normal -0.15643446504023067 0.9876883405951378 0.0
outer loop
vertex 0.43801650211264587 -2.7655273536663856 6.0
vertex 0.8652475842498522 -2.66295824562643 0.0
vertex 0.43801650211264587 -2.7655273536663856 0.0
endloop
endfacet
facet normal -0.3090169943749475 0.9510565162951536 0.0
outer loop
vertex 0.8652475842498522 -2.66295824562643 0.0
vertex 0.43801650211264587 -2.7655273536663856 6.0
vertex 0.8652475842498522 -2.66295824562643 6.0
endloop
endfacet
facet normal -0.3090169943749475 0.9510565162951536 0.0
outer loop
vertex 0.8652475842498522 -2.66295824562643 6.0
vertex 1.2711733992707306 -2.49481826772743 0.0
vertex 0.8652475842498522 -2.66295824562643 0.0
endloop
endfacet
facet normal -0.4539904997395467 0.8910065241883679 0.0
outer loop
vertex 1.2711733992707306 -2.49481826772743 0.0
vertex 0.8652475842498522 -2.66295824562643 6.0
vertex 1.2711733992707306 -2.49481826772743 6.0
endloop
endfacet
facet normal -0.4539904997395467 0.8910065241883679 0.0
outer loop
vertex 1.2711733992707306 -2.49481826772743 6.0
vertex 1.645798706418924 -2.265247584249853 0.0
vertex 1.2711733992707306 -2.49481826772743 0.0
endloop
endfacet
facet normal -0.5877852522924727 0.8090169943749477 0.0
outer loop
vertex 1.645798706418924 -2.265247584249853 0.0
vertex 1.2711733992707306 -2.49481826772743 6.0
vertex 1.645798706418924 -2.265247584249853 6.0
endloop
endfacet
facet normal -0.5877852522924727 0.8090169943749477 0.0
outer loop
vertex 1.645798706418924 -2.265247584249853 6.0
vertex 1.9798989873223325 -1.9798989873223336 0.0
vertex 1.645798706418924 -2.265247584249853 0.0
endloop
endfacet
facet normal -0.7071067811865471 0.7071067811865478 0.0
outer loop
vertex 1.9798989873223325 -1.9798989873223336 0.0
vertex 1.645798706418924 -2.265247584249853 6.0
vertex 1.9798989873223325 -1.9798989873223336 6.0
endloop
endfacet
facet normal -0.8090169943749475 0.5877852522924732 0.0
outer loop
vertex 2.2652475842498525 -1.6457987064189255 6.0
vertex 1.9798989873223325 -1.9798989873223336 0.0
vertex 1.9798989873223325 -1.9798989873223336 6.0
endloop
endfacet
facet normal -0.7071067811865471 0.7071067811865478 0.0
outer loop
vertex 1.9798989873223325 -1.9798989873223336 0.0
vertex 2.2652475842498525 -1.6457987064189255 6.0
vertex 2.2652475842498525 -1.6457987064189255 0.0
endloop
endfacet
facet normal -0.8910065241883679 0.4539904997395468 0.0
outer loop
vertex 2.4948182677274295 -1.2711733992707315 6.0
vertex 2.2652475842498525 -1.6457987064189255 0.0
vertex 2.2652475842498525 -1.6457987064189255 6.0
endloop
endfacet
facet normal -0.8090169943749475 0.5877852522924732 0.0
outer loop
vertex 2.2652475842498525 -1.6457987064189255 0.0
vertex 2.4948182677274295 -1.2711733992707315 6.0
vertex 2.4948182677274295 -1.2711733992707315 0.0
endloop
endfacet
facet normal -0.9510565162951536 0.3090169943749476 0.0
outer loop
vertex 2.6629582456264296 -0.8652475842498533 6.0
vertex 2.4948182677274295 -1.2711733992707315 0.0
vertex 2.4948182677274295 -1.2711733992707315 6.0
endloop
endfacet
facet normal -0.8910065241883679 0.4539904997395468 0.0
outer loop
vertex 2.4948182677274295 -1.2711733992707315 0.0
vertex 2.6629582456264296 -0.8652475842498533 6.0
vertex 2.6629582456264296 -0.8652475842498533 0.0
endloop
endfacet
facet normal -0.9876883405951378 0.156434465040231 0.0
outer loop
vertex 2.765527353666385 -0.438016502112647 6.0
vertex 2.6629582456264296 -0.8652475842498533 0.0
vertex 2.6629582456264296 -0.8652475842498533 6.0
endloop
endfacet
facet normal -0.9510565162951536 0.3090169943749476 0.0
outer loop
vertex 2.6629582456264296 -0.8652475842498533 0.0
vertex 2.765527353666385 -0.438016502112647 6.0
vertex 2.765527353666385 -0.438016502112647 0.0
endloop
endfacet
facet normal -1.0 3.5005663533069786e-16 0.0
outer loop
vertex 2.8 0.0 6.0
vertex 2.765527353666385 -0.438016502112647 0.0
vertex 2.765527353666385 -0.438016502112647 6.0
endloop
endfacet
facet normal -0.9876883405951378 0.156434465040231 0.0
outer loop
vertex 2.765527353666385 -0.438016502112647 0.0
vertex 2.8 0.0 6.0
vertex 2.8 0.0 0.0
endloop
endfacet
facet normal -0.9876883405951379 -0.15643446504023106 0.0
outer loop
vertex 2.7655273536663856 0.43801650211264637 6.0
vertex 2.8 0.0 0.0
vertex 2.8 0.0 6.0
endloop
endfacet
facet normal -1.0 3.5005663533069786e-16 0.0
outer loop
vertex 2.8 0.0 0.0
vertex 2.7655273536663856 0.43801650211264637 6.0
vertex 2.7655273536663856 0.43801650211264637 0.0
endloop
endfacet
facet normal -0.9510565162951536 -0.3090169943749476 0.0
outer loop
vertex 2.6629582456264296 0.8652475842498527 6.0
vertex 2.7655273536663856 0.43801650211264637 0.0
vertex 2.7655273536663856 0.43801650211264637 6.0
endloop
endfacet
facet normal -0.9876883405951379 -0.15643446504023106 0.0
outer loop
vertex 2.7655273536663856 0.43801650211264637 0.0
vertex 2.6629582456264296 0.8652475842498527 6.0
vertex 2.6629582456264296 0.8652475842498527 0.0
endloop
endfacet
facet normal -0.891006524188368 -0.4539904997395464 0.0
outer loop
vertex 2.49481826772743 1.2711733992707308 6.0
vertex 2.6629582456264296 0.8652475842498527 0.0
vertex 2.6629582456264296 0.8652475842498527 6.0
endloop
endfacet
facet normal -0.9510565162951536 -0.3090169943749476 0.0
outer loop
vertex 2.6629582456264296 0.8652475842498527 0.0
vertex 2.49481826772743 1.2711733992707308 6.0
vertex 2.49481826772743 1.2711733992707308 0.0
endloop
endfacet
facet normal -0.8090169943749476 -0.5877852522924731 0.0
outer loop
vertex 2.265247584249853 1.6457987064189248 6.0
vertex 2.49481826772743 1.2711733992707308 0.0
vertex 2.49481826772743 1.2711733992707308 6.0
endloop
endfacet
facet normal -0.891006524188368 -0.4539904997395464 0.0
outer loop
vertex 2.49481826772743 1.2711733992707308 0.0
vertex 2.265247584249853 1.6457987064189248 6.0
vertex 2.265247584249853 1.6457987064189248 0.0
endloop
endfacet
facet normal -0.7604059656000309 -0.6494480483301839 -0.0
outer loop
vertex 1.9798989873223332 1.9798989873223327 6.0
vertex 2.265247584249853 1.6457987064189248 0.0
vertex 2.265247584249853 1.6457987064189248 6.0
endloop
endfacet
facet normal -0.8090169943749476 -0.5877852522924731 0.0
outer loop
vertex 2.265247584249853 1.6457987064189248 0.0
vertex 1.9798989873223332 1.9798989873223327 6.0
vertex 1.9798989873223332 1.9798989873223327 0.0
endloop
endfacet
facet normal -0.7071067811865475 0.7071067811865477 0.0
outer loop
vertex 1.9798989873223332 1.9798989873223327 6.0
vertex 3.1112698372208096 3.111269837220809 0.0
vertex 1.9798989873223332 1.9798989873223327 0.0
endloop
endfacet
facet normal -0.7071067811865475 0.7071067811865477 0.0
outer loop
vertex 3.1112698372208096 3.111269837220809 0.0
vertex 1.9798989873223332 1.9798989873223327 6.0
vertex 3.1112698372208096 3.111269837220809 6.0
endloop
endfacet
facet normal 0.7604059656000309 0.6494480483301837 0.0
outer loop
vertex 3.1112698372208096 3.111269837220809 0.0
vertex 3.559674775249769 2.5862551100868822 6.0
vertex 3.559674775249769 2.5862551100868822 0.0
endloop
endfacet
facet normal 0.8090169943749476 0.5877852522924731 0.0
outer loop
vertex 3.559674775249769 2.5862551100868822 6.0
vertex 3.1112698372208096 3.111269837220809 0.0
vertex 3.1112698372208096 3.111269837220809 6.0
endloop
endfacet
facet normal 0.8090169943749476 0.5877852522924731 0.0
outer loop
vertex 3.559674775249769 2.5862551100868822 0.0
vertex 3.920428706428819 1.9975581988540059 6.0
vertex 3.920428706428819 1.9975581988540059 0.0
endloop
endfacet
facet normal 0.8910065241883677 0.45399049973954686 0.0
outer loop
vertex 3.920428706428819 1.9975581988540059 6.0
vertex 3.559674775249769 2.5862551100868822 0.0
vertex 3.559674775249769 2.5862551100868822 6.0
endloop
endfacet
facet normal 0.8910065241883677 0.45399049973954686 0.0
outer loop
vertex 3.920428706428819 1.9975581988540059 0.0
vertex 4.184648671698676 1.3596747752497687 6.0
vertex 4.184648671698676 1.3596747752497687 0.0
endloop
endfacet
facet normal 0.9510565162951536 0.3090169943749477 0.0
outer loop
vertex 4.184648671698676 1.3596747752497687 6.0
vertex 3.920428706428819 1.9975581988540059 0.0
vertex 3.920428706428819 1.9975581988540059 6.0
endloop
endfacet
facet normal 0.9510565162951536 0.3090169943749477 0.0
outer loop
vertex 4.184648671698676 1.3596747752497687 0.0
vertex 4.3458286986186065 0.6883116461770159 6.0
vertex 4.3458286986186065 0.6883116461770159 0.0
endloop
endfacet
facet normal 0.9876883405951378 0.1564344650402308 0.0
outer loop
vertex 4.3458286986186065 0.6883116461770159 6.0
vertex 4.184648671698676 1.3596747752497687 0.0
vertex 4.184648671698676 1.3596747752497687 6.0
endloop
endfacet
facet normal 1.1604959018126515e-31 2.7771562533174776e-31 1.0
outer loop
vertex -3.6071067811865447 -16.400000000000002 6.0
vertex -4.9 -14.399999999999999 6.0
vertex -5.9 -16.400000000000002 6.0
endloop
endfacet
facet normal 1.1604959018126515e-31 2.7771562533174776e-31 1.0
outer loop
vertex -4.9 -14.399999999999999 6.0
vertex -3.6071067811865447 -16.400000000000002 6.0
vertex -3.399999999999997 -15.900000000000002 6.0
endloop
endfacet
facet normal 1.1604959018126515e-31 2.7771562533174776e-31 1.0
outer loop
vertex -3.399999999999997 -15.900000000000002 6.0
vertex -3.6071067811865447 -16.400000000000002 6.0
vertex -3.441131166149791 -16.382962913144535 6.0
endloop
endfacet
facet normal 1.1604959018126515e-31 2.7771562533174776e-31 1.0
outer loop
vertex -3.399999999999997 -15.900000000000002 6.0
vertex -3.441131166149791 -16.382962913144535 6.0
vertex -3.3205406887010516 -16.333012701892223 6.0
endloop
endfacet
facet normal 1.1604959018126515e-31 2.7771562533174776e-31 1.0
outer loop
vertex -3.399999999999997 -15.900000000000002 6.0
vertex -3.3205406887010516 -16.333012701892223 6.0
vertex -3.2946845567430647 -16.029409522551262 6.0
endloop
endfacet
facet normal 1.1604959018126515e-31 2.7771562533174776e-31 1.0
outer loop
vertex -3.2946845567430647 -16.029409522551262 6.0
vertex -3.3205406887010516 -16.333012701892223 6.0
vertex -3.2535533905932708 -16.253553390593275 6.0
endloop
endfacet
facet normal 1.1604959018126515e-31 2.7771562533174776e-31 1.0
outer loop
vertex -3.2946845567430647 -16.029409522551262 6.0
vertex -3.2535533905932708 -16.253553390593275 6.0
vertex -3.2447343454907496 -16.150000000000002 6.0
endloop
endfacet
facet normal 1.1604959018126515e-31 2.7771562533174776e-31 1.0
outer loop
vertex 3.2535533905932734 -16.253553390593275 6.0
vertex 3.294684556743067 -16.029409522551262 6.0
vertex 3.2447343454907522 -16.150000000000002 6.0
endloop
endfacet
facet normal 1.1604959018126515e-31 2.7771562533174776e-31 1.0
outer loop
vertex 3.294684556743067 -16.029409522551262 6.0
vertex 3.2535533905932734 -16.253553390593275 6.0
vertex 3.320540688701054 -16.333012701892223 6.0
endloop
endfacet
facet normal 1.1604959018126515e-31 2.7771562533174776e-31 1.0
outer loop
vertex 3.294684556743067 -16.029409522551262 6.0
vertex 3.320540688701054 -16.333012701892223 6.0
vertex 3.3999999999999995 -15.900000000000002 6.0
endloop
endfacet
facet normal 1.1604959018126515e-31 2.7771562533174776e-31 1.0
outer loop
vertex 3.3999999999999995 -15.900000000000002 6.0
vertex 3.320540688701054 -16.333012701892223 6.0
vertex 3.4411311661497934 -16.382962913144535 6.0
endloop
endfacet
facet normal 1.1604959018126515e-31 2.7771562533174776e-31 1.0
outer loop
vertex 3.3999999999999995 -15.900000000000002 6.0
vertex 3.4411311661497934 -16.382962913144535 6.0
vertex 4.9 -14.399999999999999 6.0
endloop
endfacet
facet normal 1.1604959018126515e-31 2.7771562533174776e-31 1.0
outer loop
vertex 4.9 -14.399999999999999 6.0
vertex 3.4411311661497934 -16.382962913144535 6.0
vertex 3.607106781186547 -16.400000000000002 6.0
endloop
endfacet
facet normal 1.1604959018126515e-31 2.7771562533174776e-31 1.0
outer loop
vertex 4.9 -14.399999999999999 6.0
vertex 3.607106781186547 -16.400000000000002 6.0
vertex 5.8999999999999995 -16.400000000000002 6.0
endloop
endfacet
facet normal 1.1604959018126515e-31 2.7771562533174776e-31 1.0
outer loop
vertex 4.9 -14.399999999999999 6.0
vertex 5.8999999999999995 -16.400000000000002 6.0
vertex 4.9 -5.4 6.0
endloop
endfacet
facet normal 1.1604959018126515e-31 2.7771562533174776e-31 1.0
outer loop
vertex -6.865925826289068 -15.65881904510252 6.0
vertex -6.9 0.0 6.0
vertex -6.9 -15.4 6.0
endloop
endfacet
facet normal 1.1604959018126515e-31 2.7771562533174776e-31 1.0
outer loop
vertex -6.9 0.0 6.0
vertex -6.865925826289068 -15.65881904510252 6.0
vertex -4.4 5.388445916248355e-16 6.0
endloop
endfacet
facet normal 1.1604959018126515e-31 2.7771562533174776e-31 1.0
outer loop
vertex -4.4 5.388445916248355e-16 6.0
vertex -6.865925826289068 -15.65881904510252 6.0
vertex -6.766025403784438 -15.900000000000002 6.0
endloop
endfacet
facet normal 1.1604959018126515e-31 2.7771562533174776e-31 1.0
outer loop
vertex -4.4 5.388445916248355e-16 6.0
vertex -6.766025403784438 -15.900000000000002 6.0
vertex -6.607106781186547 -16.10710678118655 6.0
endloop
endfacet
facet normal 1.1604959018126515e-31 2.7771562533174776e-31 1.0
outer loop
vertex -4.4 5.388445916248355e-16 6.0
vertex -6.607106781186547 -16.10710678118655 6.0
vertex -6.3999999999999995 -16.26602540378444 6.0
endloop
endfacet
facet normal 1.1604959018126515e-31 2.7771562533174776e-31 1.0
outer loop
vertex -4.4 5.388445916248355e-16 6.0
vertex -6.3999999999999995 -16.26602540378444 6.0
vertex -6.158819045102521 -16.365925826289068 6.0
endloop
endfacet
facet normal 1.1604959018126515e-31 2.7771562533174776e-31 1.0
outer loop
vertex -4.4 5.388445916248355e-16 6.0
vertex -6.158819045102521 -16.365925826289068 6.0
vertex -4.9 -5.4 6.0
endloop
endfacet
facet normal 1.1604959018126515e-31 2.7771562533174776e-31 1.0
outer loop
vertex -4.9 -5.4 6.0
vertex -6.158819045102521 -16.365925826289068 6.0
vertex -5.9 -16.400000000000002 6.0
endloop
endfacet
facet normal 1.1604959018126515e-31 2.7771562533174776e-31 1.0
outer loop
vertex -4.9 -5.4 6.0
vertex -5.9 -16.400000000000002 6.0
vertex -4.9 -14.399999999999999 6.0
endloop
endfacet
facet normal 1.1604959018126515e-31 2.7771562533174776e-31 1.0
outer loop
vertex -4.4 5.388445916248355e-16 6.0
vertex -4.9 -5.4 6.0
vertex -1.645798706418925 -2.2652475842498525 6.0
endloop
endfacet
facet normal 1.1604959018126515e-31 2.7771562533174776e-31 1.0
outer loop
vertex -1.645798706418925 -2.2652475842498525 6.0
vertex -4.9 -5.4 6.0
vertex -1.2711733992707313 -2.4948182677274295 6.0
endloop
endfacet
facet normal 1.1604959018126515e-31 2.7771562533174776e-31 1.0
outer loop
vertex -1.2711733992707313 -2.4948182677274295 6.0
vertex -4.9 -5.4 6.0
vertex 4.9 -5.4 6.0
endloop
endfacet
facet normal 1.1604959018126515e-31 2.7771562533174776e-31 1.0
outer loop
vertex -4.4 5.388445916248355e-16 6.0
vertex -1.645798706418925 -2.2652475842498525 6.0
vertex -1.9798989873223336 -1.9798989873223327 6.0
endloop
endfacet
facet normal 1.1604959018126515e-31 2.7771562533174776e-31 1.0
outer loop
vertex -4.4 5.388445916248355e-16 6.0
vertex -1.9798989873223336 -1.9798989873223327 6.0
vertex -4.345828698618606 0.6883116461770163 6.0
endloop
endfacet
facet normal 1.1604959018126515e-31 2.7771562533174776e-31 1.0
outer loop
vertex -4.345828698618606 0.6883116461770163 6.0
vertex -1.9798989873223336 -1.9798989873223327 6.0
vertex -2.265247584249853 -1.6457987064189243 6.0
endloop
endfacet
facet normal 1.1604959018126515e-31 2.7771562533174776e-31 1.0
outer loop
vertex -4.345828698618606 0.6883116461770163 6.0
vertex -2.265247584249853 -1.6457987064189243 6.0
vertex -4.184648671698676 1.3596747752497693 6.0
endloop
endfacet
facet normal 1.1604959018126515e-31 2.7771562533174776e-31 1.0
outer loop
vertex -4.184648671698676 1.3596747752497693 6.0
vertex -2.265247584249853 -1.6457987064189243 6.0
vertex -2.49481826772743 -1.2711733992707306 6.0
endloop
endfacet
facet normal 1.1604959018126515e-31 2.7771562533174776e-31 1.0
outer loop
vertex -4.184648671698676 1.3596747752497693 6.0
vertex -2.49481826772743 -1.2711733992707306 6.0
vertex -3.920428706428819 1.9975581988540063 6.0
endloop
endfacet
facet normal 1.1604959018126515e-31 2.7771562533174776e-31 1.0
outer loop
vertex -3.920428706428819 1.9975581988540063 6.0
vertex -2.49481826772743 -1.2711733992707306 6.0
vertex -2.66295824562643 -0.8652475842498524 6.0
endloop
endfacet
facet normal 1.1604959018126515e-31 2.7771562533174776e-31 1.0
outer loop
vertex -3.920428706428819 1.9975581988540063 6.0
vertex -2.66295824562643 -0.8652475842498524 6.0
vertex -3.559674775249769 2.5862551100868822 6.0
endloop
endfacet
facet normal 1.1604959018126515e-31 2.7771562533174776e-31 1.0
outer loop
vertex -3.559674775249769 2.5862551100868822 6.0
vertex -2.66295824562643 -0.8652475842498524 6.0
vertex -2.7655273536663856 -0.43801650211264603 6.0
endloop
endfacet
facet normal 1.1604959018126515e-31 2.7771562533174776e-31 1.0
outer loop
vertex -3.559674775249769 2.5862551100868822 6.0
vertex -2.7655273536663856 -0.43801650211264603 6.0
vertex -3.111269837220809 3.1112698372208096 6.0
endloop
endfacet
facet normal 1.1604959018126515e-31 2.7771562533174776e-31 1.0
outer loop
vertex -3.111269837220809 3.1112698372208096 6.0
vertex -2.7655273536663856 -0.43801650211264603 6.0
vertex -2.8 3.429011037612589e-16 6.0
endloop
endfacet
facet normal 1.1604959018126515e-31 2.7771562533174776e-31 1.0
outer loop
vertex -1.2711733992707313 -2.4948182677274295 6.0
vertex 4.9 -5.4 6.0
vertex -0.865247584249853 -2.6629582456264296 6.0
endloop
endfacet
facet normal 1.1604959018126515e-31 2.7771562533174776e-31 1.0
outer loop
vertex -0.865247584249853 -2.6629582456264296 6.0
vertex 4.9 -5.4 6.0
vertex -0.4380165021126468 -2.765527353666385 6.0
endloop
endfacet
facet normal 1.1604959018126515e-31 2.7771562533174776e-31 1.0
outer loop
vertex -0.4380165021126468 -2.765527353666385 6.0
vertex 4.9 -5.4 6.0
vertex -5.143516556418883e-16 -2.8 6.0
endloop
endfacet
facet normal 1.1604959018126515e-31 2.7771562533174776e-31 1.0
outer loop
vertex -5.143516556418883e-16 -2.8 6.0
vertex 4.9 -5.4 6.0
vertex 0.43801650211264587 -2.7655273536663856 6.0
endloop
endfacet
facet normal 1.1604959018126515e-31 2.7771562533174776e-31 1.0
outer loop
vertex 0.43801650211264587 -2.7655273536663856 6.0
vertex 4.9 -5.4 6.0
vertex 0.8652475842498522 -2.66295824562643 6.0
endloop
endfacet
facet normal 1.1604959018126515e-31 2.7771562533174776e-31 1.0
outer loop
vertex 0.8652475842498522 -2.66295824562643 6.0
vertex 4.9 -5.4 6.0
vertex 1.2711733992707306 -2.49481826772743 6.0
endloop
endfacet
facet normal 1.1604959018126515e-31 2.7771562533174776e-31 1.0
outer loop
vertex 1.2711733992707306 -2.49481826772743 6.0
vertex 4.9 -5.4 6.0
vertex 1.645798706418924 -2.265247584249853 6.0
endloop
endfacet
facet normal 1.1604959018126515e-31 2.7771562533174776e-31 1.0
outer loop
vertex 1.645798706418924 -2.265247584249853 6.0
vertex 4.9 -5.4 6.0
vertex 1.9798989873223325 -1.9798989873223336 6.0
endloop
endfacet
facet normal 1.1604959018126515e-31 2.7771562533174776e-31 1.0
outer loop
vertex 1.9798989873223325 -1.9798989873223336 6.0
vertex 4.9 -5.4 6.0
vertex 2.2652475842498525 -1.6457987064189255 6.0
endloop
endfacet
facet normal 1.1604959018126515e-31 2.7771562533174776e-31 1.0
outer loop
vertex 2.2652475842498525 -1.6457987064189255 6.0
vertex 4.9 -5.4 6.0
vertex 2.4948182677274295 -1.2711733992707315 6.0
endloop
endfacet
facet normal 1.1604959018126515e-31 2.7771562533174776e-31 1.0
outer loop
vertex 2.4948182677274295 -1.2711733992707315 6.0
vertex 4.9 -5.4 6.0
vertex 2.6629582456264296 -0.8652475842498533 6.0
endloop
endfacet
facet normal 1.1604959018126515e-31 2.7771562533174776e-31 1.0
outer loop
vertex 2.6629582456264296 -0.8652475842498533 6.0
vertex 4.9 -5.4 6.0
vertex 2.765527353666385 -0.438016502112647 6.0
endloop
endfacet
facet normal 1.1604959018126515e-31 2.7771562533174776e-31 1.0
outer loop
vertex 2.765527353666385 -0.438016502112647 6.0
vertex 4.9 -5.4 6.0
vertex 2.8 0.0 6.0
endloop
endfacet
facet normal 1.1604959018126515e-31 2.7771562533174776e-31 1.0
outer loop
vertex 2.8 0.0 6.0
vertex 4.9 -5.4 6.0
vertex 3.1112698372208096 3.111269837220809 6.0
endloop
endfacet
facet normal 1.1604959018126515e-31 2.7771562533174776e-31 1.0
outer loop
vertex 3.1112698372208096 3.111269837220809 6.0
vertex 4.9 -5.4 6.0
vertex 3.559674775249769 2.5862551100868822 6.0
endloop
endfacet
facet normal 1.1604959018126515e-31 2.7771562533174776e-31 1.0
outer loop
vertex 3.559674775249769 2.5862551100868822 6.0
vertex 4.9 -5.4 6.0
vertex 3.920428706428819 1.9975581988540059 6.0
endloop
endfacet
facet normal 1.1604959018126515e-31 2.7771562533174776e-31 1.0
outer loop
vertex 3.920428706428819 1.9975581988540059 6.0
vertex 4.9 -5.4 6.0
vertex 4.184648671698676 1.3596747752497687 6.0
endloop
endfacet
facet normal 1.1604959018126515e-31 2.7771562533174776e-31 1.0
outer loop
vertex 4.184648671698676 1.3596747752497687 6.0
vertex 4.9 -5.4 6.0
vertex 4.4 0.0 6.0
endloop
endfacet
facet normal 1.1604959018126515e-31 2.7771562533174776e-31 1.0
outer loop
vertex 4.184648671698676 1.3596747752497687 6.0
vertex 4.4 0.0 6.0
vertex 4.3458286986186065 0.6883116461770159 6.0
endloop
endfacet
facet normal 1.1604959018126515e-31 2.7771562533174776e-31 1.0
outer loop
vertex 4.4 0.0 6.0
vertex 4.9 -5.4 6.0
vertex 6.9 0.0 6.0
endloop
endfacet
facet normal 1.1604959018126515e-31 2.7771562533174776e-31 1.0
outer loop
vertex 6.9 0.0 6.0
vertex 4.9 -5.4 6.0
vertex 5.8999999999999995 -16.400000000000002 6.0
endloop
endfacet
facet normal 1.1604959018126515e-31 2.7771562533174776e-31 1.0
outer loop
vertex 6.9 0.0 6.0
vertex 5.8999999999999995 -16.400000000000002 6.0
vertex 6.158819045102519 -16.365925826289068 6.0
endloop
endfacet
facet normal 1.1604959018126515e-31 2.7771562533174776e-31 1.0
outer loop
vertex 6.9 0.0 6.0
vertex 6.158819045102519 -16.365925826289068 6.0
vertex 6.3999999999999995 -16.26602540378444 6.0
endloop
endfacet
facet normal 1.1604959018126515e-31 2.7771562533174776e-31 1.0
outer loop
vertex 6.9 0.0 6.0
vertex 6.3999999999999995 -16.26602540378444 6.0
vertex 6.607106781186547 -16.10710678118655 6.0
endloop
endfacet
facet normal 1.1604959018126515e-31 2.7771562533174776e-31 1.0
outer loop
vertex 6.9 0.0 6.0
vertex 6.607106781186547 -16.10710678118655 6.0
vertex 6.766025403784437 -15.899999999999999 6.0
endloop
endfacet
facet normal 1.1604959018126515e-31 2.7771562533174776e-31 1.0
outer loop
vertex 6.9 0.0 6.0
vertex 6.766025403784437 -15.899999999999999 6.0
vertex 6.865925826289067 -15.65881904510252 6.0
endloop
endfacet
facet normal 1.1604959018126515e-31 2.7771562533174776e-31 1.0
outer loop
vertex 6.9 0.0 6.0
vertex 6.865925826289067 -15.65881904510252 6.0
vertex 6.899999999999999 -15.4 6.0
endloop
endfacet
facet normal 1.1604959018126515e-31 2.7771562533174776e-31 1.0
outer loop
vertex 2.265247584249853 1.6457987064189248 6.0
vertex 3.1112698372208096 3.111269837220809 6.0
vertex 1.9798989873223332 1.9798989873223327 6.0
endloop
endfacet
facet normal 1.1604959018126515e-31 2.7771562533174776e-31 1.0
outer loop
vertex 3.1112698372208096 3.111269837220809 6.0
vertex 2.265247584249853 1.6457987064189248 6.0
vertex 2.49481826772743 1.2711733992707308 6.0
endloop
endfacet
facet normal 1.1604959018126515e-31 2.7771562533174776e-31 1.0
outer loop
vertex 3.1112698372208096 3.111269837220809 6.0
vertex 2.49481826772743 1.2711733992707308 6.0
vertex 2.6629582456264296 0.8652475842498527 6.0
endloop
endfacet
facet normal 1.1604959018126515e-31 2.7771562533174776e-31 1.0
outer loop
vertex 3.1112698372208096 3.111269837220809 6.0
vertex 2.6629582456264296 0.8652475842498527 6.0
vertex 2.7655273536663856 0.43801650211264637 6.0
endloop
endfacet
facet normal 1.1604959018126515e-31 2.7771562533174776e-31 1.0
outer loop
vertex 3.1112698372208096 3.111269837220809 6.0
vertex 2.7655273536663856 0.43801650211264637 6.0
vertex 2.8 0.0 6.0
endloop
endfacet
facet normal 1.1604959018126515e-31 2.7771562533174776e-31 1.0
outer loop
vertex -3.111269837220809 3.1112698372208096 6.0
vertex -2.2652475842498525 1.645798706418925 6.0
vertex -1.9798989873223327 1.9798989873223332 6.0
endloop
endfacet
facet normal 1.1604959018126515e-31 2.7771562533174776e-31 1.0
outer loop
vertex -2.2652475842498525 1.645798706418925 6.0
vertex -3.111269837220809 3.1112698372208096 6.0
vertex -2.4948182677274295 1.271173399270731 6.0
endloop
endfacet
facet normal 1.1604959018126515e-31 2.7771562533174776e-31 1.0
outer loop
vertex -2.4948182677274295 1.271173399270731 6.0
vertex -3.111269837220809 3.1112698372208096 6.0
vertex -2.6629582456264296 0.865247584249853 6.0
endloop
endfacet
facet normal 1.1604959018126515e-31 2.7771562533174776e-31 1.0
outer loop
vertex -2.6629582456264296 0.865247584249853 6.0
vertex -3.111269837220809 3.1112698372208096 6.0
vertex -2.765527353666385 0.43801650211264676 6.0
endloop
endfacet
facet normal 1.1604959018126515e-31 2.7771562533174776e-31 1.0
outer loop
vertex -2.765527353666385 0.43801650211264676 6.0
vertex -3.111269837220809 3.1112698372208096 6.0
vertex -2.8 3.429011037612589e-16 6.0
endloop
endfacet
facet normal -1.0 0.0 0.0
outer loop
vertex -6.9 0.0 6.0
vertex -6.9 -15.4 0.0
vertex -6.9 -15.4 6.0
endloop
endfacet
facet normal -1.0 0.0 0.0
outer loop
vertex -6.9 -15.4 0.0
vertex -6.9 0.0 6.0
vertex -6.9 0.0 0.0
endloop
endfacet
facet normal 1.0 -5.1902776882952e-17 8.605666471045365e-33
outer loop
vertex 6.9 0.0 0.0
vertex 6.899999999999999 -15.4 6.0
vertex 6.899999999999999 -15.4 0.0
endloop
endfacet
facet normal 1.0 -5.1902776882952e-17 8.605666471045365e-33
outer loop
vertex 6.899999999999999 -15.4 6.0
vertex 6.9 0.0 0.0
vertex 6.9 0.0 6.0
endloop
endfacet
facet normal 0.0 -1.0 0.0
outer loop
vertex 5.8999999999999995 -16.400000000000002 6.0
vertex 3.607106781186547 -16.400000000000002 0.0
vertex 5.8999999999999995 -16.400000000000002 0.0
endloop
endfacet
facet normal 0.0 -1.0 0.0
outer loop
vertex 3.607106781186547 -16.400000000000002 0.0
vertex 5.8999999999999995 -16.400000000000002 6.0
vertex 3.607106781186547 -16.400000000000002 6.0
endloop
endfacet
facet normal 0.7071067811865474 0.7071067811865477 -0.0
outer loop
vertex -4.9 -14.399999999999999 6.0
vertex -3.399999999999997 -15.900000000000002 0.0
vertex -4.9 -14.399999999999999 0.0
endloop
endfacet
facet normal 0.7071067811865474 0.7071067811865477 -0.0
outer loop
vertex -3.399999999999997 -15.900000000000002 0.0
vertex -4.9 -14.399999999999999 6.0
vertex -3.399999999999997 -15.900000000000002 6.0
endloop
endfacet
facet normal -0.7756144938191054 0.6312069050459866 0.0
outer loop
vertex 3.3999999999999995 -15.900000000000002 6.0
vertex 3.294684556743067 -16.029409522551262 0.0
vertex 3.294684556743067 -16.029409522551262 6.0
endloop
endfacet
facet normal -0.8587845862039645 0.512336836952493 0.0
outer loop
vertex 3.294684556743067 -16.029409522551262 0.0
vertex 3.3999999999999995 -15.900000000000002 6.0
vertex 3.3999999999999995 -15.900000000000002 0.0
endloop
endfacet
facet normal -0.10211158527626901 -0.9947729510558515 0.0
outer loop
vertex 3.607106781186547 -16.400000000000002 6.0
vertex 3.4411311661497934 -16.382962913144535 0.0
vertex 3.607106781186547 -16.400000000000002 0.0
endloop
endfacet
facet normal -0.2449755528225277 -0.969529256144082 0.0
outer loop
vertex 3.4411311661497934 -16.382962913144535 0.0
vertex 3.607106781186547 -16.400000000000002 6.0
vertex 3.4411311661497934 -16.382962913144535 6.0
endloop
endfacet
facet normal -0.2449755528225277 -0.969529256144082 0.0
outer loop
vertex 3.4411311661497934 -16.382962913144535 6.0
vertex 3.320540688701054 -16.333012701892223 0.0
vertex 3.4411311661497934 -16.382962913144535 0.0
endloop
endfacet
facet normal -0.590378926399106 -0.8071262127225449 0.0
outer loop
vertex 3.320540688701054 -16.333012701892223 0.0
vertex 3.4411311661497934 -16.382962913144535 6.0
vertex 3.320540688701054 -16.333012701892223 6.0
endloop
endfacet
facet normal -0.923879532511289 -0.3826834323650839 0.0
outer loop
vertex 3.2535533905932734 -16.253553390593275 6.0
vertex 3.320540688701054 -16.333012701892223 0.0
vertex 3.320540688701054 -16.333012701892223 6.0
endloop
endfacet
facet normal -0.590378926399106 -0.8071262127225449 0.0
outer loop
vertex 3.320540688701054 -16.333012701892223 0.0
vertex 3.2535533905932734 -16.253553390593275 6.0
vertex 3.2535533905932734 -16.253553390593275 0.0
endloop
endfacet
facet normal -0.9881853606159685 0.1532634759630884 0.0
outer loop
vertex 3.2447343454907522 -16.150000000000002 6.0
vertex 3.2535533905932734 -16.253553390593275 0.0
vertex 3.2535533905932734 -16.253553390593275 6.0
endloop
endfacet
facet normal -0.923879532511289 -0.3826834323650839 0.0
outer loop
vertex 3.2535533905932734 -16.253553390593275 0.0
vertex 3.2447343454907522 -16.150000000000002 6.0
vertex 3.2447343454907522 -16.150000000000002 0.0
endloop
endfacet
facet normal -0.8587845862039645 0.512336836952493 0.0
outer loop
vertex 3.294684556743067 -16.029409522551262 6.0
vertex 3.2447343454907522 -16.150000000000002 0.0
vertex 3.2447343454907522 -16.150000000000002 6.0
endloop
endfacet
facet normal -0.9881853606159685 0.1532634759630884 0.0
outer loop
vertex 3.2447343454907522 -16.150000000000002 0.0
vertex 3.294684556743067 -16.029409522551262 6.0
vertex 3.294684556743067 -16.029409522551262 0.0
endloop
endfacet
facet normal 0.7756144938191073 0.6312069050459842 -0.0
outer loop
vertex -3.399999999999997 -15.900000000000002 0.0
vertex -3.2946845567430647 -16.029409522551262 6.0
vertex -3.2946845567430647 -16.029409522551262 0.0
endloop
endfacet
facet normal 0.858784586203964 0.5123368369524939 0.0
outer loop
vertex -3.2946845567430647 -16.029409522551262 6.0
vertex -3.399999999999997 -15.900000000000002 0.0
vertex -3.399999999999997 -15.900000000000002 6.0
endloop
endfacet
facet normal 0.858784586203964 0.5123368369524939 0.0
outer loop
vertex -3.2946845567430647 -16.029409522551262 0.0
vertex -3.2447343454907496 -16.150000000000002 6.0
vertex -3.2447343454907496 -16.150000000000002 0.0
endloop
endfacet
facet normal 0.9881853606159681 0.15326347596309084 0.0
outer loop
vertex -3.2447343454907496 -16.150000000000002 6.0
vertex -3.2946845567430647 -16.029409522551262 0.0
vertex -3.2946845567430647 -16.029409522551262 6.0
endloop
endfacet
facet normal 0.9881853606159681 0.15326347596309084 0.0
outer loop
vertex -3.2447343454907496 -16.150000000000002 0.0
vertex -3.2535533905932708 -16.253553390593275 6.0
vertex -3.2535533905932708 -16.253553390593275 0.0
endloop
endfacet
facet normal 0.9238795325112882 -0.3826834323650864 0.0
outer loop
vertex -3.2535533905932708 -16.253553390593275 6.0
vertex -3.2447343454907496 -16.150000000000002 0.0
vertex -3.2447343454907496 -16.150000000000002 6.0
endloop
endfacet
facet normal 0.9238795325112882 -0.3826834323650864 0.0
outer loop
vertex -3.2535533905932708 -16.253553390593275 0.0
vertex -3.3205406887010516 -16.333012701892223 6.0
vertex -3.3205406887010516 -16.333012701892223 0.0
endloop
endfacet
facet normal 0.5903789263991039 -0.8071262127225466 0.0
outer loop
vertex -3.3205406887010516 -16.333012701892223 6.0
vertex -3.2535533905932708 -16.253553390593275 0.0
vertex -3.2535533905932708 -16.253553390593275 6.0
endloop
endfacet
facet normal 0.5903789263991039 -0.8071262127225466 0.0
outer loop
vertex -3.3205406887010516 -16.333012701892223 6.0
vertex -3.441131166149791 -16.382962913144535 0.0
vertex -3.3205406887010516 -16.333012701892223 0.0
endloop
endfacet
facet normal 0.2449755528225277 -0.969529256144082 0.0
outer loop
vertex -3.441131166149791 -16.382962913144535 0.0
vertex -3.3205406887010516 -16.333012701892223 6.0
vertex -3.441131166149791 -16.382962913144535 6.0
endloop
endfacet
facet normal 0.2449755528225277 -0.969529256144082 0.0
outer loop
vertex -3.441131166149791 -16.382962913144535 6.0
vertex -3.6071067811865447 -16.400000000000002 0.0
vertex -3.441131166149791 -16.382962913144535 0.0
endloop
endfacet
facet normal 0.10211158527626901 -0.9947729510558515 0.0
outer loop
vertex -3.6071067811865447 -16.400000000000002 0.0
vertex -3.441131166149791 -16.382962913144535 6.0
vertex -3.6071067811865447 -16.400000000000002 6.0
endloop
endfacet
facet normal 0.0 -1.0 0.0
outer loop
vertex -3.6071067811865447 -16.400000000000002 6.0
vertex -5.9 -16.400000000000002 0.0
vertex -3.6071067811865447 -16.400000000000002 0.0
endloop
endfacet
facet normal 0.0 -1.0 0.0
outer loop
vertex -5.9 -16.400000000000002 0.0
vertex -3.6071067811865447 -16.400000000000002 6.0
vertex -5.9 -16.400000000000002 6.0
endloop
endfacet
facet normal -0.4999999999999998 -0.8660254037844389 0.0
outer loop
vertex -6.3999999999999995 -16.26602540378444 6.0
vertex -6.607106781186547 -16.10710678118655 0.0
vertex -6.3999999999999995 -16.26602540378444 0.0
endloop
endfacet
facet normal -0.707106781186546 -0.707106781186549 0.0
outer loop
vertex -6.607106781186547 -16.10710678118655 0.0
vertex -6.3999999999999995 -16.26602540378444 6.0
vertex -6.607106781186547 -16.10710678118655 6.0
endloop
endfacet
facet normal -0.9914448613738105 -0.13052619222005216 0.0
outer loop
vertex -6.9 -15.4 6.0
vertex -6.865925826289068 -15.65881904510252 0.0
vertex -6.865925826289068 -15.65881904510252 6.0
endloop
endfacet
facet normal -0.9659258262890685 -0.25881904510251985 0.0
outer loop
vertex -6.865925826289068 -15.65881904510252 0.0
vertex -6.9 -15.4 6.0
vertex -6.9 -15.4 0.0
endloop
endfacet
facet normal -0.1305261922200518 -0.9914448613738105 0.0
outer loop
vertex -5.9 -16.400000000000002 6.0
vertex -6.158819045102521 -16.365925826289068 0.0
vertex -5.9 -16.400000000000002 0.0
endloop
endfacet
facet normal -0.2588190451025222 -0.9659258262890679 0.0
outer loop
vertex -6.158819045102521 -16.365925826289068 0.0
vertex -5.9 -16.400000000000002 6.0
vertex -6.158819045102521 -16.365925826289068 6.0
endloop
endfacet
facet normal -0.2588190451025222 -0.9659258262890679 0.0
outer loop
vertex -6.158819045102521 -16.365925826289068 6.0
vertex -6.3999999999999995 -16.26602540378444 0.0
vertex -6.158819045102521 -16.365925826289068 0.0
endloop
endfacet
facet normal -0.4999999999999998 -0.8660254037844389 0.0
outer loop
vertex -6.3999999999999995 -16.26602540378444 0.0
vertex -6.158819045102521 -16.365925826289068 6.0
vertex -6.3999999999999995 -16.26602540378444 6.0
endloop
endfacet
facet normal -0.8660254037844392 -0.49999999999999933 0.0
outer loop
vertex -6.766025403784438 -15.900000000000002 6.0
vertex -6.607106781186547 -16.10710678118655 0.0
vertex -6.607106781186547 -16.10710678118655 6.0
endloop
endfacet
facet normal -0.707106781186546 -0.707106781186549 0.0
outer loop
vertex -6.607106781186547 -16.10710678118655 0.0
vertex -6.766025403784438 -15.900000000000002 6.0
vertex -6.766025403784438 -15.900000000000002 0.0
endloop
endfacet
facet normal -0.9659258262890685 -0.25881904510251985 0.0
outer loop
vertex -6.865925826289068 -15.65881904510252 6.0
vertex -6.766025403784438 -15.900000000000002 0.0
vertex -6.766025403784438 -15.900000000000002 6.0
endloop
endfacet
facet normal -0.8660254037844392 -0.49999999999999933 0.0
outer loop
vertex -6.766025403784438 -15.900000000000002 0.0
vertex -6.865925826289068 -15.65881904510252 6.0
vertex -6.865925826289068 -15.65881904510252 0.0
endloop
endfacet
facet normal 0.9659258262890681 -0.2588190451025218 0.0
outer loop
vertex 6.865925826289067 -15.65881904510252 0.0
vertex 6.766025403784437 -15.899999999999999 6.0
vertex 6.766025403784437 -15.899999999999999 0.0
endloop
endfacet
facet normal 0.8660254037844408 -0.49999999999999634 0.0
outer loop
vertex 6.766025403784437 -15.899999999999999 6.0
vertex 6.865925826289067 -15.65881904510252 0.0
vertex 6.865925826289067 -15.65881904510252 6.0
endloop
endfacet
facet normal 0.25881904510252113 -0.9659258262890682 0.0
outer loop
vertex 6.158819045102519 -16.365925826289068 6.0
vertex 5.8999999999999995 -16.400000000000002 0.0
vertex 6.158819045102519 -16.365925826289068 0.0
endloop
endfacet
facet normal 0.1305261922200518 -0.9914448613738105 0.0
outer loop
vertex 5.8999999999999995 -16.400000000000002 0.0
vertex 6.158819045102519 -16.365925826289068 6.0
vertex 5.8999999999999995 -16.400000000000002 6.0
endloop
endfacet
facet normal 0.8660254037844408 -0.49999999999999634 0.0
outer loop
vertex 6.766025403784437 -15.899999999999999 0.0
vertex 6.607106781186547 -16.10710678118655 6.0
vertex 6.607106781186547 -16.10710678118655 0.0
endloop
endfacet
facet normal 0.7071067811865499 -0.7071067811865451 0.0
outer loop
vertex 6.607106781186547 -16.10710678118655 6.0
vertex 6.766025403784437 -15.899999999999999 0.0
vertex 6.766025403784437 -15.899999999999999 6.0
endloop
endfacet
facet normal 0.4999999999999988 -0.8660254037844395 0.0
outer loop
vertex 6.3999999999999995 -16.26602540378444 6.0
vertex 6.158819045102519 -16.365925826289068 0.0
vertex 6.3999999999999995 -16.26602540378444 0.0
endloop
endfacet
facet normal 0.25881904510252113 -0.9659258262890682 0.0
outer loop
vertex 6.158819045102519 -16.365925826289068 0.0
vertex 6.3999999999999995 -16.26602540378444 6.0
vertex 6.158819045102519 -16.365925826289068 6.0
endloop
endfacet
facet normal 0.9914448613738105 -0.13052619222005216 -0.0
outer loop
vertex 6.899999999999999 -15.4 0.0
vertex 6.865925826289067 -15.65881904510252 6.0
vertex 6.865925826289067 -15.65881904510252 0.0
endloop
endfacet
facet normal 0.9659258262890681 -0.2588190451025218 0.0
outer loop
vertex 6.865925826289067 -15.65881904510252 6.0
vertex 6.899999999999999 -15.4 0.0
vertex 6.899999999999999 -15.4 6.0
endloop
endfacet
facet normal 0.7071067811865499 -0.7071067811865451 0.0
outer loop
vertex 6.607106781186547 -16.10710678118655 6.0
vertex 6.3999999999999995 -16.26602540378444 0.0
vertex 6.607106781186547 -16.10710678118655 0.0
endloop
endfacet
facet normal 0.4999999999999988 -0.8660254037844395 0.0
outer loop
vertex 6.3999999999999995 -16.26602540378444 0.0
vertex 6.607106781186547 -16.10710678118655 6.0
vertex 6.3999999999999995 -16.26602540378444 6.0
endloop
endfacet
facet normal 0.0 0.0 -1.0
outer loop
vertex -3.111269837220809 3.1112698372208096 0.0
vertex -2.765527353666385 0.43801650211264676 0.0
vertex -2.8 3.429011037612589e-16 0.0
endloop
endfacet
facet normal 0.0 0.0 -1.0
outer loop
vertex -2.765527353666385 0.43801650211264676 0.0
vertex -3.111269837220809 3.1112698372208096 0.0
vertex -2.6629582456264296 0.865247584249853 0.0
endloop
endfacet
facet normal 0.0 0.0 -1.0
outer loop
vertex -2.6629582456264296 0.865247584249853 0.0
vertex -3.111269837220809 3.1112698372208096 0.0
vertex -2.4948182677274295 1.271173399270731 0.0
endloop
endfacet
facet normal 0.0 0.0 -1.0
outer loop
vertex -2.4948182677274295 1.271173399270731 0.0
vertex -3.111269837220809 3.1112698372208096 0.0
vertex -2.2652475842498525 1.645798706418925 0.0
endloop
endfacet
facet normal 0.0 0.0 -1.0
outer loop
vertex -2.2652475842498525 1.645798706418925 0.0
vertex -3.111269837220809 3.1112698372208096 0.0
vertex -1.9798989873223327 1.9798989873223332 0.0
endloop
endfacet
facet normal 0.0 0.0 -1.0
outer loop
vertex 3.1112698372208096 3.111269837220809 0.0
vertex 2.265247584249853 1.6457987064189248 0.0
vertex 1.9798989873223332 1.9798989873223327 0.0
endloop
endfacet
facet normal 0.0 0.0 -1.0
outer loop
vertex 2.265247584249853 1.6457987064189248 0.0
vertex 3.1112698372208096 3.111269837220809 0.0
vertex 2.49481826772743 1.2711733992707308 0.0
endloop
endfacet
facet normal 0.0 0.0 -1.0
outer loop
vertex 2.49481826772743 1.2711733992707308 0.0
vertex 3.1112698372208096 3.111269837220809 0.0
vertex 2.6629582456264296 0.8652475842498527 0.0
endloop
endfacet
facet normal 0.0 0.0 -1.0
outer loop
vertex 2.6629582456264296 0.8652475842498527 0.0
vertex 3.1112698372208096 3.111269837220809 0.0
vertex 2.7655273536663856 0.43801650211264637 0.0
endloop
endfacet
facet normal 0.0 0.0 -1.0
outer loop
vertex 2.7655273536663856 0.43801650211264637 0.0
vertex 3.1112698372208096 3.111269837220809 0.0
vertex 2.8 0.0 0.0
endloop
endfacet
facet normal 0.0 0.0 -1.0
outer loop
vertex -4.4 5.388445916248355e-16 0.0
vertex -6.9 -15.4 0.0
vertex -6.9 0.0 0.0
endloop
endfacet
facet normal 0.0 0.0 -1.0
outer loop
vertex -6.9 -15.4 0.0
vertex -4.4 5.388445916248355e-16 0.0
vertex -6.865925826289068 -15.65881904510252 0.0
endloop
endfacet
facet normal 0.0 0.0 -1.0
outer loop
vertex -6.865925826289068 -15.65881904510252 0.0
vertex -4.4 5.388445916248355e-16 0.0
vertex -6.766025403784438 -15.900000000000002 0.0
endloop
endfacet
facet normal 0.0 0.0 -1.0
outer loop
vertex -6.766025403784438 -15.900000000000002 0.0
vertex -4.4 5.388445916248355e-16 0.0
vertex -6.607106781186547 -16.10710678118655 0.0
endloop
endfacet
facet normal 0.0 0.0 -1.0
outer loop
vertex -6.607106781186547 -16.10710678118655 0.0
vertex -4.4 5.388445916248355e-16 0.0
vertex -6.3999999999999995 -16.26602540378444 0.0
endloop
endfacet
facet normal 0.0 0.0 -1.0
outer loop
vertex -6.3999999999999995 -16.26602540378444 0.0
vertex -4.4 5.388445916248355e-16 0.0
vertex -6.158819045102521 -16.365925826289068 0.0
endloop
endfacet
facet normal 0.0 0.0 -1.0
outer loop
vertex -6.158819045102521 -16.365925826289068 0.0
vertex -4.4 5.388445916248355e-16 0.0
vertex -4.9 -5.4 0.0
endloop
endfacet
facet normal 0.0 0.0 -1.0
outer loop
vertex -6.158819045102521 -16.365925826289068 0.0
vertex -4.9 -5.4 0.0
vertex -5.9 -16.400000000000002 0.0
endloop
endfacet
facet normal 0.0 0.0 -1.0
outer loop
vertex -4.9 -5.4 0.0
vertex -4.4 5.388445916248355e-16 0.0
vertex -1.645798706418925 -2.2652475842498525 0.0
endloop
endfacet
facet normal 0.0 0.0 -1.0
outer loop
vertex -4.9 -5.4 0.0
vertex -1.645798706418925 -2.2652475842498525 0.0
vertex -1.2711733992707313 -2.4948182677274295 0.0
endloop
endfacet
facet normal 0.0 0.0 -1.0
outer loop
vertex -4.9 -5.4 0.0
vertex -1.2711733992707313 -2.4948182677274295 0.0
vertex 4.9 -5.4 0.0
endloop
endfacet
facet normal 0.0 0.0 -1.0
outer loop
vertex -1.645798706418925 -2.2652475842498525 0.0
vertex -4.4 5.388445916248355e-16 0.0
vertex -1.9798989873223336 -1.9798989873223327 0.0
endloop
endfacet
facet normal 0.0 0.0 -1.0
outer loop
vertex -1.9798989873223336 -1.9798989873223327 0.0
vertex -4.4 5.388445916248355e-16 0.0
vertex -4.345828698618606 0.6883116461770163 0.0
endloop
endfacet
facet normal 0.0 0.0 -1.0
outer loop
vertex -1.9798989873223336 -1.9798989873223327 0.0
vertex -4.345828698618606 0.6883116461770163 0.0
vertex -2.265247584249853 -1.6457987064189243 0.0
endloop
endfacet
facet normal 0.0 0.0 -1.0
outer loop
vertex -2.265247584249853 -1.6457987064189243 0.0
vertex -4.345828698618606 0.6883116461770163 0.0
vertex -4.184648671698676 1.3596747752497693 0.0
endloop
endfacet
facet normal 0.0 0.0 -1.0
outer loop
vertex -2.265247584249853 -1.6457987064189243 0.0
vertex -4.184648671698676 1.3596747752497693 0.0
vertex -2.49481826772743 -1.2711733992707306 0.0
endloop
endfacet
facet normal 0.0 0.0 -1.0
outer loop
vertex -2.49481826772743 -1.2711733992707306 0.0
vertex -4.184648671698676 1.3596747752497693 0.0
vertex -3.920428706428819 1.9975581988540063 0.0
endloop
endfacet
facet normal 0.0 0.0 -1.0
outer loop
vertex -2.49481826772743 -1.2711733992707306 0.0
vertex -3.920428706428819 1.9975581988540063 0.0
vertex -2.66295824562643 -0.8652475842498524 0.0
endloop
endfacet
facet normal 0.0 0.0 -1.0
outer loop
vertex -2.66295824562643 -0.8652475842498524 0.0
vertex -3.920428706428819 1.9975581988540063 0.0
vertex -3.559674775249769 2.5862551100868822 0.0
endloop
endfacet
facet normal 0.0 0.0 -1.0
outer loop
vertex -2.66295824562643 -0.8652475842498524 0.0
vertex -3.559674775249769 2.5862551100868822 0.0
vertex -2.7655273536663856 -0.43801650211264603 0.0
endloop
endfacet
facet normal 0.0 0.0 -1.0
outer loop
vertex -2.7655273536663856 -0.43801650211264603 0.0
vertex -3.559674775249769 2.5862551100868822 0.0
vertex -3.111269837220809 3.1112698372208096 0.0
endloop
endfacet
facet normal 0.0 0.0 -1.0
outer loop
vertex -2.7655273536663856 -0.43801650211264603 0.0
vertex -3.111269837220809 3.1112698372208096 0.0
vertex -2.8 3.429011037612589e-16 0.0
endloop
endfacet
facet normal 0.0 0.0 -1.0
outer loop
vertex 4.9 -5.4 0.0
vertex -1.2711733992707313 -2.4948182677274295 0.0
vertex -0.865247584249853 -2.6629582456264296 0.0
endloop
endfacet
facet normal 0.0 0.0 -1.0
outer loop
vertex 4.9 -5.4 0.0
vertex -0.865247584249853 -2.6629582456264296 0.0
vertex -0.4380165021126468 -2.765527353666385 0.0
endloop
endfacet
facet normal 0.0 0.0 -1.0
outer loop
vertex 4.9 -5.4 0.0
vertex -0.4380165021126468 -2.765527353666385 0.0
vertex -5.143516556418883e-16 -2.8 0.0
endloop
endfacet
facet normal 0.0 0.0 -1.0
outer loop
vertex 4.9 -5.4 0.0
vertex -5.143516556418883e-16 -2.8 0.0
vertex 0.43801650211264587 -2.7655273536663856 0.0
endloop
endfacet
facet normal 0.0 0.0 -1.0
outer loop
vertex 4.9 -5.4 0.0
vertex 0.43801650211264587 -2.7655273536663856 0.0
vertex 0.8652475842498522 -2.66295824562643 0.0
endloop
endfacet
facet normal 0.0 0.0 -1.0
outer loop
vertex 4.9 -5.4 0.0
vertex 0.8652475842498522 -2.66295824562643 0.0
vertex 1.2711733992707306 -2.49481826772743 0.0
endloop
endfacet
facet normal 0.0 0.0 -1.0
outer loop
vertex 4.9 -5.4 0.0
vertex 1.2711733992707306 -2.49481826772743 0.0
vertex 1.645798706418924 -2.265247584249853 0.0
endloop
endfacet
facet normal 0.0 0.0 -1.0
outer loop
vertex 4.9 -5.4 0.0
vertex 1.645798706418924 -2.265247584249853 0.0
vertex 1.9798989873223325 -1.9798989873223336 0.0
endloop
endfacet
facet normal 0.0 0.0 -1.0
outer loop
vertex 4.9 -5.4 0.0
vertex 1.9798989873223325 -1.9798989873223336 0.0
vertex 2.2652475842498525 -1.6457987064189255 0.0
endloop
endfacet
facet normal 0.0 0.0 -1.0
outer loop
vertex 4.9 -5.4 0.0
vertex 2.2652475842498525 -1.6457987064189255 0.0
vertex 2.4948182677274295 -1.2711733992707315 0.0
endloop
endfacet
facet normal 0.0 0.0 -1.0
outer loop
vertex 4.9 -5.4 0.0
vertex 2.4948182677274295 -1.2711733992707315 0.0
vertex 2.6629582456264296 -0.8652475842498533 0.0
endloop
endfacet
facet normal 0.0 0.0 -1.0
outer loop
vertex 4.9 -5.4 0.0
vertex 2.6629582456264296 -0.8652475842498533 0.0
vertex 2.765527353666385 -0.438016502112647 0.0
endloop
endfacet
facet normal 0.0 0.0 -1.0
outer loop
vertex 4.9 -5.4 0.0
vertex 2.765527353666385 -0.438016502112647 0.0
vertex 2.8 0.0 0.0
endloop
endfacet
facet normal 0.0 0.0 -1.0
outer loop
vertex 4.9 -5.4 0.0
vertex 2.8 0.0 0.0
vertex 3.1112698372208096 3.111269837220809 0.0
endloop
endfacet
facet normal 0.0 0.0 -1.0
outer loop
vertex 4.9 -5.4 0.0
vertex 3.1112698372208096 3.111269837220809 0.0
vertex 3.559674775249769 2.5862551100868822 0.0
endloop
endfacet
facet normal 0.0 0.0 -1.0
outer loop
vertex 4.9 -5.4 0.0
vertex 3.559674775249769 2.5862551100868822 0.0
vertex 3.920428706428819 1.9975581988540059 0.0
endloop
endfacet
facet normal 0.0 0.0 -1.0
outer loop
vertex 4.9 -5.4 0.0
vertex 3.920428706428819 1.9975581988540059 0.0
vertex 4.184648671698676 1.3596747752497687 0.0
endloop
endfacet
facet normal 0.0 0.0 -1.0
outer loop
vertex 4.9 -5.4 0.0
vertex 4.184648671698676 1.3596747752497687 0.0
vertex 4.4 0.0 0.0
endloop
endfacet
facet normal 0.0 0.0 -1.0
outer loop
vertex 4.4 0.0 0.0
vertex 4.184648671698676 1.3596747752497687 0.0
vertex 4.3458286986186065 0.6883116461770159 0.0
endloop
endfacet
facet normal 0.0 0.0 -1.0
outer loop
vertex 4.9 -5.4 0.0
vertex 4.4 0.0 0.0
vertex 6.9 0.0 0.0
endloop
endfacet
facet normal 0.0 0.0 -1.0
outer loop
vertex 4.9 -5.4 0.0
vertex 6.9 0.0 0.0
vertex 4.9 -14.399999999999999 0.0
endloop
endfacet
facet normal 0.0 0.0 -1.0
outer loop
vertex 4.9 -14.399999999999999 0.0
vertex 6.9 0.0 0.0
vertex 5.8999999999999995 -16.400000000000002 0.0
endloop
endfacet
facet normal 0.0 0.0 -1.0
outer loop
vertex 5.8999999999999995 -16.400000000000002 0.0
vertex 6.9 0.0 0.0
vertex 6.158819045102519 -16.365925826289068 0.0
endloop
endfacet
facet normal 0.0 0.0 -1.0
outer loop
vertex 6.158819045102519 -16.365925826289068 0.0
vertex 6.9 0.0 0.0
vertex 6.3999999999999995 -16.26602540378444 0.0
endloop
endfacet
facet normal 0.0 0.0 -1.0
outer loop
vertex 6.3999999999999995 -16.26602540378444 0.0
vertex 6.9 0.0 0.0
vertex 6.607106781186547 -16.10710678118655 0.0
endloop
endfacet
facet normal 0.0 0.0 -1.0
outer loop
vertex 6.607106781186547 -16.10710678118655 0.0
vertex 6.9 0.0 0.0
vertex 6.766025403784437 -15.899999999999999 0.0
endloop
endfacet
facet normal 0.0 0.0 -1.0
outer loop
vertex 6.766025403784437 -15.899999999999999 0.0
vertex 6.9 0.0 0.0
vertex 6.865925826289067 -15.65881904510252 0.0
endloop
endfacet
facet normal 0.0 0.0 -1.0
outer loop
vertex 6.865925826289067 -15.65881904510252 0.0
vertex 6.9 0.0 0.0
vertex 6.899999999999999 -15.4 0.0
endloop
endfacet
facet normal 0.0 0.0 -1.0
outer loop
vertex 3.294684556743067 -16.029409522551262 0.0
vertex 3.2535533905932734 -16.253553390593275 0.0
vertex 3.2447343454907522 -16.150000000000002 0.0
endloop
endfacet
facet normal 0.0 0.0 -1.0
outer loop
vertex 3.2535533905932734 -16.253553390593275 0.0
vertex 3.294684556743067 -16.029409522551262 0.0
vertex 3.320540688701054 -16.333012701892223 0.0
endloop
endfacet
facet normal 0.0 0.0 -1.0
outer loop
vertex 3.320540688701054 -16.333012701892223 0.0
vertex 3.294684556743067 -16.029409522551262 0.0
vertex 3.3999999999999995 -15.900000000000002 0.0
endloop
endfacet
facet normal 0.0 0.0 -1.0
outer loop
vertex 3.320540688701054 -16.333012701892223 0.0
vertex 3.3999999999999995 -15.900000000000002 0.0
vertex 3.4411311661497934 -16.382962913144535 0.0
endloop
endfacet
facet normal 0.0 0.0 -1.0
outer loop
vertex 3.4411311661497934 -16.382962913144535 0.0
vertex 3.3999999999999995 -15.900000000000002 0.0
vertex 4.9 -14.399999999999999 0.0
endloop
endfacet
facet normal 0.0 0.0 -1.0
outer loop
vertex 3.4411311661497934 -16.382962913144535 0.0
vertex 4.9 -14.399999999999999 0.0
vertex 3.607106781186547 -16.400000000000002 0.0
endloop
endfacet
facet normal 0.0 0.0 -1.0
outer loop
vertex 3.607106781186547 -16.400000000000002 0.0
vertex 4.9 -14.399999999999999 0.0
vertex 5.8999999999999995 -16.400000000000002 0.0
endloop
endfacet
facet normal 0.0 0.0 -1.0
outer loop
vertex -5.9 -16.400000000000002 0.0
vertex -4.9 -14.399999999999999 0.0
vertex -3.6071067811865447 -16.400000000000002 0.0
endloop
endfacet
facet normal 0.0 0.0 -1.0
outer loop
vertex -4.9 -14.399999999999999 0.0
vertex -5.9 -16.400000000000002 0.0
vertex -4.9 -5.4 0.0
endloop
endfacet
facet normal 0.0 0.0 -1.0
outer loop
vertex -3.6071067811865447 -16.400000000000002 0.0
vertex -4.9 -14.399999999999999 0.0
vertex -3.399999999999997 -15.900000000000002 0.0
endloop
endfacet
facet normal 0.0 0.0 -1.0
outer loop
vertex -3.6071067811865447 -16.400000000000002 0.0
vertex -3.399999999999997 -15.900000000000002 0.0
vertex -3.441131166149791 -16.382962913144535 0.0
endloop
endfacet
facet normal 0.0 0.0 -1.0
outer loop
vertex -3.441131166149791 -16.382962913144535 0.0
vertex -3.399999999999997 -15.900000000000002 0.0
vertex -3.3205406887010516 -16.333012701892223 0.0
endloop
endfacet
facet normal 0.0 0.0 -1.0
outer loop
vertex -3.3205406887010516 -16.333012701892223 0.0
vertex -3.399999999999997 -15.900000000000002 0.0
vertex -3.2946845567430647 -16.029409522551262 0.0
endloop
endfacet
facet normal 0.0 0.0 -1.0
outer loop
vertex -3.3205406887010516 -16.333012701892223 0.0
vertex -3.2946845567430647 -16.029409522551262 0.0
vertex -3.2535533905932708 -16.253553390593275 0.0
endloop
endfacet
facet normal 0.0 0.0 -1.0
outer loop
vertex -3.2535533905932708 -16.253553390593275 0.0
vertex -3.2946845567430647 -16.029409522551262 0.0
vertex -3.2447343454907496 -16.150000000000002 0.0
endloop
endfacet
endsolid Microphone_Cable_Clip-mk2-rounded
