solid UV_Curing_Platter_Tray_With_Lip-mk2-finished
facet normal 0.03569153051241252 -0.9993628543475497 -6.657506671349758e-17
outer loop
vertex 44.999999999999986 1.6071428571428583 2.6542112867254187e-33
vertex -4.865172461813043e-32 1.5179859600065148e-31 2.9999999999999987
vertex 0.0 0.0 0.0
endloop
endfacet
facet normal 0.03569153051241252 -0.9993628543475497 -6.657506671349758e-17
outer loop
vertex -4.865172461813043e-32 1.5179859600065148e-31 2.9999999999999987
vertex 44.999999999999986 1.6071428571428583 2.6542112867254187e-33
vertex 44.999999999999986 1.6071428571428574 6.0
endloop
endfacet
facet normal 0.03569153051241252 -0.9993628543475497 -6.657506671349758e-17
outer loop
vertex -4.865172461813043e-32 1.5179859600065148e-31 2.9999999999999987
vertex 44.999999999999986 1.6071428571428574 6.0
vertex -6.347662456344125e-17 1.3279089765329656e-31 5.999999999999999
endloop
endfacet
facet normal -1.0 -8.205848322269482e-64 -1.6217241539376818e-32
outer loop
vertex -50.0 1.5179859600065148e-31 2.9999999999999987
vertex -50.0 98.0 -5.769616212990122e-30
vertex -50.0 -4.102924161134741e-62 -8.10862076968841e-31
endloop
endfacet
facet normal -1.0 -8.205848322269482e-64 -1.6217241539376818e-32
outer loop
vertex -50.0 98.0 -5.769616212990122e-30
vertex -50.0 1.5179859600065148e-31 2.9999999999999987
vertex -50.0 98.0 2.9999999999999987
endloop
endfacet
facet normal 3.041392225839851e-32 -9.297327572357031e-33 -1.0
outer loop
vertex 0.0 98.0 -4.958754136021281e-30
vertex -50.0 -4.102924161134741e-62 -8.10862076968841e-31
vertex -50.0 98.0 -5.769616212990122e-30
endloop
endfacet
facet normal 3.041392225839851e-32 -9.297327572357031e-33 -1.0
outer loop
vertex -50.0 -4.102924161134741e-62 -8.10862076968841e-31
vertex 0.0 98.0 -4.958754136021281e-30
vertex 0.0 0.0 0.0
endloop
endfacet
facet normal 3.041392225839851e-32 -9.297327572357031e-33 -1.0
outer loop
vertex 0.0 0.0 0.0
vertex 0.0 98.0 -4.958754136021281e-30
vertex 44.999999999999986 96.39285714285715 -7.775021645654331e-31
endloop
endfacet
facet normal 3.041392225839851e-32 -9.297327572357031e-33 -1.0
outer loop
vertex 0.0 0.0 0.0
vertex 44.999999999999986 96.39285714285715 -7.775021645654331e-31
vertex 44.999999999999986 1.6071428571428583 2.6542112867254187e-33
endloop
endfacet
facet normal 3.041392225839851e-32 -9.297327572357031e-33 -1.0
outer loop
vertex 44.999999999999986 1.6071428571428583 2.6542112867254187e-33
vertex 44.999999999999986 96.39285714285715 -7.775021645654331e-31
vertex 46.961477393196105 96.24568858815186 -6.907940264202746e-31
endloop
endfacet
facet normal 3.041392225839851e-32 -9.297327572357031e-33 -1.0
outer loop
vertex 44.999999999999986 1.6071428571428583 2.6542112867254187e-33
vertex 46.961477393196105 96.24568858815186 -6.907940264202746e-31
vertex 46.961477393196105 1.7543114118481358 3.216985250729699e-33
endloop
endfacet
facet normal 3.041392225839851e-32 -9.297327572357031e-33 -1.0
outer loop
vertex 46.961477393196105 1.7543114118481358 3.216985250729699e-33
vertex 46.961477393196105 96.24568858815186 -6.907940264202746e-31
vertex 48.91086162600576 95.94519579519975 -6.059278873427422e-31
endloop
endfacet
facet normal 3.041392225839851e-32 -9.297327572357031e-33 -1.0
outer loop
vertex 46.961477393196105 1.7543114118481358 3.216985250729699e-33
vertex 48.91086162600576 95.94519579519975 -6.059278873427422e-31
vertex 48.91086162600576 2.0548042048002504 4.022572269420838e-33
endloop
endfacet
facet normal 3.041392225839851e-32 -9.297327572357031e-33 -1.0
outer loop
vertex 48.91086162600576 2.0548042048002504 4.022572269420838e-33
vertex 48.91086162600576 95.94519579519975 -6.059278873427422e-31
vertex 50.83613409639763 95.49323140199333 -5.234269753011037e-31
endloop
endfacet
facet normal 3.041392225839851e-32 -9.297327572357031e-33 -1.0
outer loop
vertex 48.91086162600576 2.0548042048002504 4.022572269420838e-33
vertex 50.83613409639763 95.49323140199333 -5.234269753011037e-31
vertex 50.83613409639763 2.5067685980066754 5.06600563094376e-33
endloop
endfacet
facet normal 3.041392225839851e-32 -9.297327572357031e-33 -1.0
outer loop
vertex 50.83613409639763 2.5067685980066754 5.06600563094376e-33
vertex 50.83613409639763 95.49323140199333 -5.234269753011037e-31
vertex 52.725424859373675 94.89258191931015 -4.437999358524328e-31
endloop
endfacet
facet normal 3.041392225839851e-32 -9.297327572357031e-33 -1.0
outer loop
vertex 50.83613409639763 2.5067685980066754 5.06600563094376e-33
vertex 52.725424859373675 94.89258191931015 -4.437999358524328e-31
vertex 52.725424859373675 3.1074180806898664 6.340852221647855e-33
endloop
endfacet
facet normal 3.041392225839851e-32 -9.297327572357031e-33 -1.0
outer loop
vertex 52.725424859373675 3.1074180806898664 6.340852221647855e-33
vertex 52.725424859373675 94.89258191931015 -4.437999358524328e-31
vertex 54.56708580912723 94.14695055094714 -3.6753769617360822e-31
endloop
endfacet
facet normal 3.041392225839851e-32 -9.297327572357031e-33 -1.0
outer loop
vertex 52.725424859373675 3.1074180806898664 6.340852221647855e-33
vertex 54.56708580912723 94.14695055094714 -3.6753769617360822e-31
vertex 54.56708580912723 3.853049449052869 7.83925218837193e-33
endloop
endfacet
facet normal 3.041392225839851e-32 -9.297327572357031e-33 -1.0
outer loop
vertex 54.56708580912723 3.853049449052869 7.83925218837193e-33
vertex 54.56708580912723 94.14695055094714 -3.6753769617360822e-31
vertex 56.349762493488655 93.26093436223788 -2.9511043833201803e-31
endloop
endfacet
facet normal 3.041392225839851e-32 -9.297327572357031e-33 -1.0
outer loop
vertex 54.56708580912723 3.853049449052869 7.83925218837193e-33
vertex 56.349762493488655 93.26093436223788 -2.9511043833201803e-31
vertex 56.349762493488655 4.739065637762134 9.551967397052584e-33
endloop
endfacet
facet normal 3.041392225839851e-32 -9.297327572357031e-33 -1.0
outer loop
vertex 56.349762493488655 4.739065637762134 9.551967397052584e-33
vertex 56.349762493488655 93.26093436223788 -2.9511043833201803e-31
vertex 58.062464117898706 92.23999593761603 -2.2696470045676274e-31
endloop
endfacet
facet normal 3.041392225839851e-32 -9.297327572357031e-33 -1.0
outer loop
vertex 56.349762493488655 4.739065637762134 9.551967397052584e-33
vertex 58.062464117898706 92.23999593761603 -2.2696470045676274e-31
vertex 58.062464117898706 5.760004062383979 1.1468438388892687e-32
endloop
endfacet
facet normal 3.041392225839851e-32 -9.297327572357031e-33 -1.0
outer loop
vertex 58.062464117898706 5.760004062383979 1.1468438388892687e-32
vertex 58.062464117898706 92.23999593761603 -2.2696470045676274e-31
vertex 59.694631307311816 91.09042970196586 -1.6352062368260071e-31
endloop
endfacet
facet normal 3.041392225839851e-32 -9.297327572357031e-33 -1.0
outer loop
vertex 58.062464117898706 5.760004062383979 1.1468438388892687e-32
vertex 59.694631307311816 91.09042970196586 -1.6352062368260071e-31
vertex 59.694631307311816 6.909570298034141 1.3576849482936277e-32
endloop
endfacet
facet normal 3.041392225839851e-32 -9.297327572357031e-33 -1.0
outer loop
vertex 59.694631307311816 6.909570298034141 1.3576849482936277e-32
vertex 59.694631307311816 91.09042970196586 -1.6352062368260071e-31
vertex 61.23620120825458 89.81932311339973 -1.0516936184014111e-31
endloop
endfacet
facet normal 3.041392225839851e-32 -9.297327572357031e-33 -1.0
outer loop
vertex 59.694631307311816 6.909570298034141 1.3576849482936277e-32
vertex 61.23620120825458 89.81932311339973 -1.0516936184014111e-31
vertex 61.23620120825458 8.180676886600278 1.586420162367075e-32
endloop
endfacet
facet normal 3.041392225839851e-32 -9.297327572357031e-33 -1.0
outer loop
vertex 61.23620120825458 8.180676886600278 1.586420162367075e-32
vertex 61.23620120825458 89.81932311339973 -1.0516936184014111e-31
vertex 62.677669529663675 88.43451296672197 -5.227066986240639e-32
endloop
endfacet
facet normal 3.041392225839851e-32 -9.297327572357031e-33 -1.0
outer loop
vertex 61.23620120825458 8.180676886600278 1.586420162367075e-32
vertex 62.677669529663675 88.43451296672197 -5.227066986240639e-32
vertex 62.677669529663675 9.565487033278037 1.8316392524526693e-32
endloop
endfacet
facet normal 3.041392225839851e-32 -9.297327572357031e-33 -1.0
outer loop
vertex 62.677669529663675 9.565487033278037 1.8316392524526693e-32
vertex 62.677669529663675 88.43451296672197 -5.227066986240639e-32
vertex 64.01014914000076 86.94453707698295 -5.150685776039014e-33
endloop
endfacet
facet normal 3.041392225839851e-32 -9.297327572357031e-33 -1.0
outer loop
vertex 62.677669529663675 9.565487033278037 1.8316392524526693e-32
vertex 64.01014914000076 86.94453707698295 -5.150685776039014e-33
vertex 64.01014914000076 11.05546292301705 2.091830361316411e-32
endloop
endfacet
facet normal 3.041392225839851e-32 -9.297327572357031e-33 -1.0
outer loop
vertex 64.01014914000076 11.05546292301705 2.091830361316411e-32
vertex 64.01014914000076 86.94453707698295 -5.150685776039014e-33
vertex 65.22542485937367 85.3585816410102 3.5900080048083563e-32
endloop
endfacet
facet normal 3.041392225839851e-32 -9.297327572357031e-33 -1.0
outer loop
vertex 64.01014914000076 11.05546292301705 2.091830361316411e-32
vertex 65.22542485937367 85.3585816410102 3.5900080048083563e-32
vertex 65.22542485937367 12.641418358989815 2.3653893242498318e-32
endloop
endfacet
facet normal 3.041392225839851e-32 -9.297327572357031e-33 -1.0
outer loop
vertex 65.22542485937367 12.641418358989815 2.3653893242498318e-32
vertex 65.22542485937367 85.3585816410102 3.5900080048083563e-32
vertex 66.3160041088523 83.68642460145014 7.062853598789071e-32
endloop
endfacet
facet normal 3.041392225839851e-32 -9.297327572357031e-33 -1.0
outer loop
vertex 65.22542485937367 12.641418358989815 2.3653893242498318e-32
vertex 66.3160041088523 83.68642460145014 7.062853598789071e-32
vertex 66.3160041088523 14.313575398549863 2.650629559278862e-32
endloop
endfacet
facet normal 3.041392225839851e-32 -9.297327572357031e-33 -1.0
outer loop
vertex 66.3160041088523 14.313575398549863 2.650629559278862e-32
vertex 66.3160041088523 83.68642460145014 7.062853598789071e-32
vertex 67.27516310470918 81.93837536250035 9.882056956413035e-32
endloop
endfacet
facet normal 3.041392225839851e-32 -9.297327572357031e-33 -1.0
outer loop
vertex 66.3160041088523 14.313575398549863 2.650629559278862e-32
vertex 67.27516310470918 81.93837536250035 9.882056956413035e-32
vertex 67.27516310470918 16.061624637499662 2.945792465502542e-32
endloop
endfacet
facet normal 3.041392225839851e-32 -9.297327572357031e-33 -1.0
outer loop
vertex 67.27516310470918 16.061624637499662 2.945792465502542e-32
vertex 67.27516310470918 81.93837536250035 9.882056956413035e-32
vertex 68.09698831278216 80.12521122900428 1.2030236751500225e-31
endloop
endfacet
facet normal 3.041392225839851e-32 -9.297327572357031e-33 -1.0
outer loop
vertex 67.27516310470918 16.061624637499662 2.945792465502542e-32
vertex 68.09698831278216 80.12521122900428 1.2030236751500225e-31
vertex 68.09698831278216 17.87478877099573 3.2490582654523784e-32
endloop
endfacet
facet normal 3.041392225839851e-32 -9.297327572357031e-33 -1.0
outer loop
vertex 68.09698831278216 17.87478877099573 3.2490582654523784e-32
vertex 68.09698831278216 80.12521122900428 1.2030236751500225e-31
vertex 68.77641290737883 78.2581109607832 1.3494148741271662e-31
endloop
endfacet
facet normal 3.041392225839851e-32 -9.297327572357031e-33 -1.0
outer loop
vertex 68.09698831278216 17.87478877099573 3.2490582654523784e-32
vertex 68.77641290737883 78.2581109607832 1.3494148741271662e-31
vertex 68.77641290737883 19.741889039216808 3.5585572246255676e-32
endloop
endfacet
facet normal 3.041392225839851e-32 -9.297327572357031e-33 -1.0
outer loop
vertex 68.77641290737883 19.741889039216808 3.5585572246255676e-32
vertex 68.77641290737883 78.2581109607832 1.3494148741271662e-31
vertex 69.30924800994191 76.34858585186456 1.4264767421510264e-31
endloop
endfacet
facet normal 3.041392225839851e-32 -9.297327572357031e-33 -1.0
outer loop
vertex 68.77641290737883 19.741889039216808 3.5585572246255676e-32
vertex 69.30924800994191 76.34858585186456 1.4264767421510264e-31
vertex 69.30924800994191 21.651414148135462 3.87238117901996e-32
endloop
endfacet
facet normal 3.041392225839851e-32 -9.297327572357031e-33 -1.0
outer loop
vertex 69.30924800994191 21.651414148135462 3.87238117901996e-32
vertex 69.30924800994191 76.34858585186456 1.4264767421510264e-31
vertex 69.69220851487843 74.40840875952632 1.433734167179566e-31
endloop
endfacet
facet normal 3.041392225839851e-32 -9.297327572357031e-33 -1.0
outer loop
vertex 69.30924800994191 21.651414148135462 3.87238117901996e-32
vertex 69.69220851487843 74.40840875952632 1.433734167179566e-31
vertex 69.69220851487843 23.591591240473683 4.1885952995996596e-32
endloop
endfacet
facet normal 3.041392225839851e-32 -9.297327572357031e-33 -1.0
outer loop
vertex 69.69220851487843 23.591591240473683 4.1885952995996596e-32
vertex 69.69220851487843 74.40840875952632 1.433734167179566e-31
vertex 69.92293334332818 72.44954152071716 1.3711424047741445e-31
endloop
endfacet
facet normal 3.041392225839851e-32 -9.297327572357031e-33 -1.0
outer loop
vertex 69.69220851487843 23.591591240473683 4.1885952995996596e-32
vertex 69.92293334332818 72.44954152071716 1.3711424047741445e-31
vertex 69.92293334332818 25.550458479282852 4.505250021159426e-32
endloop
endfacet
facet normal 3.041392225839851e-32 -9.297327572357031e-33 -1.0
outer loop
vertex 69.92293334332818 25.550458479282852 4.505250021159426e-32
vertex 69.92293334332818 72.44954152071716 1.3711424047741445e-31
vertex 69.99999999999999 70.48406120335376 1.2390873539638648e-31
endloop
endfacet
facet normal 3.041392225839851e-32 -9.297327572357031e-33 -1.0
outer loop
vertex 69.92293334332818 25.550458479282852 4.505250021159426e-32
vertex 69.99999999999999 70.48406120335376 1.2390873539638648e-31
vertex 69.99999999999999 27.51593879664625 4.820393062042464e-32
endloop
endfacet
facet normal -4.284349244128887e-79 -1.0 5.059953200021718e-32
outer loop
vertex 0.0 0.0 0.0
vertex -50.0 1.5179859600065148e-31 2.9999999999999987
vertex -50.0 -4.102924161134741e-62 -8.10862076968841e-31
endloop
endfacet
facet normal -4.284349244128887e-79 -1.0 5.059953200021718e-32
outer loop
vertex -50.0 1.5179859600065148e-31 2.9999999999999987
vertex 0.0 0.0 0.0
vertex -4.865172461813043e-32 1.5179859600065148e-31 2.9999999999999987
endloop
endfacet
facet normal -1.621724153937682e-32 0.0 1.0
outer loop
vertex -4.865172461813043e-32 1.5179859600065148e-31 2.9999999999999987
vertex -50.0 98.0 2.9999999999999987
vertex -50.0 1.5179859600065148e-31 2.9999999999999987
endloop
endfacet
facet normal -1.621724153937682e-32 0.0 1.0
outer loop
vertex -50.0 98.0 2.9999999999999987
vertex -4.865172461813043e-32 1.5179859600065148e-31 2.9999999999999987
vertex -4.865172461813043e-32 98.0 2.9999999999999987
endloop
endfacet
facet normal -1.0 -0.0 -2.11588748544804e-17
outer loop
vertex -6.347662456344125e-17 98.0 5.999999999999999
vertex -4.865172461813043e-32 1.5179859600065148e-31 2.9999999999999987
vertex -6.347662456344125e-17 1.3279089765329656e-31 5.999999999999999
endloop
endfacet
facet normal -1.0 -0.0 -2.11588748544804e-17
outer loop
vertex -4.865172461813043e-32 1.5179859600065148e-31 2.9999999999999987
vertex -6.347662456344125e-17 98.0 5.999999999999999
vertex -4.865172461813043e-32 98.0 2.9999999999999987
endloop
endfacet
facet normal 1.0 -0.0 -0.0
outer loop
vertex 69.99999999999999 70.48406120335376 1.2390873539638648e-31
vertex 69.99999999999999 27.51593879664625 6.0
vertex 69.99999999999999 27.51593879664625 4.820393062042464e-32
endloop
endfacet
facet normal 1.0 -0.0 -0.0
outer loop
vertex 69.99999999999999 27.51593879664625 6.0
vertex 69.99999999999999 70.48406120335376 1.2390873539638648e-31
vertex 69.99999999999999 70.48406120335376 6.0
endloop
endfacet
facet normal 0.9878470350662873 -0.15542919709869543 0.0
outer loop
vertex 69.69220851487843 23.591591240473683 4.1885952995996596e-32
vertex 69.30924800994191 21.651414148135462 6.0
vertex 69.30924800994191 21.651414148135462 3.87238117901996e-32
endloop
endfacet
facet normal 0.9728627347024307 -0.23138301456093988 0.0
outer loop
vertex 69.30924800994191 21.651414148135462 6.0
vertex 69.69220851487843 23.591591240473683 4.1885952995996596e-32
vertex 69.69220851487843 23.591591240473683 6.0
endloop
endfacet
facet normal 0.6649628441870548 -0.7468764394802281 0.0
outer loop
vertex 61.23620120825458 8.180676886600278 1.586420162367075e-32
vertex 59.694631307311816 6.909570298034141 6.0
vertex 59.694631307311816 6.909570298034141 1.3576849482936277e-32
endloop
endfacet
facet normal 0.6064406395651455 -0.7951287635872679 0.0
outer loop
vertex 59.694631307311816 6.909570298034141 6.0
vertex 61.23620120825458 8.180676886600278 1.586420162367075e-32
vertex 61.23620120825458 8.180676886600278 6.0
endloop
endfacet
facet normal 0.7701341120468181 0.6378820027731296 0.0
outer loop
vertex 64.01014914000076 86.94453707698295 -5.150685776039014e-33
vertex 65.22542485937367 85.3585816410102 6.0
vertex 65.22542485937367 85.3585816410102 3.5900080048083563e-32
endloop
endfacet
facet normal 0.8162669453434155 0.5776748860213067 0.0
outer loop
vertex 65.22542485937367 85.3585816410102 6.0
vertex 64.01014914000076 86.94453707698295 -5.150685776039014e-33
vertex 64.01014914000076 86.94453707698295 6.0
endloop
endfacet
facet normal 0.7196150118335549 0.6943732675901287 0.0
outer loop
vertex 62.677669529663675 88.43451296672197 -5.227066986240639e-32
vertex 64.01014914000076 86.94453707698295 6.0
vertex 64.01014914000076 86.94453707698295 -5.150685776039014e-33
endloop
endfacet
facet normal 0.7701341120468181 0.6378820027731296 0.0
outer loop
vertex 64.01014914000076 86.94453707698295 6.0
vertex 62.677669529663675 88.43451296672197 -5.227066986240639e-32
vertex 62.677669529663675 88.43451296672197 6.0
endloop
endfacet
facet normal 0.9521631293372447 0.305590207844927 0.0
outer loop
vertex 68.77641290737883 78.2581109607832 1.3494148741271662e-31
vertex 69.30924800994191 76.34858585186456 6.0
vertex 69.30924800994191 76.34858585186456 1.4264767421510264e-31
endloop
endfacet
facet normal 0.9728627347024307 0.23138301456093974 0.0
outer loop
vertex 69.30924800994191 76.34858585186456 6.0
vertex 68.77641290737883 78.2581109607832 1.3494148741271662e-31
vertex 68.77641290737883 78.2581109607832 6.0
endloop
endfacet
facet normal 0.9259407224246693 0.3776688742214292 0.0
outer loop
vertex 68.09698831278216 80.12521122900428 1.2030236751500225e-31
vertex 68.77641290737883 78.2581109607832 6.0
vertex 68.77641290737883 78.2581109607832 1.3494148741271662e-31
endloop
endfacet
facet normal 0.9521631293372447 0.305590207844927 0.0
outer loop
vertex 68.77641290737883 78.2581109607832 6.0
vertex 68.09698831278216 80.12521122900428 1.2030236751500225e-31
vertex 68.09698831278216 80.12521122900428 6.0
endloop
endfacet
facet normal 0.47889977658811433 0.8778695825598779 0.0
outer loop
vertex 56.349762493488655 93.26093436223788 6.0
vertex 58.062464117898706 92.23999593761603 -2.2696470045676274e-31
vertex 56.349762493488655 93.26093436223788 -2.9511043833201803e-31
endloop
endfacet
facet normal 0.5443232396113892 0.8388755633697779 0.0
outer loop
vertex 58.062464117898706 92.23999593761603 -2.2696470045676274e-31
vertex 56.349762493488655 93.26093436223788 6.0
vertex 58.062464117898706 92.23999593761603 6.0
endloop
endfacet
facet normal 0.41047648568726 0.9118711831710862 0.0
outer loop
vertex 54.56708580912723 94.14695055094714 6.0
vertex 56.349762493488655 93.26093436223788 -2.9511043833201803e-31
vertex 54.56708580912723 94.14695055094714 -3.6753769617360822e-31
endloop
endfacet
facet normal 0.47889977658811433 0.8778695825598779 0.0
outer loop
vertex 56.349762493488655 93.26093436223788 -2.9511043833201803e-31
vertex 54.56708580912723 94.14695055094714 6.0
vertex 56.349762493488655 93.26093436223788 6.0
endloop
endfacet
facet normal 0.11367020964045937 0.9935185370390901 0.0
outer loop
vertex 46.961477393196105 96.24568858815186 6.0
vertex 48.91086162600576 95.94519579519975 -6.059278873427422e-31
vertex 46.961477393196105 96.24568858815186 -6.907940264202746e-31
endloop
endfacet
facet normal 0.19058793865516466 0.981670126691841 0.0
outer loop
vertex 48.91086162600576 95.94519579519975 -6.059278873427422e-31
vertex 46.961477393196105 96.24568858815186 6.0
vertex 48.91086162600576 95.94519579519975 6.0
endloop
endfacet
facet normal 0.07481914366516382 0.9971971198019035 -0.0
outer loop
vertex 44.999999999999986 96.39285714285715 6.0
vertex 46.961477393196105 96.24568858815186 -6.907940264202746e-31
vertex 44.999999999999986 96.39285714285715 -7.775021645654331e-31
endloop
endfacet
facet normal 0.11367020964045937 0.9935185370390901 0.0
outer loop
vertex 46.961477393196105 96.24568858815186 -6.907940264202746e-31
vertex 44.999999999999986 96.39285714285715 6.0
vertex 46.961477393196105 96.24568858815186 6.0
endloop
endfacet
facet normal 0.7701341120468186 -0.6378820027731289 0.0
outer loop
vertex 64.01014914000076 11.05546292301705 2.091830361316411e-32
vertex 62.677669529663675 9.565487033278037 6.0
vertex 62.677669529663675 9.565487033278037 1.8316392524526693e-32
endloop
endfacet
facet normal 0.7196150118335541 -0.6943732675901294 0.0
outer loop
vertex 62.677669529663675 9.565487033278037 6.0
vertex 64.01014914000076 11.05546292301705 2.091830361316411e-32
vertex 64.01014914000076 11.05546292301705 6.0
endloop
endfacet
facet normal 0.9878470350662873 0.15542919709869527 0.0
outer loop
vertex 69.69220851487843 74.40840875952632 1.433734167179566e-31
vertex 69.92293334332818 72.44954152071716 6.0
vertex 69.92293334332818 72.44954152071716 1.3711424047741445e-31
endloop
endfacet
facet normal 0.9969425847783216 0.07813758798119612 0.0
outer loop
vertex 69.92293334332818 72.44954152071716 6.0
vertex 69.69220851487843 74.40840875952632 1.433734167179566e-31
vertex 69.69220851487843 74.40840875952632 6.0
endloop
endfacet
facet normal 0.8944029177604131 0.44726213868564785 0.0
outer loop
vertex 67.27516310470918 81.93837536250035 9.882056956413035e-32
vertex 68.09698831278216 80.12521122900428 6.0
vertex 68.09698831278216 80.12521122900428 1.2030236751500225e-31
endloop
endfacet
facet normal 0.9259407224246693 0.3776688742214292 0.0
outer loop
vertex 68.09698831278216 80.12521122900428 6.0
vertex 67.27516310470918 81.93837536250035 9.882056956413035e-32
vertex 67.27516310470918 81.93837536250035 6.0
endloop
endfacet
facet normal 0.9992321697414234 -0.03917998154475411 -0.0
outer loop
vertex 69.99999999999999 27.51593879664625 4.820393062042464e-32
vertex 69.92293334332818 25.550458479282852 6.0
vertex 69.92293334332818 25.550458479282852 4.505250021159426e-32
endloop
endfacet
facet normal 0.9969425847783216 -0.07813758798119601 0.0
outer loop
vertex 69.92293334332818 25.550458479282852 6.0
vertex 69.99999999999999 27.51593879664625 4.820393062042464e-32
vertex 69.99999999999999 27.51593879664625 6.0
endloop
endfacet
facet normal 0.33937966175610096 0.9406494805113723 0.0
outer loop
vertex 52.725424859373675 94.89258191931015 6.0
vertex 54.56708580912723 94.14695055094714 -3.6753769617360822e-31
vertex 52.725424859373675 94.89258191931015 -4.437999358524328e-31
endloop
endfacet
facet normal 0.41047648568726 0.9118711831710862 0.0
outer loop
vertex 54.56708580912723 94.14695055094714 -3.6753769617360822e-31
vertex 52.725424859373675 94.89258191931015 6.0
vertex 54.56708580912723 94.14695055094714 6.0
endloop
endfacet
facet normal 0.6649628441870543 0.7468764394802284 0.0
outer loop
vertex 61.23620120825458 89.81932311339973 6.0
vertex 62.677669529663675 88.43451296672197 -5.227066986240639e-32
vertex 61.23620120825458 89.81932311339973 -1.0516936184014111e-31
endloop
endfacet
facet normal 0.7196150118335549 0.6943732675901287 0.0
outer loop
vertex 62.677669529663675 88.43451296672197 -5.227066986240639e-32
vertex 61.23620120825458 89.81932311339973 6.0
vertex 62.677669529663675 88.43451296672197 6.0
endloop
endfacet
facet normal 0.9728627347024307 0.23138301456093974 0.0
outer loop
vertex 69.30924800994191 76.34858585186456 1.4264767421510264e-31
vertex 69.69220851487843 74.40840875952632 6.0
vertex 69.69220851487843 74.40840875952632 1.433734167179566e-31
endloop
endfacet
facet normal 0.9878470350662873 0.15542919709869527 0.0
outer loop
vertex 69.69220851487843 74.40840875952632 6.0
vertex 69.30924800994191 76.34858585186456 1.4264767421510264e-31
vertex 69.30924800994191 76.34858585186456 6.0
endloop
endfacet
facet normal 0.19058793865516466 0.981670126691841 0.0
outer loop
vertex 48.91086162600576 95.94519579519975 6.0
vertex 50.83613409639763 95.49323140199333 -5.234269753011037e-31
vertex 48.91086162600576 95.94519579519975 -6.059278873427422e-31
endloop
endfacet
facet normal 0.2659585498591814 0.9639844655163282 0.0
outer loop
vertex 50.83613409639763 95.49323140199333 -5.234269753011037e-31
vertex 48.91086162600576 95.94519579519975 6.0
vertex 50.83613409639763 95.49323140199333 6.0
endloop
endfacet
facet normal 0.41047648568725986 -0.9118711831710862 0.0
outer loop
vertex 54.56708580912723 3.853049449052869 7.83925218837193e-33
vertex 52.725424859373675 3.1074180806898664 6.0
vertex 52.725424859373675 3.1074180806898664 6.340852221647855e-33
endloop
endfacet
facet normal 0.33937966175610157 -0.9406494805113721 0.0
outer loop
vertex 52.725424859373675 3.1074180806898664 6.0
vertex 54.56708580912723 3.853049449052869 7.83925218837193e-33
vertex 54.56708580912723 3.853049449052869 6.0
endloop
endfacet
facet normal 0.9728627347024307 -0.23138301456093988 0.0
outer loop
vertex 69.30924800994191 21.651414148135462 3.87238117901996e-32
vertex 68.77641290737883 19.741889039216808 6.0
vertex 68.77641290737883 19.741889039216808 3.5585572246255676e-32
endloop
endfacet
facet normal 0.9521631293372446 -0.30559020784492685 0.0
outer loop
vertex 68.77641290737883 19.741889039216808 6.0
vertex 69.30924800994191 21.651414148135462 3.87238117901996e-32
vertex 69.30924800994191 21.651414148135462 6.0
endloop
endfacet
facet normal 0.33937966175610157 -0.9406494805113721 0.0
outer loop
vertex 52.725424859373675 3.1074180806898664 6.340852221647855e-33
vertex 50.83613409639763 2.5067685980066754 6.0
vertex 50.83613409639763 2.5067685980066754 5.06600563094376e-33
endloop
endfacet
facet normal 0.265958549859182 -0.9639844655163281 0.0
outer loop
vertex 50.83613409639763 2.5067685980066754 6.0
vertex 52.725424859373675 3.1074180806898664 6.340852221647855e-33
vertex 52.725424859373675 3.1074180806898664 6.0
endloop
endfacet
facet normal 0.265958549859182 -0.9639844655163281 0.0
outer loop
vertex 50.83613409639763 2.5067685980066754 5.06600563094376e-33
vertex 48.91086162600576 2.0548042048002504 6.0
vertex 48.91086162600576 2.0548042048002504 4.022572269420838e-33
endloop
endfacet
facet normal 0.19058793865516394 -0.9816701266918411 0.0
outer loop
vertex 48.91086162600576 2.0548042048002504 6.0
vertex 50.83613409639763 2.5067685980066754 5.06600563094376e-33
vertex 50.83613409639763 2.5067685980066754 6.0
endloop
endfacet
facet normal 0.7196150118335541 -0.6943732675901294 0.0
outer loop
vertex 62.677669529663675 9.565487033278037 1.8316392524526693e-32
vertex 61.23620120825458 8.180676886600278 6.0
vertex 61.23620120825458 8.180676886600278 1.586420162367075e-32
endloop
endfacet
facet normal 0.6649628441870548 -0.7468764394802281 0.0
outer loop
vertex 61.23620120825458 8.180676886600278 6.0
vertex 62.677669529663675 9.565487033278037 1.8316392524526693e-32
vertex 62.677669529663675 9.565487033278037 6.0
endloop
endfacet
facet normal 0.2659585498591814 0.9639844655163282 0.0
outer loop
vertex 50.83613409639763 95.49323140199333 6.0
vertex 52.725424859373675 94.89258191931015 -4.437999358524328e-31
vertex 50.83613409639763 95.49323140199333 -5.234269753011037e-31
endloop
endfacet
facet normal 0.33937966175610096 0.9406494805113723 0.0
outer loop
vertex 52.725424859373675 94.89258191931015 -4.437999358524328e-31
vertex 50.83613409639763 95.49323140199333 6.0
vertex 52.725424859373675 94.89258191931015 6.0
endloop
endfacet
facet normal 0.9521631293372446 -0.30559020784492685 0.0
outer loop
vertex 68.77641290737883 19.741889039216808 3.5585572246255676e-32
vertex 68.09698831278216 17.87478877099573 6.0
vertex 68.09698831278216 17.87478877099573 3.2490582654523784e-32
endloop
endfacet
facet normal 0.9259407224246694 -0.3776688742214289 0.0
outer loop
vertex 68.09698831278216 17.87478877099573 6.0
vertex 68.77641290737883 19.741889039216808 3.5585572246255676e-32
vertex 68.77641290737883 19.741889039216808 6.0
endloop
endfacet
facet normal 0.6064406395651455 0.7951287635872678 0.0
outer loop
vertex 59.694631307311816 91.09042970196586 6.0
vertex 61.23620120825458 89.81932311339973 -1.0516936184014111e-31
vertex 59.694631307311816 91.09042970196586 -1.6352062368260071e-31
endloop
endfacet
facet normal 0.6649628441870543 0.7468764394802284 0.0
outer loop
vertex 61.23620120825458 89.81932311339973 -1.0516936184014111e-31
vertex 59.694631307311816 91.09042970196586 6.0
vertex 61.23620120825458 89.81932311339973 6.0
endloop
endfacet
facet normal 0.5443232396113892 0.8388755633697779 0.0
outer loop
vertex 58.062464117898706 92.23999593761603 6.0
vertex 59.694631307311816 91.09042970196586 -1.6352062368260071e-31
vertex 58.062464117898706 92.23999593761603 -2.2696470045676274e-31
endloop
endfacet
facet normal 0.6064406395651455 0.7951287635872678 0.0
outer loop
vertex 59.694631307311816 91.09042970196586 -1.6352062368260071e-31
vertex 58.062464117898706 92.23999593761603 6.0
vertex 59.694631307311816 91.09042970196586 6.0
endloop
endfacet
facet normal 0.9969425847783216 0.07813758798119612 0.0
outer loop
vertex 69.92293334332818 72.44954152071716 1.3711424047741445e-31
vertex 69.99999999999999 70.48406120335376 6.0
vertex 69.99999999999999 70.48406120335376 1.2390873539638648e-31
endloop
endfacet
facet normal 0.9992321697414234 0.03917998154475411 -0.0
outer loop
vertex 69.99999999999999 70.48406120335376 6.0
vertex 69.92293334332818 72.44954152071716 1.3711424047741445e-31
vertex 69.92293334332818 72.44954152071716 6.0
endloop
endfacet
facet normal 0.6064406395651455 -0.7951287635872679 0.0
outer loop
vertex 59.694631307311816 6.909570298034141 1.3576849482936277e-32
vertex 58.062464117898706 5.760004062383979 6.0
vertex 58.062464117898706 5.760004062383979 1.1468438388892687e-32
endloop
endfacet
facet normal 0.5443232396113883 -0.8388755633697784 0.0
outer loop
vertex 58.062464117898706 5.760004062383979 6.0
vertex 59.694631307311816 6.909570298034141 1.3576849482936277e-32
vertex 59.694631307311816 6.909570298034141 6.0
endloop
endfacet
facet normal 0.9259407224246694 -0.3776688742214289 0.0
outer loop
vertex 68.09698831278216 17.87478877099573 3.2490582654523784e-32
vertex 67.27516310470918 16.061624637499662 6.0
vertex 67.27516310470918 16.061624637499662 2.945792465502542e-32
endloop
endfacet
facet normal 0.8944029177604133 -0.44726213868564785 0.0
outer loop
vertex 67.27516310470918 16.061624637499662 6.0
vertex 68.09698831278216 17.87478877099573 3.2490582654523784e-32
vertex 68.09698831278216 17.87478877099573 6.0
endloop
endfacet
facet normal 0.8944029177604133 -0.44726213868564785 0.0
outer loop
vertex 67.27516310470918 16.061624637499662 2.945792465502542e-32
vertex 66.3160041088523 14.313575398549863 6.0
vertex 66.3160041088523 14.313575398549863 2.650629559278862e-32
endloop
endfacet
facet normal 0.857768806966835 -0.5140356736596133 0.0
outer loop
vertex 66.3160041088523 14.313575398549863 6.0
vertex 67.27516310470918 16.061624637499662 2.945792465502542e-32
vertex 67.27516310470918 16.061624637499662 6.0
endloop
endfacet
facet normal 0.857768806966835 -0.5140356736596133 0.0
outer loop
vertex 66.3160041088523 14.313575398549863 2.650629559278862e-32
vertex 65.22542485937367 12.641418358989815 6.0
vertex 65.22542485937367 12.641418358989815 2.3653893242498318e-32
endloop
endfacet
facet normal 0.8162669453434163 -0.5776748860213057 0.0
outer loop
vertex 65.22542485937367 12.641418358989815 6.0
vertex 66.3160041088523 14.313575398549863 2.650629559278862e-32
vertex 66.3160041088523 14.313575398549863 6.0
endloop
endfacet
facet normal 0.8162669453434163 -0.5776748860213057 0.0
outer loop
vertex 65.22542485937367 12.641418358989815 2.3653893242498318e-32
vertex 64.01014914000076 11.05546292301705 6.0
vertex 64.01014914000076 11.05546292301705 2.091830361316411e-32
endloop
endfacet
facet normal 0.7701341120468186 -0.6378820027731289 0.0
outer loop
vertex 64.01014914000076 11.05546292301705 6.0
vertex 65.22542485937367 12.641418358989815 2.3653893242498318e-32
vertex 65.22542485937367 12.641418358989815 6.0
endloop
endfacet
facet normal 0.5443232396113883 -0.8388755633697784 0.0
outer loop
vertex 58.062464117898706 5.760004062383979 1.1468438388892687e-32
vertex 56.349762493488655 4.739065637762134 6.0
vertex 56.349762493488655 4.739065637762134 9.551967397052584e-33
endloop
endfacet
facet normal 0.4788997765881149 -0.8778695825598777 0.0
outer loop
vertex 56.349762493488655 4.739065637762134 6.0
vertex 58.062464117898706 5.760004062383979 1.1468438388892687e-32
vertex 58.062464117898706 5.760004062383979 6.0
endloop
endfacet
facet normal 0.4788997765881149 -0.8778695825598777 0.0
outer loop
vertex 56.349762493488655 4.739065637762134 9.551967397052584e-33
vertex 54.56708580912723 3.853049449052869 6.0
vertex 54.56708580912723 3.853049449052869 7.83925218837193e-33
endloop
endfacet
facet normal 0.41047648568725986 -0.9118711831710862 0.0
outer loop
vertex 54.56708580912723 3.853049449052869 6.0
vertex 56.349762493488655 4.739065637762134 9.551967397052584e-33
vertex 56.349762493488655 4.739065637762134 6.0
endloop
endfacet
facet normal 0.8577688069668352 0.514035673659613 0.0
outer loop
vertex 66.3160041088523 83.68642460145014 7.062853598789071e-32
vertex 67.27516310470918 81.93837536250035 6.0
vertex 67.27516310470918 81.93837536250035 9.882056956413035e-32
endloop
endfacet
facet normal 0.8944029177604131 0.44726213868564785 0.0
outer loop
vertex 67.27516310470918 81.93837536250035 6.0
vertex 66.3160041088523 83.68642460145014 7.062853598789071e-32
vertex 66.3160041088523 83.68642460145014 6.0
endloop
endfacet
facet normal 0.8162669453434155 0.5776748860213067 0.0
outer loop
vertex 65.22542485937367 85.3585816410102 3.5900080048083563e-32
vertex 66.3160041088523 83.68642460145014 6.0
vertex 66.3160041088523 83.68642460145014 7.062853598789071e-32
endloop
endfacet
facet normal 0.8577688069668352 0.514035673659613 0.0
outer loop
vertex 66.3160041088523 83.68642460145014 6.0
vertex 65.22542485937367 85.3585816410102 3.5900080048083563e-32
vertex 65.22542485937367 85.3585816410102 6.0
endloop
endfacet
facet normal 0.9969425847783216 -0.07813758798119601 0.0
outer loop
vertex 69.92293334332818 25.550458479282852 4.505250021159426e-32
vertex 69.69220851487843 23.591591240473683 6.0
vertex 69.69220851487843 23.591591240473683 4.1885952995996596e-32
endloop
endfacet
facet normal 0.9878470350662873 -0.15542919709869543 0.0
outer loop
vertex 69.69220851487843 23.591591240473683 6.0
vertex 69.92293334332818 25.550458479282852 4.505250021159426e-32
vertex 69.92293334332818 25.550458479282852 6.0
endloop
endfacet
facet normal 0.19058793865516394 -0.9816701266918411 0.0
outer loop
vertex 48.91086162600576 2.0548042048002504 4.022572269420838e-33
vertex 46.961477393196105 1.7543114118481358 6.0
vertex 46.961477393196105 1.7543114118481358 3.216985250729699e-33
endloop
endfacet
facet normal 0.11367020964045944 -0.9935185370390901 -2.9570379104312486e-17
outer loop
vertex 46.961477393196105 1.7543114118481358 6.0
vertex 48.91086162600576 2.0548042048002504 4.022572269420838e-33
vertex 48.91086162600576 2.0548042048002504 6.0
endloop
endfacet
facet normal 0.11367020964045944 -0.9935185370390901 -2.9570379104312486e-17
outer loop
vertex 46.961477393196105 1.7543114118481358 3.216985250729699e-33
vertex 44.999999999999986 1.6071428571428574 6.0
vertex 44.999999999999986 1.6071428571428583 2.6542112867254187e-33
endloop
endfacet
facet normal 0.07481914366516397 -0.9971971198019035 -5.909572437535448e-17
outer loop
vertex 44.999999999999986 1.6071428571428574 6.0
vertex 46.961477393196105 1.7543114118481358 3.216985250729699e-33
vertex 46.961477393196105 1.7543114118481358 6.0
endloop
endfacet
facet normal 0.03569153051241241 0.9993628543475497 -4.438337780899767e-18
outer loop
vertex -4.865172461813043e-32 98.0 2.9999999999999987
vertex 44.999999999999986 96.39285714285715 -7.775021645654331e-31
vertex 0.0 98.0 -4.958754136021281e-30
endloop
endfacet
facet normal 0.03569153051241241 0.9993628543475497 -4.438337780899767e-18
outer loop
vertex 44.999999999999986 96.39285714285715 -7.775021645654331e-31
vertex -4.865172461813043e-32 98.0 2.9999999999999987
vertex 44.999999999999986 96.39285714285715 6.0
endloop
endfacet
facet normal 0.03569153051241241 0.9993628543475497 -4.438337780899767e-18
outer loop
vertex 44.999999999999986 96.39285714285715 6.0
vertex -4.865172461813043e-32 98.0 2.9999999999999987
vertex -6.347662456344125e-17 98.0 5.999999999999999
endloop
endfacet
facet normal -8.205848322269482e-64 1.0 -1.3307622427773422e-95
outer loop
vertex -50.0 98.0 2.9999999999999987
vertex 0.0 98.0 -4.958754136021281e-30
vertex -50.0 98.0 -5.769616212990122e-30
endloop
endfacet
facet normal -8.205848322269482e-64 1.0 -1.3307622427773422e-95
outer loop
vertex 0.0 98.0 -4.958754136021281e-30
vertex -50.0 98.0 2.9999999999999987
vertex -4.865172461813043e-32 98.0 2.9999999999999987
endloop
endfacet
facet normal -0.9632035655378638 -0.26877293638896405 -1.892455008902349e-17
outer loop
vertex 67.08759226200988 76.79520541274397 6.0
vertex 67.5937856094448 74.98115655927138 3.0
vertex 67.5937856094448 74.98115655927138 6.0
endloop
endfacet
facet normal -0.9632035655378638 -0.26877293638896405 -1.892455008902349e-17
outer loop
vertex 67.5937856094448 74.98115655927138 3.0
vertex 67.08759226200988 76.79520541274397 6.0
vertex 67.08759226200988 76.79520541274397 3.0
endloop
endfacet
facet normal -1.0 -0.0 -1.9647508342076998e-17
outer loop
vertex 68.24999999999997 69.4098581431861 6.0
vertex 68.24999999999997 28.59014185681397 3.0
vertex 68.24999999999997 28.59014185681397 6.0
endloop
endfacet
facet normal -1.0 -0.0 -1.9647508342076998e-17
outer loop
vertex 68.24999999999997 28.59014185681397 3.0
vertex 68.24999999999997 69.4098581431861 6.0
vertex 68.24999999999997 69.4098581431861 3.0
endloop
endfacet
facet normal -0.7937570024647966 -0.6082350047786637 -1.5595347327509135e-17
outer loop
vertex 62.55964168300071 85.0473102231338 6.0
vertex 63.71415361640499 83.54065255895958 3.0
vertex 63.71415361640499 83.54065255895958 6.0
endloop
endfacet
facet normal -0.7937570024647966 -0.6082350047786637 -1.5595347327509135e-17
outer loop
vertex 63.71415361640499 83.54065255895958 3.0
vertex 62.55964168300071 85.0473102231338 6.0
vertex 62.55964168300071 85.0473102231338 3.0
endloop
endfacet
facet normal -0.8376009590520037 -0.5462825582014893 -1.6456771830305947e-17
outer loop
vertex 63.71415361640499 83.54065255895958 6.0
vertex 64.75020390340967 81.95210337137752 3.0
vertex 64.75020390340967 81.95210337137752 6.0
endloop
endfacet
facet normal -0.8376009590520037 -0.5462825582014893 -1.6456771830305947e-17
outer loop
vertex 64.75020390340967 81.95210337137752 3.0
vertex 63.71415361640499 83.54065255895958 6.0
vertex 63.71415361640499 83.54065255895958 3.0
endloop
endfacet
facet normal -0.876695803392779 -0.4810451832348909 -1.7224888110623528e-17
outer loop
vertex 64.75020390340967 81.95210337137752 6.0
vertex 65.66140494947373 80.29145659437529 3.0
vertex 65.66140494947373 80.29145659437529 6.0
endloop
endfacet
facet normal -0.876695803392779 -0.4810451832348909 -1.7224888110623528e-17
outer loop
vertex 65.66140494947373 80.29145659437529 3.0
vertex 64.75020390340967 81.95210337137752 6.0
vertex 64.75020390340967 81.95210337137752 3.0
endloop
endfacet
facet normal -0.9108088225663424 -0.4128284010764194 -1.789512393940955e-17
outer loop
vertex 65.66140494947373 80.29145659437529 6.0
vertex 66.44213889714307 78.56895066755402 3.0
vertex 66.44213889714307 78.56895066755402 6.0
endloop
endfacet
facet normal -0.9108088225663424 -0.4128284010764194 -1.789512393940955e-17
outer loop
vertex 66.44213889714307 78.56895066755402 3.0
vertex 65.66140494947373 80.29145659437529 6.0
vertex 65.66140494947373 80.29145659437529 3.0
endloop
endfacet
facet normal -0.9397159647499692 -0.3419559994999867 -1.8463077256607956e-17
outer loop
vertex 66.44213889714307 78.56895066755402 6.0
vertex 67.08759226200988 76.79520541274397 3.0
vertex 67.08759226200988 76.79520541274397 6.0
endloop
endfacet
facet normal -0.9397159647499692 -0.3419559994999867 -1.8463077256607956e-17
outer loop
vertex 67.08759226200988 76.79520541274397 3.0
vertex 66.44213889714307 78.56895066755402 6.0
vertex 66.44213889714307 78.56895066755402 3.0
endloop
endfacet
facet normal -0.6361778727626373 -0.7715424254097798 -1.2499310062148726e-17
outer loop
vertex 59.924391147841845 87.77835695772968 6.0
vertex 58.459899741946245 88.9859082168675 3.0
vertex 59.924391147841845 87.77835695772968 3.0
endloop
endfacet
facet normal -0.6361778727626373 -0.7715424254097798 -1.2499310062148726e-17
outer loop
vertex 58.459899741946245 88.9859082168675 3.0
vertex 59.924391147841845 87.77835695772968 6.0
vertex 58.459899741946245 88.9859082168675 6.0
endloop
endfacet
facet normal -0.692792273685065 -0.7211372029803192 -1.3611641976553815e-17
outer loop
vertex 61.2937860531805 86.46278731838575 6.0
vertex 59.924391147841845 87.77835695772968 3.0
vertex 61.2937860531805 86.46278731838575 3.0
endloop
endfacet
facet normal -0.692792273685065 -0.7211372029803192 -1.3611641976553815e-17
outer loop
vertex 59.924391147841845 87.77835695772968 3.0
vertex 61.2937860531805 86.46278731838575 6.0
vertex 59.924391147841845 87.77835695772968 6.0
endloop
endfacet
facet normal -0.7454045501216051 -0.6666123736160375 -1.46453421167364e-17
outer loop
vertex 61.2937860531805 86.46278731838575 6.0
vertex 62.55964168300071 85.0473102231338 3.0
vertex 62.55964168300071 85.0473102231338 6.0
endloop
endfacet
facet normal -0.7454045501216051 -0.6666123736160375 -1.46453421167364e-17
outer loop
vertex 62.55964168300071 85.0473102231338 3.0
vertex 61.2937860531805 86.46278731838575 6.0
vertex 61.2937860531805 86.46278731838575 3.0
endloop
endfacet
facet normal -0.9810710680249631 -0.19364802990053404 -1.9275601993190856e-17
outer loop
vertex 67.5937856094448 74.98115655927138 6.0
vertex 67.95759808913449 73.13798832155003 3.0
vertex 67.95759808913449 73.13798832155003 6.0
endloop
endfacet
facet normal -0.9810710680249631 -0.19364802990053404 -1.9275601993190856e-17
outer loop
vertex 67.95759808913449 73.13798832155003 3.0
vertex 67.5937856094448 74.98115655927138 6.0
vertex 67.5937856094448 74.98115655927138 3.0
endloop
endfacet
facet normal -0.9931347187683365 -0.11697619577049576 -1.9512622671807185e-17
outer loop
vertex 67.95759808913449 73.13798832155003 6.0
vertex 68.1767866761618 71.27706444468129 3.0
vertex 68.1767866761618 71.27706444468129 6.0
endloop
endfacet
facet normal -0.9931347187683365 -0.11697619577049576 -1.9512622671807185e-17
outer loop
vertex 68.1767866761618 71.27706444468129 3.0
vertex 67.95759808913449 73.13798832155003 6.0
vertex 67.95759808913449 73.13798832155003 3.0
endloop
endfacet
facet normal -0.9992321697414238 -0.03917998154474399 -1.9632422390666322e-17
outer loop
vertex 68.1767866761618 71.27706444468129 6.0
vertex 68.24999999999997 69.4098581431861 3.0
vertex 68.24999999999997 69.4098581431861 6.0
endloop
endfacet
facet normal -0.9992321697414238 -0.03917998154474399 -1.9632422390666322e-17
outer loop
vertex 68.24999999999997 69.4098581431861 3.0
vertex 68.1767866761618 71.27706444468129 6.0
vertex 68.1767866761618 71.27706444468129 3.0
endloop
endfacet
facet normal -0.9992321697414239 0.03917998154474257 -1.9632422390666325e-17
outer loop
vertex 68.24999999999997 28.59014185681397 6.0
vertex 68.1767866761618 26.722935555318706 3.0
vertex 68.1767866761618 26.722935555318706 6.0
endloop
endfacet
facet normal -0.9992321697414239 0.03917998154474257 -1.9632422390666325e-17
outer loop
vertex 68.1767866761618 26.722935555318706 3.0
vertex 68.24999999999997 28.59014185681397 6.0
vertex 68.24999999999997 28.59014185681397 3.0
endloop
endfacet
facet normal -0.9931347187683361 0.11697619577049857 -1.9512622671807176e-17
outer loop
vertex 68.1767866761618 26.722935555318706 6.0
vertex 67.95759808913449 24.862011678450017 3.0
vertex 67.95759808913449 24.862011678450017 6.0
endloop
endfacet
facet normal -0.9931347187683361 0.11697619577049857 -1.9512622671807176e-17
outer loop
vertex 67.95759808913449 24.862011678450017 3.0
vertex 68.1767866761618 26.722935555318706 6.0
vertex 68.1767866761618 26.722935555318706 3.0
endloop
endfacet
facet normal -0.9810710680249624 0.19364802990053862 -1.9275601993190835e-17
outer loop
vertex 67.95759808913449 24.862011678450017 6.0
vertex 67.5937856094448 23.01884344072871 3.0
vertex 67.5937856094448 23.01884344072871 6.0
endloop
endfacet
facet normal -0.9810710680249624 0.19364802990053862 -1.9275601993190835e-17
outer loop
vertex 67.5937856094448 23.01884344072871 3.0
vertex 67.95759808913449 24.862011678450017 6.0
vertex 67.95759808913449 24.862011678450017 3.0
endloop
endfacet
facet normal -0.96320356553787 0.26877293638894234 -1.8924550089023605e-17
outer loop
vertex 67.5937856094448 23.01884344072871 6.0
vertex 67.08759226200988 21.20479458725596 3.0
vertex 67.08759226200988 21.20479458725596 6.0
endloop
endfacet
facet normal -0.96320356553787 0.26877293638894234 -1.8924550089023605e-17
outer loop
vertex 67.08759226200988 21.20479458725596 3.0
vertex 67.5937856094448 23.01884344072871 6.0
vertex 67.5937856094448 23.01884344072871 3.0
endloop
endfacet
facet normal -0.9397159647499657 0.3419559994999963 -1.846307725660788e-17
outer loop
vertex 67.08759226200988 21.20479458725596 6.0
vertex 66.44213889714307 19.43104933244597 3.0
vertex 66.44213889714307 19.43104933244597 6.0
endloop
endfacet
facet normal -0.9397159647499657 0.3419559994999963 -1.846307725660788e-17
outer loop
vertex 66.44213889714307 19.43104933244597 3.0
vertex 67.08759226200988 21.20479458725596 6.0
vertex 67.08759226200988 21.20479458725596 3.0
endloop
endfacet
facet normal -0.9108088225663424 0.4128284010764194 -1.7895123939409535e-17
outer loop
vertex 66.44213889714307 19.43104933244597 6.0
vertex 65.66140494947373 17.708543405624695 3.0
vertex 65.66140494947373 17.708543405624695 6.0
endloop
endfacet
facet normal -0.9108088225663424 0.4128284010764194 -1.7895123939409535e-17
outer loop
vertex 65.66140494947373 17.708543405624695 3.0
vertex 66.44213889714307 19.43104933244597 6.0
vertex 66.44213889714307 19.43104933244597 3.0
endloop
endfacet
facet normal -0.8766958033927901 0.4810451832348709 -1.722488811062373e-17
outer loop
vertex 65.66140494947373 17.708543405624695 6.0
vertex 64.75020390340967 16.047896628622386 3.0
vertex 64.75020390340967 16.047896628622386 6.0
endloop
endfacet
facet normal -0.8766958033927901 0.4810451832348709 -1.722488811062373e-17
outer loop
vertex 64.75020390340967 16.047896628622386 3.0
vertex 65.66140494947373 17.708543405624695 6.0
vertex 65.66140494947373 17.708543405624695 3.0
endloop
endfacet
facet normal -0.8376009590520002 0.5462825582014947 -1.645677183030586e-17
outer loop
vertex 64.75020390340967 16.047896628622386 6.0
vertex 63.71415361640499 14.45934744104034 3.0
vertex 63.71415361640499 14.45934744104034 6.0
endloop
endfacet
facet normal -0.8376009590520002 0.5462825582014947 -1.645677183030586e-17
outer loop
vertex 63.71415361640499 14.45934744104034 3.0
vertex 64.75020390340967 16.047896628622386 6.0
vertex 64.75020390340967 16.047896628622386 3.0
endloop
endfacet
facet normal -0.793757002464779 0.6082350047786865 -1.5595347327508768e-17
outer loop
vertex 63.71415361640499 14.45934744104034 6.0
vertex 62.55964168300071 12.95268977686621 3.0
vertex 62.55964168300071 12.95268977686621 6.0
endloop
endfacet
facet normal -0.793757002464779 0.6082350047786865 -1.5595347327508768e-17
outer loop
vertex 62.55964168300071 12.95268977686621 3.0
vertex 63.71415361640499 14.45934744104034 6.0
vertex 63.71415361640499 14.45934744104034 3.0
endloop
endfacet
facet normal -0.7454045501216289 0.666612373616011 -1.4645342116736843e-17
outer loop
vertex 62.55964168300071 12.95268977686621 6.0
vertex 61.2937860531805 11.537212681614157 3.0
vertex 61.2937860531805 11.537212681614157 6.0
endloop
endfacet
facet normal -0.7454045501216289 0.666612373616011 -1.4645342116736843e-17
outer loop
vertex 61.2937860531805 11.537212681614157 3.0
vertex 62.55964168300071 12.95268977686621 6.0
vertex 62.55964168300071 12.95268977686621 3.0
endloop
endfacet
facet normal -0.6927922736850526 0.721137202980331 -1.361164197655355e-17
outer loop
vertex 59.924391147841845 10.221643042270275 6.0
vertex 61.2937860531805 11.537212681614157 3.0
vertex 59.924391147841845 10.221643042270275 3.0
endloop
endfacet
facet normal -0.6927922736850526 0.721137202980331 -1.361164197655355e-17
outer loop
vertex 61.2937860531805 11.537212681614157 3.0
vertex 59.924391147841845 10.221643042270275 6.0
vertex 61.2937860531805 11.537212681614157 6.0
endloop
endfacet
facet normal -0.6361778727626444 0.7715424254097741 -1.2499310062148843e-17
outer loop
vertex 58.459899741946245 9.01409178313243 6.0
vertex 59.924391147841845 10.221643042270275 3.0
vertex 58.459899741946245 9.01409178313243 3.0
endloop
endfacet
facet normal -0.6361778727626444 0.7715424254097741 -1.2499310062148843e-17
outer loop
vertex 59.924391147841845 10.221643042270275 3.0
vertex 58.459899741946245 9.01409178313243 6.0
vertex 59.924391147841845 10.221643042270275 6.0
endloop
endfacet
facet normal -0.575829756831741 0.8175696246480162 -1.1313619950967786e-17
outer loop
vertex 56.90934091200378 7.922003859264811 6.0
vertex 58.459899741946245 9.01409178313243 3.0
vertex 56.90934091200378 7.922003859264811 3.0
endloop
endfacet
facet normal -0.575829756831741 0.8175696246480162 -1.1313619950967786e-17
outer loop
vertex 58.459899741946245 9.01409178313243 3.0
vertex 56.90934091200378 7.922003859264811 6.0
vertex 58.459899741946245 9.01409178313243 6.0
endloop
endfacet
facet normal -0.5120293024046393 0.8589679816378597 -1.0060099990383004e-17
outer loop
vertex 55.282274368814235 6.952112355874054 6.0
vertex 56.90934091200378 7.922003859264811 3.0
vertex 55.282274368814235 6.952112355874054 3.0
endloop
endfacet
facet normal -0.5120293024046393 0.8589679816378597 -1.0060099990383004e-17
outer loop
vertex 56.90934091200378 7.922003859264811 3.0
vertex 55.282274368814235 6.952112355874054 6.0
vertex 56.90934091200378 7.922003859264811 6.0
endloop
endfacet
facet normal -0.44507353013706996 0.8954940272114196 -8.744585896205726e-18
outer loop
vertex 53.58873151867086 6.110396976600229 6.0
vertex 55.282274368814235 6.952112355874054 3.0
vertex 53.58873151867086 6.110396976600229 3.0
endloop
endfacet
facet normal -0.44507353013706996 0.8954940272114196 -8.744585896205726e-18
outer loop
vertex 55.282274368814235 6.952112355874054 3.0
vertex 53.58873151867086 6.110396976600229 6.0
vertex 55.282274368814235 6.952112355874054 6.0
endloop
endfacet
facet normal -0.37527802475046285 0.9269122958184292 -7.373278121882884e-18
outer loop
vertex 51.839153616404985 5.402047176655387 6.0
vertex 53.58873151867086 6.110396976600229 3.0
vertex 51.839153616404985 5.402047176655387 3.0
endloop
endfacet
facet normal -0.37527802475046285 0.9269122958184292 -7.373278121882884e-18
outer loop
vertex 53.58873151867086 6.110396976600229 3.0
vertex 51.839153616404985 5.402047176655387 6.0
vertex 53.58873151867086 6.110396976600229 6.0
endloop
endfacet
facet normal -0.30297989833010097 0.9529969471136212 -5.952800079922284e-18
outer loop
vertex 50.044327391577774 4.831430168106342 6.0
vertex 51.839153616404985 5.402047176655387 3.0
vertex 50.044327391577774 4.831430168106342 3.0
endloop
endfacet
facet normal -0.30297989833010097 0.9529969471136212 -5.952800079922284e-18
outer loop
vertex 51.839153616404985 5.402047176655387 3.0
vertex 50.044327391577774 4.831430168106342 6.0
vertex 51.839153616404985 5.402047176655387 6.0
endloop
endfacet
facet normal -0.22854057585943177 0.9735343882913635 -4.4902528707012516e-18
outer loop
vertex 48.21531854470546 4.402063994560255 6.0
vertex 50.044327391577774 4.831430168106342 3.0
vertex 48.21531854470546 4.402063994560255 3.0
endloop
endfacet
facet normal -0.22854057585943177 0.9735343882913635 -4.4902528707012516e-18
outer loop
vertex 50.044327391577774 4.831430168106342 3.0
vertex 48.21531854470546 4.402063994560255 6.0
vertex 50.044327391577774 4.831430168106342 6.0
endloop
endfacet
facet normal -0.15234816301375914 0.9883268878394097 -2.9932618037129234e-18
outer loop
vertex 46.363403523536284 4.1165958412557435 6.0
vertex 48.21531854470546 4.402063994560255 3.0
vertex 46.363403523536284 4.1165958412557435 3.0
endloop
endfacet
facet normal -0.15234816301375914 0.9883268878394097 -2.9932618037129234e-18
outer loop
vertex 48.21531854470546 4.402063994560255 3.0
vertex 46.363403523536284 4.1165958412557435 6.0
vertex 48.21531854470546 4.402063994560255 6.0
endloop
endfacet
facet normal -0.07481914366516125 0.9971971198019036 -1.4700097493082972e-18
outer loop
vertex 44.49999999999997 3.9767857142857346 6.0
vertex 46.363403523536284 4.1165958412557435 3.0
vertex 44.49999999999997 3.9767857142857346 3.0
endloop
endfacet
facet normal -0.07481914366516125 0.9971971198019036 -1.4700097493082972e-18
outer loop
vertex 46.363403523536284 4.1165958412557435 3.0
vertex 44.49999999999997 3.9767857142857346 6.0
vertex 46.363403523536284 4.1165958412557435 6.0
endloop
endfacet
facet normal -0.035691530512412306 0.9993628543475496 -7.012496434841005e-19
outer loop
vertex 1.7500000000000024 2.4500000000000295 5.999999999999999
vertex 44.49999999999997 3.9767857142857346 3.0
vertex 1.7500000000000024 2.4500000000000295 2.9999999999999987
endloop
endfacet
facet normal -0.035691530512412306 0.9993628543475496 -7.012496434841005e-19
outer loop
vertex 44.49999999999997 3.9767857142857346 3.0
vertex 1.7500000000000024 2.4500000000000295 5.999999999999999
vertex 44.49999999999997 3.9767857142857346 6.0
endloop
endfacet
facet normal 1.0 -0.0 -0.0
outer loop
vertex 1.7500000000000024 95.54999999999991 2.9999999999999987
vertex 1.7500000000000024 2.4500000000000295 5.999999999999999
vertex 1.7500000000000024 2.4500000000000295 2.9999999999999987
endloop
endfacet
facet normal 1.0 -0.0 -0.0
outer loop
vertex 1.7500000000000024 2.4500000000000295 5.999999999999999
vertex 1.7500000000000024 95.54999999999991 2.9999999999999987
vertex 1.7500000000000024 95.54999999999991 5.999999999999999
endloop
endfacet
facet normal -0.0356915305124131 -0.9993628543475496 -7.012496434841479e-19
outer loop
vertex 44.49999999999997 94.02321428571418 3.0
vertex 1.7500000000000024 95.54999999999991 5.999999999999999
vertex 1.7500000000000024 95.54999999999991 2.9999999999999987
endloop
endfacet
facet normal -0.0356915305124131 -0.9993628543475496 -7.012496434841479e-19
outer loop
vertex 1.7500000000000024 95.54999999999991 5.999999999999999
vertex 44.49999999999997 94.02321428571418 3.0
vertex 44.49999999999997 94.02321428571418 6.0
endloop
endfacet
facet normal -0.0748191436650772 -0.9971971198019098 -1.4700097493066777e-18
outer loop
vertex 46.363403523536284 93.88340415874433 6.0
vertex 44.49999999999997 94.02321428571418 3.0
vertex 46.363403523536284 93.88340415874433 3.0
endloop
endfacet
facet normal -0.0748191436650772 -0.9971971198019098 -1.4700097493066777e-18
outer loop
vertex 44.49999999999997 94.02321428571418 3.0
vertex 46.363403523536284 93.88340415874433 6.0
vertex 44.49999999999997 94.02321428571418 6.0
endloop
endfacet
facet normal -0.15234816301384146 -0.9883268878393972 -2.9932618037145724e-18
outer loop
vertex 48.21531854470546 93.59793600543965 6.0
vertex 46.363403523536284 93.88340415874433 3.0
vertex 48.21531854470546 93.59793600543965 3.0
endloop
endfacet
facet normal -0.15234816301384146 -0.9883268878393972 -2.9932618037145724e-18
outer loop
vertex 46.363403523536284 93.88340415874433 3.0
vertex 48.21531854470546 93.59793600543965 6.0
vertex 46.363403523536284 93.88340415874433 6.0
endloop
endfacet
facet normal -0.2285405758593863 -0.9735343882913744 -4.490252870700388e-18
outer loop
vertex 50.044327391577774 93.16856983189366 6.0
vertex 48.21531854470546 93.59793600543965 3.0
vertex 50.044327391577774 93.16856983189366 3.0
endloop
endfacet
facet normal -0.2285405758593863 -0.9735343882913744 -4.490252870700388e-18
outer loop
vertex 48.21531854470546 93.59793600543965 3.0
vertex 50.044327391577774 93.16856983189366 6.0
vertex 48.21531854470546 93.59793600543965 6.0
endloop
endfacet
facet normal -0.30297989833011185 -0.9529969471136176 -5.952800079922529e-18
outer loop
vertex 51.839153616404985 92.59795282334458 6.0
vertex 50.044327391577774 93.16856983189366 3.0
vertex 51.839153616404985 92.59795282334458 3.0
endloop
endfacet
facet normal -0.30297989833011185 -0.9529969471136176 -5.952800079922529e-18
outer loop
vertex 50.044327391577774 93.16856983189366 3.0
vertex 51.839153616404985 92.59795282334458 6.0
vertex 50.044327391577774 93.16856983189366 6.0
endloop
endfacet
facet normal -0.3752780247504731 -0.926912295818425 -7.373278121883113e-18
outer loop
vertex 53.58873151867086 91.88960302339973 6.0
vertex 51.839153616404985 92.59795282334458 3.0
vertex 53.58873151867086 91.88960302339973 3.0
endloop
endfacet
facet normal -0.3752780247504731 -0.926912295818425 -7.373278121883113e-18
outer loop
vertex 51.839153616404985 92.59795282334458 3.0
vertex 53.58873151867086 91.88960302339973 6.0
vertex 51.839153616404985 92.59795282334458 6.0
endloop
endfacet
facet normal -0.44507353013706996 -0.8954940272114196 -8.744585896205754e-18
outer loop
vertex 55.282274368814235 91.04788764412591 6.0
vertex 53.58873151867086 91.88960302339973 3.0
vertex 55.282274368814235 91.04788764412591 3.0
endloop
endfacet
facet normal -0.44507353013706996 -0.8954940272114196 -8.744585896205754e-18
outer loop
vertex 53.58873151867086 91.88960302339973 3.0
vertex 55.282274368814235 91.04788764412591 6.0
vertex 53.58873151867086 91.88960302339973 6.0
endloop
endfacet
facet normal -0.512029302404613 -0.8589679816378754 -1.0060099990382514e-17
outer loop
vertex 56.90934091200378 90.07799614073521 6.0
vertex 55.282274368814235 91.04788764412591 3.0
vertex 56.90934091200378 90.07799614073521 3.0
endloop
endfacet
facet normal -0.512029302404613 -0.8589679816378754 -1.0060099990382514e-17
outer loop
vertex 55.282274368814235 91.04788764412591 3.0
vertex 56.90934091200378 90.07799614073521 6.0
vertex 55.282274368814235 91.04788764412591 6.0
endloop
endfacet
facet normal -0.5758297568317727 -0.8175696246479938 -1.1313619950968436e-17
outer loop
vertex 58.459899741946245 88.9859082168675 6.0
vertex 56.90934091200378 90.07799614073521 3.0
vertex 58.459899741946245 88.9859082168675 3.0
endloop
endfacet
facet normal -0.5758297568317727 -0.8175696246479938 -1.1313619950968436e-17
outer loop
vertex 56.90934091200378 90.07799614073521 3.0
vertex 58.459899741946245 88.9859082168675 6.0
vertex 56.90934091200378 90.07799614073521 6.0
endloop
endfacet
facet normal -1.9535713383768802e-17 1.457250944590821e-19 1.0
outer loop
vertex 44.49999999999997 3.9767857142857346 3.0
vertex 1.7500000000000024 95.54999999999991 2.9999999999999987
vertex 1.7500000000000024 2.4500000000000295 2.9999999999999987
endloop
endfacet
facet normal -1.9535713383768802e-17 1.457250944590821e-19 1.0
outer loop
vertex 1.7500000000000024 95.54999999999991 2.9999999999999987
vertex 44.49999999999997 3.9767857142857346 3.0
vertex 44.49999999999997 94.02321428571418 3.0
endloop
endfacet
facet normal -1.9535713383768802e-17 1.457250944590821e-19 1.0
outer loop
vertex 44.49999999999997 94.02321428571418 3.0
vertex 44.49999999999997 3.9767857142857346 3.0
vertex 46.363403523536284 4.1165958412557435 3.0
endloop
endfacet
facet normal -1.9535713383768802e-17 1.457250944590821e-19 1.0
outer loop
vertex 44.49999999999997 94.02321428571418 3.0
vertex 46.363403523536284 4.1165958412557435 3.0
vertex 46.363403523536284 93.88340415874433 3.0
endloop
endfacet
facet normal -1.9535713383768802e-17 1.457250944590821e-19 1.0
outer loop
vertex 46.363403523536284 93.88340415874433 3.0
vertex 46.363403523536284 4.1165958412557435 3.0
vertex 48.21531854470546 4.402063994560255 3.0
endloop
endfacet
facet normal -1.9535713383768802e-17 1.457250944590821e-19 1.0
outer loop
vertex 46.363403523536284 93.88340415874433 3.0
vertex 48.21531854470546 4.402063994560255 3.0
vertex 48.21531854470546 93.59793600543965 3.0
endloop
endfacet
facet normal -1.9535713383768802e-17 1.457250944590821e-19 1.0
outer loop
vertex 48.21531854470546 93.59793600543965 3.0
vertex 48.21531854470546 4.402063994560255 3.0
vertex 50.044327391577774 4.831430168106342 3.0
endloop
endfacet
facet normal -1.9535713383768802e-17 1.457250944590821e-19 1.0
outer loop
vertex 48.21531854470546 93.59793600543965 3.0
vertex 50.044327391577774 4.831430168106342 3.0
vertex 50.044327391577774 93.16856983189366 3.0
endloop
endfacet
facet normal -1.9535713383768802e-17 1.457250944590821e-19 1.0
outer loop
vertex 50.044327391577774 93.16856983189366 3.0
vertex 50.044327391577774 4.831430168106342 3.0
vertex 51.839153616404985 5.402047176655387 3.0
endloop
endfacet
facet normal -1.9535713383768802e-17 1.457250944590821e-19 1.0
outer loop
vertex 50.044327391577774 93.16856983189366 3.0
vertex 51.839153616404985 5.402047176655387 3.0
vertex 51.839153616404985 92.59795282334458 3.0
endloop
endfacet
facet normal -1.9535713383768802e-17 1.457250944590821e-19 1.0
outer loop
vertex 51.839153616404985 92.59795282334458 3.0
vertex 51.839153616404985 5.402047176655387 3.0
vertex 53.58873151867086 6.110396976600229 3.0
endloop
endfacet
facet normal -1.9535713383768802e-17 1.457250944590821e-19 1.0
outer loop
vertex 51.839153616404985 92.59795282334458 3.0
vertex 53.58873151867086 6.110396976600229 3.0
vertex 53.58873151867086 91.88960302339973 3.0
endloop
endfacet
facet normal -1.9535713383768802e-17 1.457250944590821e-19 1.0
outer loop
vertex 53.58873151867086 91.88960302339973 3.0
vertex 53.58873151867086 6.110396976600229 3.0
vertex 55.282274368814235 6.952112355874054 3.0
endloop
endfacet
facet normal -1.9535713383768802e-17 1.457250944590821e-19 1.0
outer loop
vertex 53.58873151867086 91.88960302339973 3.0
vertex 55.282274368814235 6.952112355874054 3.0
vertex 55.282274368814235 91.04788764412591 3.0
endloop
endfacet
facet normal -1.9535713383768802e-17 1.457250944590821e-19 1.0
outer loop
vertex 55.282274368814235 91.04788764412591 3.0
vertex 55.282274368814235 6.952112355874054 3.0
vertex 56.90934091200378 7.922003859264811 3.0
endloop
endfacet
facet normal -1.9535713383768802e-17 1.457250944590821e-19 1.0
outer loop
vertex 55.282274368814235 91.04788764412591 3.0
vertex 56.90934091200378 7.922003859264811 3.0
vertex 56.90934091200378 90.07799614073521 3.0
endloop
endfacet
facet normal -1.9535713383768802e-17 1.457250944590821e-19 1.0
outer loop
vertex 56.90934091200378 90.07799614073521 3.0
vertex 56.90934091200378 7.922003859264811 3.0
vertex 58.459899741946245 9.01409178313243 3.0
endloop
endfacet
facet normal -1.9535713383768802e-17 1.457250944590821e-19 1.0
outer loop
vertex 56.90934091200378 90.07799614073521 3.0
vertex 58.459899741946245 9.01409178313243 3.0
vertex 58.459899741946245 88.9859082168675 3.0
endloop
endfacet
facet normal -1.9535713383768802e-17 1.457250944590821e-19 1.0
outer loop
vertex 58.459899741946245 88.9859082168675 3.0
vertex 58.459899741946245 9.01409178313243 3.0
vertex 59.924391147841845 10.221643042270275 3.0
endloop
endfacet
facet normal -1.9535713383768802e-17 1.457250944590821e-19 1.0
outer loop
vertex 58.459899741946245 88.9859082168675 3.0
vertex 59.924391147841845 10.221643042270275 3.0
vertex 59.924391147841845 87.77835695772968 3.0
endloop
endfacet
facet normal -1.9535713383768802e-17 1.457250944590821e-19 1.0
outer loop
vertex 59.924391147841845 87.77835695772968 3.0
vertex 59.924391147841845 10.221643042270275 3.0
vertex 61.2937860531805 11.537212681614157 3.0
endloop
endfacet
facet normal -1.9535713383768802e-17 1.457250944590821e-19 1.0
outer loop
vertex 59.924391147841845 87.77835695772968 3.0
vertex 61.2937860531805 11.537212681614157 3.0
vertex 61.2937860531805 86.46278731838575 3.0
endloop
endfacet
facet normal -1.9535713383768802e-17 1.457250944590821e-19 1.0
outer loop
vertex 61.2937860531805 86.46278731838575 3.0
vertex 61.2937860531805 11.537212681614157 3.0
vertex 62.55964168300071 12.95268977686621 3.0
endloop
endfacet
facet normal -1.9535713383768802e-17 1.457250944590821e-19 1.0
outer loop
vertex 61.2937860531805 86.46278731838575 3.0
vertex 62.55964168300071 12.95268977686621 3.0
vertex 62.55964168300071 85.0473102231338 3.0
endloop
endfacet
facet normal -1.9535713383768802e-17 1.457250944590821e-19 1.0
outer loop
vertex 62.55964168300071 85.0473102231338 3.0
vertex 62.55964168300071 12.95268977686621 3.0
vertex 63.71415361640499 14.45934744104034 3.0
endloop
endfacet
facet normal -1.9535713383768802e-17 1.457250944590821e-19 1.0
outer loop
vertex 62.55964168300071 85.0473102231338 3.0
vertex 63.71415361640499 14.45934744104034 3.0
vertex 63.71415361640499 83.54065255895958 3.0
endloop
endfacet
facet normal -1.9535713383768802e-17 1.457250944590821e-19 1.0
outer loop
vertex 63.71415361640499 83.54065255895958 3.0
vertex 63.71415361640499 14.45934744104034 3.0
vertex 64.75020390340967 16.047896628622386 3.0
endloop
endfacet
facet normal -1.9535713383768802e-17 1.457250944590821e-19 1.0
outer loop
vertex 63.71415361640499 83.54065255895958 3.0
vertex 64.75020390340967 16.047896628622386 3.0
vertex 64.75020390340967 81.95210337137752 3.0
endloop
endfacet
facet normal -1.9535713383768802e-17 1.457250944590821e-19 1.0
outer loop
vertex 64.75020390340967 81.95210337137752 3.0
vertex 64.75020390340967 16.047896628622386 3.0
vertex 65.66140494947373 17.708543405624695 3.0
endloop
endfacet
facet normal -1.9535713383768802e-17 1.457250944590821e-19 1.0
outer loop
vertex 64.75020390340967 81.95210337137752 3.0
vertex 65.66140494947373 17.708543405624695 3.0
vertex 65.66140494947373 80.29145659437529 3.0
endloop
endfacet
facet normal -1.9535713383768802e-17 1.457250944590821e-19 1.0
outer loop
vertex 65.66140494947373 80.29145659437529 3.0
vertex 65.66140494947373 17.708543405624695 3.0
vertex 66.44213889714307 19.43104933244597 3.0
endloop
endfacet
facet normal -1.9535713383768802e-17 1.457250944590821e-19 1.0
outer loop
vertex 65.66140494947373 80.29145659437529 3.0
vertex 66.44213889714307 19.43104933244597 3.0
vertex 66.44213889714307 78.56895066755402 3.0
endloop
endfacet
facet normal -1.9535713383768802e-17 1.457250944590821e-19 1.0
outer loop
vertex 66.44213889714307 78.56895066755402 3.0
vertex 66.44213889714307 19.43104933244597 3.0
vertex 67.08759226200988 21.20479458725596 3.0
endloop
endfacet
facet normal -1.9535713383768802e-17 1.457250944590821e-19 1.0
outer loop
vertex 66.44213889714307 78.56895066755402 3.0
vertex 67.08759226200988 21.20479458725596 3.0
vertex 67.08759226200988 76.79520541274397 3.0
endloop
endfacet
facet normal -1.9535713383768802e-17 1.457250944590821e-19 1.0
outer loop
vertex 67.08759226200988 76.79520541274397 3.0
vertex 67.08759226200988 21.20479458725596 3.0
vertex 67.5937856094448 23.01884344072871 3.0
endloop
endfacet
facet normal -1.9535713383768802e-17 1.457250944590821e-19 1.0
outer loop
vertex 67.08759226200988 76.79520541274397 3.0
vertex 67.5937856094448 23.01884344072871 3.0
vertex 67.5937856094448 74.98115655927138 3.0
endloop
endfacet
facet normal -1.9535713383768802e-17 1.457250944590821e-19 1.0
outer loop
vertex 67.5937856094448 74.98115655927138 3.0
vertex 67.5937856094448 23.01884344072871 3.0
vertex 67.95759808913449 24.862011678450017 3.0
endloop
endfacet
facet normal -1.9535713383768802e-17 1.457250944590821e-19 1.0
outer loop
vertex 67.5937856094448 74.98115655927138 3.0
vertex 67.95759808913449 24.862011678450017 3.0
vertex 67.95759808913449 73.13798832155003 3.0
endloop
endfacet
facet normal -1.9535713383768802e-17 1.457250944590821e-19 1.0
outer loop
vertex 67.95759808913449 73.13798832155003 3.0
vertex 67.95759808913449 24.862011678450017 3.0
vertex 68.1767866761618 26.722935555318706 3.0
endloop
endfacet
facet normal -1.9535713383768802e-17 1.457250944590821e-19 1.0
outer loop
vertex 67.95759808913449 73.13798832155003 3.0
vertex 68.1767866761618 26.722935555318706 3.0
vertex 68.1767866761618 71.27706444468129 3.0
endloop
endfacet
facet normal -1.9535713383768802e-17 1.457250944590821e-19 1.0
outer loop
vertex 68.1767866761618 71.27706444468129 3.0
vertex 68.1767866761618 26.722935555318706 3.0
vertex 68.24999999999997 28.59014185681397 3.0
endloop
endfacet
facet normal -1.9535713383768802e-17 1.457250944590821e-19 1.0
outer loop
vertex 68.1767866761618 71.27706444468129 3.0
vertex 68.24999999999997 28.59014185681397 3.0
vertex 68.24999999999997 69.4098581431861 3.0
endloop
endfacet
facet normal -1.6757843420321762e-17 -5.023065910978455e-33 1.0
outer loop
vertex -6.347662456344125e-17 1.3279089765329656e-31 5.999999999999999
vertex 1.7500000000000024 2.4500000000000295 5.999999999999999
vertex -6.347662456344125e-17 98.0 5.999999999999999
endloop
endfacet
facet normal -1.6757843420321762e-17 -5.023065910978455e-33 1.0
outer loop
vertex 1.7500000000000024 2.4500000000000295 5.999999999999999
vertex -6.347662456344125e-17 1.3279089765329656e-31 5.999999999999999
vertex 44.999999999999986 1.6071428571428574 6.0
endloop
endfacet
facet normal -1.6757843420321762e-17 -5.023065910978455e-33 1.0
outer loop
vertex 1.7500000000000024 2.4500000000000295 5.999999999999999
vertex 44.999999999999986 1.6071428571428574 6.0
vertex 44.49999999999997 3.9767857142857346 6.0
endloop
endfacet
facet normal -1.6757843420321762e-17 -5.023065910978455e-33 1.0
outer loop
vertex 44.49999999999997 3.9767857142857346 6.0
vertex 44.999999999999986 1.6071428571428574 6.0
vertex 46.363403523536284 4.1165958412557435 6.0
endloop
endfacet
facet normal -1.6757843420321762e-17 -5.023065910978455e-33 1.0
outer loop
vertex 46.363403523536284 4.1165958412557435 6.0
vertex 44.999999999999986 1.6071428571428574 6.0
vertex 46.961477393196105 1.7543114118481358 6.0
endloop
endfacet
facet normal -1.6757843420321762e-17 -5.023065910978455e-33 1.0
outer loop
vertex 46.363403523536284 4.1165958412557435 6.0
vertex 46.961477393196105 1.7543114118481358 6.0
vertex 48.21531854470546 4.402063994560255 6.0
endloop
endfacet
facet normal -1.6757843420321762e-17 -5.023065910978455e-33 1.0
outer loop
vertex 48.21531854470546 4.402063994560255 6.0
vertex 46.961477393196105 1.7543114118481358 6.0
vertex 48.91086162600576 2.0548042048002504 6.0
endloop
endfacet
facet normal -1.6757843420321762e-17 -5.023065910978455e-33 1.0
outer loop
vertex 48.21531854470546 4.402063994560255 6.0
vertex 48.91086162600576 2.0548042048002504 6.0
vertex 50.044327391577774 4.831430168106342 6.0
endloop
endfacet
facet normal -1.6757843420321762e-17 -5.023065910978455e-33 1.0
outer loop
vertex 50.044327391577774 4.831430168106342 6.0
vertex 48.91086162600576 2.0548042048002504 6.0
vertex 50.83613409639763 2.5067685980066754 6.0
endloop
endfacet
facet normal -1.6757843420321762e-17 -5.023065910978455e-33 1.0
outer loop
vertex 50.044327391577774 4.831430168106342 6.0
vertex 50.83613409639763 2.5067685980066754 6.0
vertex 51.839153616404985 5.402047176655387 6.0
endloop
endfacet
facet normal -1.6757843420321762e-17 -5.023065910978455e-33 1.0
outer loop
vertex 51.839153616404985 5.402047176655387 6.0
vertex 50.83613409639763 2.5067685980066754 6.0
vertex 52.725424859373675 3.1074180806898664 6.0
endloop
endfacet
facet normal -1.6757843420321762e-17 -5.023065910978455e-33 1.0
outer loop
vertex 51.839153616404985 5.402047176655387 6.0
vertex 52.725424859373675 3.1074180806898664 6.0
vertex 53.58873151867086 6.110396976600229 6.0
endloop
endfacet
facet normal -1.6757843420321762e-17 -5.023065910978455e-33 1.0
outer loop
vertex 53.58873151867086 6.110396976600229 6.0
vertex 52.725424859373675 3.1074180806898664 6.0
vertex 54.56708580912723 3.853049449052869 6.0
endloop
endfacet
facet normal -1.6757843420321762e-17 -5.023065910978455e-33 1.0
outer loop
vertex 53.58873151867086 6.110396976600229 6.0
vertex 54.56708580912723 3.853049449052869 6.0
vertex 55.282274368814235 6.952112355874054 6.0
endloop
endfacet
facet normal -1.6757843420321762e-17 -5.023065910978455e-33 1.0
outer loop
vertex 55.282274368814235 6.952112355874054 6.0
vertex 54.56708580912723 3.853049449052869 6.0
vertex 56.349762493488655 4.739065637762134 6.0
endloop
endfacet
facet normal -1.6757843420321762e-17 -5.023065910978455e-33 1.0
outer loop
vertex 55.282274368814235 6.952112355874054 6.0
vertex 56.349762493488655 4.739065637762134 6.0
vertex 56.90934091200378 7.922003859264811 6.0
endloop
endfacet
facet normal -1.6757843420321762e-17 -5.023065910978455e-33 1.0
outer loop
vertex 56.90934091200378 7.922003859264811 6.0
vertex 56.349762493488655 4.739065637762134 6.0
vertex 58.062464117898706 5.760004062383979 6.0
endloop
endfacet
facet normal -1.6757843420321762e-17 -5.023065910978455e-33 1.0
outer loop
vertex 56.90934091200378 7.922003859264811 6.0
vertex 58.062464117898706 5.760004062383979 6.0
vertex 58.459899741946245 9.01409178313243 6.0
endloop
endfacet
facet normal -1.6757843420321762e-17 -5.023065910978455e-33 1.0
outer loop
vertex 58.459899741946245 9.01409178313243 6.0
vertex 58.062464117898706 5.760004062383979 6.0
vertex 59.694631307311816 6.909570298034141 6.0
endloop
endfacet
facet normal -1.6757843420321762e-17 -5.023065910978455e-33 1.0
outer loop
vertex 58.459899741946245 9.01409178313243 6.0
vertex 59.694631307311816 6.909570298034141 6.0
vertex 59.924391147841845 10.221643042270275 6.0
endloop
endfacet
facet normal -1.6757843420321762e-17 -5.023065910978455e-33 1.0
outer loop
vertex 59.924391147841845 10.221643042270275 6.0
vertex 59.694631307311816 6.909570298034141 6.0
vertex 61.23620120825458 8.180676886600278 6.0
endloop
endfacet
facet normal -1.6757843420321762e-17 -5.023065910978455e-33 1.0
outer loop
vertex 59.924391147841845 10.221643042270275 6.0
vertex 61.23620120825458 8.180676886600278 6.0
vertex 61.2937860531805 11.537212681614157 6.0
endloop
endfacet
facet normal -1.6757843420321762e-17 -5.023065910978455e-33 1.0
outer loop
vertex 61.2937860531805 11.537212681614157 6.0
vertex 61.23620120825458 8.180676886600278 6.0
vertex 62.677669529663675 9.565487033278037 6.0
endloop
endfacet
facet normal -1.6757843420321762e-17 -5.023065910978455e-33 1.0
outer loop
vertex 61.2937860531805 11.537212681614157 6.0
vertex 62.677669529663675 9.565487033278037 6.0
vertex 62.55964168300071 12.95268977686621 6.0
endloop
endfacet
facet normal -1.6757843420321762e-17 -5.023065910978455e-33 1.0
outer loop
vertex 62.55964168300071 12.95268977686621 6.0
vertex 62.677669529663675 9.565487033278037 6.0
vertex 63.71415361640499 14.45934744104034 6.0
endloop
endfacet
facet normal -1.6757843420321762e-17 -5.023065910978455e-33 1.0
outer loop
vertex 63.71415361640499 14.45934744104034 6.0
vertex 62.677669529663675 9.565487033278037 6.0
vertex 64.01014914000076 11.05546292301705 6.0
endloop
endfacet
facet normal -1.6757843420321762e-17 -5.023065910978455e-33 1.0
outer loop
vertex 63.71415361640499 14.45934744104034 6.0
vertex 64.01014914000076 11.05546292301705 6.0
vertex 64.75020390340967 16.047896628622386 6.0
endloop
endfacet
facet normal -1.6757843420321762e-17 -5.023065910978455e-33 1.0
outer loop
vertex 64.75020390340967 16.047896628622386 6.0
vertex 64.01014914000076 11.05546292301705 6.0
vertex 65.22542485937367 12.641418358989815 6.0
endloop
endfacet
facet normal -1.6757843420321762e-17 -5.023065910978455e-33 1.0
outer loop
vertex 64.75020390340967 16.047896628622386 6.0
vertex 65.22542485937367 12.641418358989815 6.0
vertex 65.66140494947373 17.708543405624695 6.0
endloop
endfacet
facet normal -1.6757843420321762e-17 -5.023065910978455e-33 1.0
outer loop
vertex 65.66140494947373 17.708543405624695 6.0
vertex 65.22542485937367 12.641418358989815 6.0
vertex 66.3160041088523 14.313575398549863 6.0
endloop
endfacet
facet normal -1.6757843420321762e-17 -5.023065910978455e-33 1.0
outer loop
vertex 65.66140494947373 17.708543405624695 6.0
vertex 66.3160041088523 14.313575398549863 6.0
vertex 66.44213889714307 19.43104933244597 6.0
endloop
endfacet
facet normal -1.6757843420321762e-17 -5.023065910978455e-33 1.0
outer loop
vertex 66.44213889714307 19.43104933244597 6.0
vertex 66.3160041088523 14.313575398549863 6.0
vertex 67.27516310470918 16.061624637499662 6.0
endloop
endfacet
facet normal -1.6757843420321762e-17 -5.023065910978455e-33 1.0
outer loop
vertex 66.44213889714307 19.43104933244597 6.0
vertex 67.27516310470918 16.061624637499662 6.0
vertex 67.08759226200988 21.20479458725596 6.0
endloop
endfacet
facet normal -1.6757843420321762e-17 -5.023065910978455e-33 1.0
outer loop
vertex 67.08759226200988 21.20479458725596 6.0
vertex 67.27516310470918 16.061624637499662 6.0
vertex 67.5937856094448 23.01884344072871 6.0
endloop
endfacet
facet normal -1.6757843420321762e-17 -5.023065910978455e-33 1.0
outer loop
vertex 67.5937856094448 23.01884344072871 6.0
vertex 67.27516310470918 16.061624637499662 6.0
vertex 68.09698831278216 17.87478877099573 6.0
endloop
endfacet
facet normal -1.6757843420321762e-17 -5.023065910978455e-33 1.0
outer loop
vertex 67.5937856094448 23.01884344072871 6.0
vertex 68.09698831278216 17.87478877099573 6.0
vertex 67.95759808913449 24.862011678450017 6.0
endloop
endfacet
facet normal -1.6757843420321762e-17 -5.023065910978455e-33 1.0
outer loop
vertex 67.95759808913449 24.862011678450017 6.0
vertex 68.09698831278216 17.87478877099573 6.0
vertex 68.1767866761618 26.722935555318706 6.0
endloop
endfacet
facet normal -1.6757843420321762e-17 -5.023065910978455e-33 1.0
outer loop
vertex 68.1767866761618 26.722935555318706 6.0
vertex 68.09698831278216 17.87478877099573 6.0
vertex 68.77641290737883 19.741889039216808 6.0
endloop
endfacet
facet normal -1.6757843420321762e-17 -5.023065910978455e-33 1.0
outer loop
vertex 68.1767866761618 26.722935555318706 6.0
vertex 68.77641290737883 19.741889039216808 6.0
vertex 68.24999999999997 28.59014185681397 6.0
endloop
endfacet
facet normal -1.6757843420321762e-17 -5.023065910978455e-33 1.0
outer loop
vertex 68.24999999999997 28.59014185681397 6.0
vertex 68.77641290737883 19.741889039216808 6.0
vertex 68.24999999999997 69.4098581431861 6.0
endloop
endfacet
facet normal -1.6757843420321762e-17 -5.023065910978455e-33 1.0
outer loop
vertex -6.347662456344125e-17 98.0 5.999999999999999
vertex 1.7500000000000024 95.54999999999991 5.999999999999999
vertex 44.999999999999986 96.39285714285715 6.0
endloop
endfacet
facet normal -1.6757843420321762e-17 -5.023065910978455e-33 1.0
outer loop
vertex 1.7500000000000024 95.54999999999991 5.999999999999999
vertex -6.347662456344125e-17 98.0 5.999999999999999
vertex 1.7500000000000024 2.4500000000000295 5.999999999999999
endloop
endfacet
facet normal -1.6757843420321762e-17 -5.023065910978455e-33 1.0
outer loop
vertex 44.999999999999986 96.39285714285715 6.0
vertex 1.7500000000000024 95.54999999999991 5.999999999999999
vertex 44.49999999999997 94.02321428571418 6.0
endloop
endfacet
facet normal -1.6757843420321762e-17 -5.023065910978455e-33 1.0
outer loop
vertex 44.999999999999986 96.39285714285715 6.0
vertex 44.49999999999997 94.02321428571418 6.0
vertex 46.363403523536284 93.88340415874433 6.0
endloop
endfacet
facet normal -1.6757843420321762e-17 -5.023065910978455e-33 1.0
outer loop
vertex 44.999999999999986 96.39285714285715 6.0
vertex 46.363403523536284 93.88340415874433 6.0
vertex 46.961477393196105 96.24568858815186 6.0
endloop
endfacet
facet normal -1.6757843420321762e-17 -5.023065910978455e-33 1.0
outer loop
vertex 46.961477393196105 96.24568858815186 6.0
vertex 46.363403523536284 93.88340415874433 6.0
vertex 48.21531854470546 93.59793600543965 6.0
endloop
endfacet
facet normal -1.6757843420321762e-17 -5.023065910978455e-33 1.0
outer loop
vertex 46.961477393196105 96.24568858815186 6.0
vertex 48.21531854470546 93.59793600543965 6.0
vertex 48.91086162600576 95.94519579519975 6.0
endloop
endfacet
facet normal -1.6757843420321762e-17 -5.023065910978455e-33 1.0
outer loop
vertex 48.91086162600576 95.94519579519975 6.0
vertex 48.21531854470546 93.59793600543965 6.0
vertex 50.044327391577774 93.16856983189366 6.0
endloop
endfacet
facet normal -1.6757843420321762e-17 -5.023065910978455e-33 1.0
outer loop
vertex 48.91086162600576 95.94519579519975 6.0
vertex 50.044327391577774 93.16856983189366 6.0
vertex 50.83613409639763 95.49323140199333 6.0
endloop
endfacet
facet normal -1.6757843420321762e-17 -5.023065910978455e-33 1.0
outer loop
vertex 50.83613409639763 95.49323140199333 6.0
vertex 50.044327391577774 93.16856983189366 6.0
vertex 51.839153616404985 92.59795282334458 6.0
endloop
endfacet
facet normal -1.6757843420321762e-17 -5.023065910978455e-33 1.0
outer loop
vertex 50.83613409639763 95.49323140199333 6.0
vertex 51.839153616404985 92.59795282334458 6.0
vertex 52.725424859373675 94.89258191931015 6.0
endloop
endfacet
facet normal -1.6757843420321762e-17 -5.023065910978455e-33 1.0
outer loop
vertex 52.725424859373675 94.89258191931015 6.0
vertex 51.839153616404985 92.59795282334458 6.0
vertex 53.58873151867086 91.88960302339973 6.0
endloop
endfacet
facet normal -1.6757843420321762e-17 -5.023065910978455e-33 1.0
outer loop
vertex 52.725424859373675 94.89258191931015 6.0
vertex 53.58873151867086 91.88960302339973 6.0
vertex 54.56708580912723 94.14695055094714 6.0
endloop
endfacet
facet normal -1.6757843420321762e-17 -5.023065910978455e-33 1.0
outer loop
vertex 54.56708580912723 94.14695055094714 6.0
vertex 53.58873151867086 91.88960302339973 6.0
vertex 55.282274368814235 91.04788764412591 6.0
endloop
endfacet
facet normal -1.6757843420321762e-17 -5.023065910978455e-33 1.0
outer loop
vertex 54.56708580912723 94.14695055094714 6.0
vertex 55.282274368814235 91.04788764412591 6.0
vertex 56.349762493488655 93.26093436223788 6.0
endloop
endfacet
facet normal -1.6757843420321762e-17 -5.023065910978455e-33 1.0
outer loop
vertex 56.349762493488655 93.26093436223788 6.0
vertex 55.282274368814235 91.04788764412591 6.0
vertex 56.90934091200378 90.07799614073521 6.0
endloop
endfacet
facet normal -1.6757843420321762e-17 -5.023065910978455e-33 1.0
outer loop
vertex 56.349762493488655 93.26093436223788 6.0
vertex 56.90934091200378 90.07799614073521 6.0
vertex 58.062464117898706 92.23999593761603 6.0
endloop
endfacet
facet normal -1.6757843420321762e-17 -5.023065910978455e-33 1.0
outer loop
vertex 58.062464117898706 92.23999593761603 6.0
vertex 56.90934091200378 90.07799614073521 6.0
vertex 58.459899741946245 88.9859082168675 6.0
endloop
endfacet
facet normal -1.6757843420321762e-17 -5.023065910978455e-33 1.0
outer loop
vertex 58.062464117898706 92.23999593761603 6.0
vertex 58.459899741946245 88.9859082168675 6.0
vertex 59.694631307311816 91.09042970196586 6.0
endloop
endfacet
facet normal -1.6757843420321762e-17 -5.023065910978455e-33 1.0
outer loop
vertex 59.694631307311816 91.09042970196586 6.0
vertex 58.459899741946245 88.9859082168675 6.0
vertex 59.924391147841845 87.77835695772968 6.0
endloop
endfacet
facet normal -1.6757843420321762e-17 -5.023065910978455e-33 1.0
outer loop
vertex 59.694631307311816 91.09042970196586 6.0
vertex 59.924391147841845 87.77835695772968 6.0
vertex 61.23620120825458 89.81932311339973 6.0
endloop
endfacet
facet normal -1.6757843420321762e-17 -5.023065910978455e-33 1.0
outer loop
vertex 61.23620120825458 89.81932311339973 6.0
vertex 59.924391147841845 87.77835695772968 6.0
vertex 61.2937860531805 86.46278731838575 6.0
endloop
endfacet
facet normal -1.6757843420321762e-17 -5.023065910978455e-33 1.0
outer loop
vertex 61.23620120825458 89.81932311339973 6.0
vertex 61.2937860531805 86.46278731838575 6.0
vertex 62.677669529663675 88.43451296672197 6.0
endloop
endfacet
facet normal -1.6757843420321762e-17 -5.023065910978455e-33 1.0
outer loop
vertex 62.677669529663675 88.43451296672197 6.0
vertex 61.2937860531805 86.46278731838575 6.0
vertex 62.55964168300071 85.0473102231338 6.0
endloop
endfacet
facet normal -1.6757843420321762e-17 -5.023065910978455e-33 1.0
outer loop
vertex 62.677669529663675 88.43451296672197 6.0
vertex 62.55964168300071 85.0473102231338 6.0
vertex 63.71415361640499 83.54065255895958 6.0
endloop
endfacet
facet normal -1.6757843420321762e-17 -5.023065910978455e-33 1.0
outer loop
vertex 62.677669529663675 88.43451296672197 6.0
vertex 63.71415361640499 83.54065255895958 6.0
vertex 64.01014914000076 86.94453707698295 6.0
endloop
endfacet
facet normal -1.6757843420321762e-17 -5.023065910978455e-33 1.0
outer loop
vertex 64.01014914000076 86.94453707698295 6.0
vertex 63.71415361640499 83.54065255895958 6.0
vertex 64.75020390340967 81.95210337137752 6.0
endloop
endfacet
facet normal -1.6757843420321762e-17 -5.023065910978455e-33 1.0
outer loop
vertex 64.01014914000076 86.94453707698295 6.0
vertex 64.75020390340967 81.95210337137752 6.0
vertex 65.22542485937367 85.3585816410102 6.0
endloop
endfacet
facet normal -1.6757843420321762e-17 -5.023065910978455e-33 1.0
outer loop
vertex 65.22542485937367 85.3585816410102 6.0
vertex 64.75020390340967 81.95210337137752 6.0
vertex 65.66140494947373 80.29145659437529 6.0
endloop
endfacet
facet normal -1.6757843420321762e-17 -5.023065910978455e-33 1.0
outer loop
vertex 65.22542485937367 85.3585816410102 6.0
vertex 65.66140494947373 80.29145659437529 6.0
vertex 66.3160041088523 83.68642460145014 6.0
endloop
endfacet
facet normal -1.6757843420321762e-17 -5.023065910978455e-33 1.0
outer loop
vertex 66.3160041088523 83.68642460145014 6.0
vertex 65.66140494947373 80.29145659437529 6.0
vertex 66.44213889714307 78.56895066755402 6.0
endloop
endfacet
facet normal -1.6757843420321762e-17 -5.023065910978455e-33 1.0
outer loop
vertex 66.3160041088523 83.68642460145014 6.0
vertex 66.44213889714307 78.56895066755402 6.0
vertex 67.27516310470918 81.93837536250035 6.0
endloop
endfacet
facet normal -1.6757843420321762e-17 -5.023065910978455e-33 1.0
outer loop
vertex 67.27516310470918 81.93837536250035 6.0
vertex 66.44213889714307 78.56895066755402 6.0
vertex 67.08759226200988 76.79520541274397 6.0
endloop
endfacet
facet normal -1.6757843420321762e-17 -5.023065910978455e-33 1.0
outer loop
vertex 67.27516310470918 81.93837536250035 6.0
vertex 67.08759226200988 76.79520541274397 6.0
vertex 67.5937856094448 74.98115655927138 6.0
endloop
endfacet
facet normal -1.6757843420321762e-17 -5.023065910978455e-33 1.0
outer loop
vertex 67.27516310470918 81.93837536250035 6.0
vertex 67.5937856094448 74.98115655927138 6.0
vertex 68.09698831278216 80.12521122900428 6.0
endloop
endfacet
facet normal -1.6757843420321762e-17 -5.023065910978455e-33 1.0
outer loop
vertex 68.09698831278216 80.12521122900428 6.0
vertex 67.5937856094448 74.98115655927138 6.0
vertex 67.95759808913449 73.13798832155003 6.0
endloop
endfacet
facet normal -1.6757843420321762e-17 -5.023065910978455e-33 1.0
outer loop
vertex 68.09698831278216 80.12521122900428 6.0
vertex 67.95759808913449 73.13798832155003 6.0
vertex 68.1767866761618 71.27706444468129 6.0
endloop
endfacet
facet normal -1.6757843420321762e-17 -5.023065910978455e-33 1.0
outer loop
vertex 68.09698831278216 80.12521122900428 6.0
vertex 68.1767866761618 71.27706444468129 6.0
vertex 68.77641290737883 78.2581109607832 6.0
endloop
endfacet
facet normal -1.6757843420321762e-17 -5.023065910978455e-33 1.0
outer loop
vertex 68.77641290737883 78.2581109607832 6.0
vertex 68.1767866761618 71.27706444468129 6.0
vertex 68.24999999999997 69.4098581431861 6.0
endloop
endfacet
facet normal -1.6757843420321762e-17 -5.023065910978455e-33 1.0
outer loop
vertex 68.77641290737883 78.2581109607832 6.0
vertex 68.24999999999997 69.4098581431861 6.0
vertex 68.77641290737883 19.741889039216808 6.0
endloop
endfacet
facet normal -1.6757843420321762e-17 -5.023065910978455e-33 1.0
outer loop
vertex 68.77641290737883 78.2581109607832 6.0
vertex 68.77641290737883 19.741889039216808 6.0
vertex 69.30924800994191 21.651414148135462 6.0
endloop
endfacet
facet normal -1.6757843420321762e-17 -5.023065910978455e-33 1.0
outer loop
vertex 68.77641290737883 78.2581109607832 6.0
vertex 69.30924800994191 21.651414148135462 6.0
vertex 69.30924800994191 76.34858585186456 6.0
endloop
endfacet
facet normal -1.6757843420321762e-17 -5.023065910978455e-33 1.0
outer loop
vertex 69.30924800994191 76.34858585186456 6.0
vertex 69.30924800994191 21.651414148135462 6.0
vertex 69.69220851487843 23.591591240473683 6.0
endloop
endfacet
facet normal -1.6757843420321762e-17 -5.023065910978455e-33 1.0
outer loop
vertex 69.30924800994191 76.34858585186456 6.0
vertex 69.69220851487843 23.591591240473683 6.0
vertex 69.69220851487843 74.40840875952632 6.0
endloop
endfacet
facet normal -1.6757843420321762e-17 -5.023065910978455e-33 1.0
outer loop
vertex 69.69220851487843 74.40840875952632 6.0
vertex 69.69220851487843 23.591591240473683 6.0
vertex 69.92293334332818 25.550458479282852 6.0
endloop
endfacet
facet normal -1.6757843420321762e-17 -5.023065910978455e-33 1.0
outer loop
vertex 69.69220851487843 74.40840875952632 6.0
vertex 69.92293334332818 25.550458479282852 6.0
vertex 69.92293334332818 72.44954152071716 6.0
endloop
endfacet
facet normal -1.6757843420321762e-17 -5.023065910978455e-33 1.0
outer loop
vertex 69.92293334332818 72.44954152071716 6.0
vertex 69.92293334332818 25.550458479282852 6.0
vertex 69.99999999999999 27.51593879664625 6.0
endloop
endfacet
facet normal -1.6757843420321762e-17 -5.023065910978455e-33 1.0
outer loop
vertex 69.92293334332818 72.44954152071716 6.0
vertex 69.99999999999999 27.51593879664625 6.0
vertex 69.99999999999999 70.48406120335376 6.0
endloop
endfacet
endsolid UV_Curing_Platter_Tray_With_Lip-mk2-finished
