solid MP_Mini-100mm_02height-test
facet normal 0.0 0.0 -1.0
outer loop
vertex 100.0 100.0 0.0
vertex 0.0 0.0 0.0
vertex 0.0 100.0 0.0
endloop
endfacet
facet normal 0.0 0.0 -1.0
outer loop
vertex 0.0 0.0 0.0
vertex 100.0 100.0 0.0
vertex 100.0 0.0 0.0
endloop
endfacet
facet normal -0.0 -0.0 1.0
outer loop
vertex 100.0 0.0 0.20000000000000004
vertex 0.0 100.0 0.20000000000000004
vertex 0.0 0.0 0.20000000000000004
endloop
endfacet
facet normal -0.0 -0.0 1.0
outer loop
vertex 0.0 100.0 0.20000000000000004
vertex 100.0 0.0 0.20000000000000004
vertex 100.0 100.0 0.20000000000000004
endloop
endfacet
facet normal -1.0 0.0 0.0
outer loop
vertex 0.0 100.0 0.20000000000000004
vertex 0.0 0.0 0.0
vertex 0.0 0.0 0.20000000000000004
endloop
endfacet
facet normal -1.0 0.0 0.0
outer loop
vertex 0.0 0.0 0.0
vertex 0.0 100.0 0.20000000000000004
vertex 0.0 100.0 0.0
endloop
endfacet
facet normal -0.0 1.0 0.0
outer loop
vertex 0.0 100.0 0.20000000000000004
vertex 100.0 100.0 0.0
vertex 0.0 100.0 0.0
endloop
endfacet
facet normal -0.0 1.0 0.0
outer loop
vertex 100.0 100.0 0.0
vertex 0.0 100.0 0.20000000000000004
vertex 100.0 100.0 0.20000000000000004
endloop
endfacet
facet normal 1.0 0.0 0.0
outer loop
vertex 100.0 100.0 0.0
vertex 100.0 0.0 0.20000000000000004
vertex 100.0 0.0 0.0
endloop
endfacet
facet normal 1.0 0.0 0.0
outer loop
vertex 100.0 0.0 0.20000000000000004
vertex 100.0 100.0 0.0
vertex 100.0 100.0 0.20000000000000004
endloop
endfacet
facet normal -0.0 -1.0 -0.0
outer loop
vertex 100.0 0.0 0.20000000000000004
vertex 0.0 0.0 0.0
vertex 100.0 0.0 0.0
endloop
endfacet
facet normal -0.0 -1.0 -0.0
outer loop
vertex 0.0 0.0 0.0
vertex 100.0 0.0 0.20000000000000004
vertex 0.0 0.0 0.20000000000000004
endloop
endfacet
endsolid MP_Mini-100mm_02height-test
