solid model
facet normal -1.0 0.0 0.0
outer loop
vertex 0.0 40.0 1.9999999999999998
vertex 0.0 0.0 -0.9999999999999999
vertex 0.0 0.0 1.9999999999999998
endloop
endfacet
facet normal -1.0 0.0 0.0
outer loop
vertex 0.0 0.0 -0.9999999999999999
vertex 0.0 40.0 1.9999999999999998
vertex 0.0 40.0 -0.9999999999999999
endloop
endfacet
facet normal -0.0 -0.0 1.0
outer loop
vertex 25.0 0.0 3.9999999999999996
vertex 10.0 40.0 3.9999999999999996
vertex 10.0 0.0 3.9999999999999996
endloop
endfacet
facet normal -0.0 -0.0 1.0
outer loop
vertex 10.0 40.0 3.9999999999999996
vertex 25.0 0.0 3.9999999999999996
vertex 25.0 40.0 3.9999999999999996
endloop
endfacet
facet normal -0.0 1.0 -0.0
outer loop
vertex 0.0 40.0 1.9999999999999998
vertex 103.99999999999999 40.0 -0.9999999999999999
vertex 0.0 40.0 -0.9999999999999999
endloop
endfacet
facet normal -0.0 1.0 -0.0
outer loop
vertex 103.99999999999999 40.0 -0.9999999999999999
vertex 0.0 40.0 1.9999999999999998
vertex 87.47823549416023 40.0 0.152768333159716
endloop
endfacet
facet normal -0.0 1.0 -0.0
outer loop
vertex 103.99999999999999 40.0 -0.9999999999999999
vertex 87.47823549416023 40.0 0.152768333159716
vertex 93.73880393446542 40.0 0.05066229360482168
endloop
endfacet
facet normal -0.0 1.0 -0.0
outer loop
vertex 103.99999999999999 40.0 -0.9999999999999999
vertex 93.73880393446542 40.0 0.05066229360482168
vertex 100.0 40.0 0.0
endloop
endfacet
facet normal -0.0 1.0 -0.0
outer loop
vertex 87.47823549416023 40.0 0.152768333159716
vertex 0.0 40.0 1.9999999999999998
vertex 81.21871734821913 40.0 0.30631122518983955
endloop
endfacet
facet normal -0.0 1.0 -0.0
outer loop
vertex 81.21871734821913 40.0 0.30631122518983955
vertex 0.0 40.0 1.9999999999999998
vertex 74.9606720948684 40.0 0.5112806035692401
endloop
endfacet
facet normal -0.0 1.0 -0.0
outer loop
vertex 74.9606720948684 40.0 0.5112806035692401
vertex 0.0 40.0 1.9999999999999998
vertex 68.70452223289506 40.0 0.767662630220569
endloop
endfacet
facet normal -0.0 1.0 -0.0
outer loop
vertex 68.70452223289506 40.0 0.767662630220569
vertex 0.0 40.0 1.9999999999999998
vertex 62.45069013312277 40.0 1.0754399960497765
endloop
endfacet
facet normal -0.0 1.0 -0.0
outer loop
vertex 62.45069013312277 40.0 1.0754399960497765
vertex 0.0 40.0 1.9999999999999998
vertex 56.19959800989634 40.0 1.434591922113983
endloop
endfacet
facet normal -0.0 1.0 -0.0
outer loop
vertex 56.19959800989634 40.0 1.434591922113983
vertex 0.0 40.0 1.9999999999999998
vertex 49.951667892576836 40.0 1.845094161024786
endloop
endfacet
facet normal -0.0 1.0 -0.0
outer loop
vertex 49.951667892576836 40.0 1.845094161024786
vertex 0.0 40.0 1.9999999999999998
vertex 10.0 40.0 1.9999999999999998
endloop
endfacet
facet normal -0.0 1.0 -0.0
outer loop
vertex 49.951667892576836 40.0 1.845094161024786
vertex 10.0 40.0 1.9999999999999998
vertex 43.7073215970491 40.0 2.306918998585554
endloop
endfacet
facet normal -0.0 1.0 -0.0
outer loop
vertex 43.7073215970491 40.0 2.306918998585554
vertex 10.0 40.0 1.9999999999999998
vertex 10.0 40.0 3.9999999999999996
endloop
endfacet
facet normal -0.0 1.0 -0.0
outer loop
vertex 43.7073215970491 40.0 2.306918998585554
vertex 10.0 40.0 3.9999999999999996
vertex 37.466980697243805 40.0 2.8200352556619888
endloop
endfacet
facet normal -0.0 1.0 -0.0
outer loop
vertex 37.466980697243805 40.0 2.8200352556619888
vertex 10.0 40.0 3.9999999999999996
vertex 31.23106649667569 40.0 3.3844082902868613
endloop
endfacet
facet normal -0.0 1.0 -0.0
outer loop
vertex 31.23106649667569 40.0 3.3844082902868613
vertex 10.0 40.0 3.9999999999999996
vertex 25.0 40.0 3.9999999999999996
endloop
endfacet
facet normal 0.0 -1.0 0.0
outer loop
vertex 43.7073215970491 0.0 2.306918998585554
vertex 10.0 0.0 1.9999999999999998
vertex 49.951667892576836 0.0 1.845094161024786
endloop
endfacet
facet normal 0.0 -1.0 0.0
outer loop
vertex 10.0 0.0 1.9999999999999998
vertex 43.7073215970491 0.0 2.306918998585554
vertex 10.0 0.0 3.9999999999999996
endloop
endfacet
facet normal 0.0 -1.0 0.0
outer loop
vertex 10.0 0.0 3.9999999999999996
vertex 43.7073215970491 0.0 2.306918998585554
vertex 37.466980697243805 0.0 2.8200352556619888
endloop
endfacet
facet normal 0.0 -1.0 0.0
outer loop
vertex 10.0 0.0 3.9999999999999996
vertex 37.466980697243805 0.0 2.8200352556619888
vertex 31.23106649667569 0.0 3.3844082902868613
endloop
endfacet
facet normal 0.0 -1.0 0.0
outer loop
vertex 10.0 0.0 3.9999999999999996
vertex 31.23106649667569 0.0 3.3844082902868613
vertex 25.0 0.0 3.9999999999999996
endloop
endfacet
facet normal 0.0 -1.0 0.0
outer loop
vertex 100.0 0.0 0.0
vertex 0.0 0.0 -0.9999999999999999
vertex 103.99999999999999 0.0 -0.9999999999999999
endloop
endfacet
facet normal 0.0 -1.0 0.0
outer loop
vertex 0.0 0.0 -0.9999999999999999
vertex 100.0 0.0 0.0
vertex 93.73880393446542 0.0 0.05066229360482168
endloop
endfacet
facet normal 0.0 -1.0 0.0
outer loop
vertex 0.0 0.0 -0.9999999999999999
vertex 93.73880393446542 0.0 0.05066229360482168
vertex 87.47823549416023 0.0 0.152768333159716
endloop
endfacet
facet normal 0.0 -1.0 0.0
outer loop
vertex 0.0 0.0 -0.9999999999999999
vertex 87.47823549416023 0.0 0.152768333159716
vertex 0.0 0.0 1.9999999999999998
endloop
endfacet
facet normal 0.0 -1.0 0.0
outer loop
vertex 0.0 0.0 1.9999999999999998
vertex 87.47823549416023 0.0 0.152768333159716
vertex 81.21871734821913 0.0 0.30631122518983955
endloop
endfacet
facet normal 0.0 -1.0 0.0
outer loop
vertex 0.0 0.0 1.9999999999999998
vertex 81.21871734821913 0.0 0.30631122518983955
vertex 74.9606720948684 0.0 0.5112806035692401
endloop
endfacet
facet normal 0.0 -1.0 0.0
outer loop
vertex 0.0 0.0 1.9999999999999998
vertex 74.9606720948684 0.0 0.5112806035692401
vertex 68.70452223289506 0.0 0.767662630220569
endloop
endfacet
facet normal 0.0 -1.0 0.0
outer loop
vertex 0.0 0.0 1.9999999999999998
vertex 68.70452223289506 0.0 0.767662630220569
vertex 62.45069013312277 0.0 1.0754399960497765
endloop
endfacet
facet normal 0.0 -1.0 0.0
outer loop
vertex 0.0 0.0 1.9999999999999998
vertex 62.45069013312277 0.0 1.0754399960497765
vertex 56.19959800989634 0.0 1.434591922113983
endloop
endfacet
facet normal 0.0 -1.0 0.0
outer loop
vertex 0.0 0.0 1.9999999999999998
vertex 56.19959800989634 0.0 1.434591922113983
vertex 49.951667892576836 0.0 1.845094161024786
endloop
endfacet
facet normal 0.0 -1.0 0.0
outer loop
vertex 0.0 0.0 1.9999999999999998
vertex 49.951667892576836 0.0 1.845094161024786
vertex 10.0 0.0 1.9999999999999998
endloop
endfacet
facet normal -1.0 -0.0 -0.0
outer loop
vertex 10.0 40.0 3.9999999999999996
vertex 10.0 0.0 1.9999999999999998
vertex 10.0 0.0 3.9999999999999996
endloop
endfacet
facet normal -1.0 -0.0 -0.0
outer loop
vertex 10.0 0.0 1.9999999999999998
vertex 10.0 40.0 3.9999999999999996
vertex 10.0 40.0 1.9999999999999998
endloop
endfacet
facet normal 0.09422609228814181 0.0 0.9955508241833296
outer loop
vertex 31.23106649667569 0.0 3.3844082902868613
vertex 25.0 40.0 3.9999999999999996
vertex 25.0 0.0 3.9999999999999996
endloop
endfacet
facet normal 0.09831533021382413 -0.0 0.995155312423617
outer loop
vertex 25.0 40.0 3.9999999999999996
vertex 31.23106649667569 0.0 3.3844082902868613
vertex 31.23106649667569 40.0 3.3844082902868613
endloop
endfacet
facet normal -0.0 -0.0 1.0
outer loop
vertex 10.0 0.0 1.9999999999999998
vertex 0.0 40.0 1.9999999999999998
vertex 0.0 0.0 1.9999999999999998
endloop
endfacet
facet normal -0.0 -0.0 1.0
outer loop
vertex 0.0 40.0 1.9999999999999998
vertex 10.0 0.0 1.9999999999999998
vertex 10.0 40.0 1.9999999999999998
endloop
endfacet
facet normal 0.05325764291616263 0.0 0.998580804677826
outer loop
vertex 62.45069013312277 0.0 1.0754399960497765
vertex 56.19959800989634 40.0 1.434591922113983
vertex 56.19959800989634 0.0 1.434591922113983
endloop
endfacet
facet normal 0.061460738320258494 0.0 0.9981095018309006
outer loop
vertex 56.19959800989634 40.0 1.434591922113983
vertex 62.45069013312277 0.0 1.0754399960497765
vertex 62.45069013312277 40.0 1.0754399960497765
endloop
endfacet
facet normal 0.020414847084613195 0.0 0.999791595292995
outer loop
vertex 87.47823549416023 0.0 0.152768333159716
vertex 81.21871734821913 40.0 0.30631122518983955
vertex 81.21871734821913 0.0 0.30631122518983955
endloop
endfacet
facet normal 0.028628999671504403 0.0 0.9995901061824337
outer loop
vertex 81.21871734821913 40.0 0.30631122518983955
vertex 87.47823549416023 0.0 0.152768333159716
vertex 87.47823549416023 40.0 0.152768333159716
endloop
endfacet
facet normal 0.012199316232188846 0.0 0.99992558557298
outer loop
vertex 93.73880393446542 0.0 0.05066229360482168
vertex 87.47823549416023 40.0 0.152768333159716
vertex 87.47823549416023 0.0 0.152768333159716
endloop
endfacet
facet normal 0.020414847084613195 0.0 0.999791595292995
outer loop
vertex 87.47823549416023 40.0 0.152768333159716
vertex 93.73880393446542 0.0 0.05066229360482168
vertex 93.73880393446542 40.0 0.05066229360482168
endloop
endfacet
facet normal 0.028628999671504403 0.0 0.9995901061824337
outer loop
vertex 81.21871734821913 0.0 0.30631122518983955
vertex 74.9606720948684 40.0 0.5112806035692401
vertex 74.9606720948684 0.0 0.5112806035692401
endloop
endfacet
facet normal 0.036841219431584527 0.0 0.9993211318444106
outer loop
vertex 74.9606720948684 40.0 0.5112806035692401
vertex 81.21871734821913 0.0 0.30631122518983955
vertex 81.21871734821913 40.0 0.30631122518983955
endloop
endfacet
facet normal 0.07785392741571037 0.0 0.9969647767027425
outer loop
vertex 43.7073215970491 0.0 2.306918998585554
vertex 37.466980697243805 40.0 2.8200352556619888
vertex 37.466980697243805 0.0 2.8200352556619888
endloop
endfacet
facet normal 0.0860429143552873 0.0 0.9962914317052259
outer loop
vertex 37.466980697243805 40.0 2.8200352556619888
vertex 43.7073215970491 0.0 2.306918998585554
vertex 43.7073215970491 40.0 2.306918998585554
endloop
endfacet
facet normal 0.04505095193409122 0.0 0.998984690438163
outer loop
vertex 68.70452223289506 0.0 0.767662630220569
vertex 62.45069013312277 40.0 1.0754399960497765
vertex 62.45069013312277 0.0 1.0754399960497765
endloop
endfacet
facet normal 0.05325764291616263 0.0 0.998580804677826
outer loop
vertex 62.45069013312277 40.0 1.0754399960497765
vertex 68.70452223289506 0.0 0.767662630220569
vertex 68.70452223289506 40.0 0.767662630220569
endloop
endfacet
facet normal 0.06965968433164553 0.0 0.9975708137164077
outer loop
vertex 49.951667892576836 0.0 1.845094161024786
vertex 43.7073215970491 40.0 2.306918998585554
vertex 43.7073215970491 0.0 2.306918998585554
endloop
endfacet
facet normal 0.07785392741571037 0.0 0.9969647767027425
outer loop
vertex 43.7073215970491 40.0 2.306918998585554
vertex 49.951667892576836 0.0 1.845094161024786
vertex 49.951667892576836 40.0 1.845094161024786
endloop
endfacet
facet normal 0.036841219431584527 0.0 0.9993211318444106
outer loop
vertex 74.9606720948684 0.0 0.5112806035692401
vertex 68.70452223289506 40.0 0.767662630220569
vertex 68.70452223289506 0.0 0.767662630220569
endloop
endfacet
facet normal 0.04505095193409122 0.0 0.998984690438163
outer loop
vertex 68.70452223289506 40.0 0.767662630220569
vertex 74.9606720948684 0.0 0.5112806035692401
vertex 74.9606720948684 40.0 0.5112806035692401
endloop
endfacet
facet normal 0.0860429143552873 0.0 0.9962914317052259
outer loop
vertex 37.466980697243805 0.0 2.8200352556619888
vertex 31.23106649667569 40.0 3.3844082902868613
vertex 31.23106649667569 0.0 3.3844082902868613
endloop
endfacet
facet normal 0.09422609228814181 0.0 0.9955508241833296
outer loop
vertex 31.23106649667569 40.0 3.3844082902868613
vertex 37.466980697243805 0.0 2.8200352556619888
vertex 37.466980697243805 40.0 2.8200352556619888
endloop
endfacet
facet normal 0.0 0.0 -1.0
outer loop
vertex 103.99999999999999 40.0 -0.9999999999999999
vertex 0.0 0.0 -0.9999999999999999
vertex 0.0 40.0 -0.9999999999999999
endloop
endfacet
facet normal 0.0 0.0 -1.0
outer loop
vertex 0.0 0.0 -0.9999999999999999
vertex 103.99999999999999 40.0 -0.9999999999999999
vertex 103.99999999999999 0.0 -0.9999999999999999
endloop
endfacet
facet normal 0.008091207283264084 -0.0 0.9999672656465807
outer loop
vertex 100.0 0.0 0.0
vertex 93.73880393446542 40.0 0.05066229360482168
vertex 93.73880393446542 0.0 0.05066229360482168
endloop
endfacet
facet normal 0.012199316232188846 0.0 0.99992558557298
outer loop
vertex 93.73880393446542 40.0 0.05066229360482168
vertex 100.0 0.0 0.0
vertex 100.0 40.0 0.0
endloop
endfacet
facet normal 0.061460738320258494 0.0 0.9981095018309006
outer loop
vertex 56.19959800989634 0.0 1.434591922113983
vertex 49.951667892576836 40.0 1.845094161024786
vertex 49.951667892576836 0.0 1.845094161024786
endloop
endfacet
facet normal 0.06965968433164553 0.0 0.9975708137164077
outer loop
vertex 49.951667892576836 40.0 1.845094161024786
vertex 56.19959800989634 0.0 1.434591922113983
vertex 56.19959800989634 40.0 1.434591922113983
endloop
endfacet
facet normal -0.2425356250363334 0.0 -0.9701425001453319
outer loop
vertex 103.99999999999999 40.0 -0.9999999999999999
vertex 100.0 0.0 0.0
vertex 100.0 40.0 0.0
endloop
endfacet
facet normal -0.2425356250363334 0.0 -0.9701425001453319
outer loop
vertex 100.0 0.0 0.0
vertex 103.99999999999999 40.0 -0.9999999999999999
vertex 103.99999999999999 0.0 -0.9999999999999999
endloop
endfacet
endsolid model
