solid Vernier_Calipers-Chinese-USB_Insert-Channeled_and_Tabbed-mk2
facet normal 2.4286128663675294e-16 -1.0 -4.3654604245320507e-17
outer loop
vertex 5.500000000000002 1.000000000000004 14.500000000000007
vertex 2.5000000000000018 1.0000000000000002 1.999999999999999
vertex 5.500000000000002 1.000000000000004 1.9999999999999947
endloop
endfacet
facet normal 2.4286128663675294e-16 -1.0 -4.3654604245320507e-17
outer loop
vertex 2.5000000000000018 1.0000000000000002 1.999999999999999
vertex 5.500000000000002 1.000000000000004 14.500000000000007
vertex 2.500000000000006 0.9999999999999992 14.500000000000005
endloop
endfacet
facet normal -4.776684378526641e-16 -1.0 -6.788888872265938e-17
outer loop
vertex 10.000000000000023 -4.975827885192347e-15 2.000000000000001
vertex 2.500000000000004 -1.1534514420512511e-15 1.999999999999999
vertex 10.000000000000016 -4.623332074873859e-15 5.287437154777308e-15
endloop
endfacet
facet normal -4.776684378526641e-16 -1.0 -6.788888872265938e-17
outer loop
vertex -8.66570461443766e-17 0.0 0.0
vertex 2.500000000000004 -1.1534514420512511e-15 1.999999999999999
vertex -9.868415782482393e-15 -1.0291421761209566e-15 15.500000000000002
endloop
endfacet
facet normal -4.776684378526641e-16 -1.0 -6.788888872265938e-17
outer loop
vertex 2.500000000000004 -1.1534514420512511e-15 1.999999999999999
vertex -8.66570461443766e-17 0.0 0.0
vertex 10.000000000000016 -4.623332074873859e-15 5.287437154777308e-15
endloop
endfacet
facet normal -4.776684378526641e-16 -1.0 -6.788888872265938e-17
outer loop
vertex -9.868415782482393e-15 -1.0291421761209566e-15 15.500000000000002
vertex 2.500000000000004 -1.1534514420512511e-15 1.999999999999999
vertex 2.500000000000007 -2.144845908571996e-15 15.50000000000001
endloop
endfacet
facet normal -2.973535720869507e-16 1.0 4.258046378333225e-18
outer loop
vertex -5.0671854727395674e-15 8.200000000000006 3.579677548116278e-16
vertex 2.4999999999999964 8.2 1.9999999999999991
vertex 10.000000000000016 8.200000000000001 5.287437154777308e-15
endloop
endfacet
facet normal -2.973535720869507e-16 1.0 4.258046378333225e-18
outer loop
vertex 2.4999999999999964 8.2 1.9999999999999991
vertex -5.0671854727395674e-15 8.200000000000006 3.579677548116278e-16
vertex -1.2205225631688931e-14 8.200000000000001 15.500000000000002
endloop
endfacet
facet normal -2.973535720869507e-16 1.0 4.258046378333225e-18
outer loop
vertex 2.4999999999999964 8.2 1.9999999999999991
vertex -1.2205225631688931e-14 8.200000000000001 15.500000000000002
vertex 2.500000000000001 8.200000000000001 15.50000000000001
endloop
endfacet
facet normal -2.973535720869507e-16 1.0 4.258046378333225e-18
outer loop
vertex 10.00000000000003 8.200000000000008 2.000000000000002
vertex 10.000000000000016 8.200000000000001 5.287437154777308e-15
vertex 2.4999999999999964 8.2 1.9999999999999991
endloop
endfacet
facet normal -2.4286128663675294e-16 1.0 4.3654604245320507e-17
outer loop
vertex 2.500000000000001 7.200000000000002 1.9999999999999991
vertex 5.500000000000001 7.199999999999992 14.500000000000007
vertex 5.500000000000001 7.199999999999992 1.9999999999999947
endloop
endfacet
facet normal -2.4286128663675294e-16 1.0 4.3654604245320507e-17
outer loop
vertex 5.500000000000001 7.199999999999992 14.500000000000007
vertex 2.500000000000001 7.200000000000002 1.9999999999999991
vertex 2.5000000000000053 7.200000000000004 14.500000000000005
endloop
endfacet
facet normal 1.0 2.4286128663675294e-16 1.3114509478384668e-15
outer loop
vertex 5.500000000000001 7.199999999999992 1.9999999999999947
vertex 5.500000000000002 1.000000000000004 14.500000000000007
vertex 5.500000000000002 1.000000000000004 1.9999999999999947
endloop
endfacet
facet normal 1.0 2.4286128663675294e-16 1.3114509478384668e-15
outer loop
vertex 5.500000000000002 1.000000000000004 14.500000000000007
vertex 5.500000000000001 7.199999999999992 1.9999999999999947
vertex 5.500000000000001 7.199999999999992 14.500000000000007
endloop
endfacet
facet normal -1.3114509478384648e-15 -4.365460424532086e-17 1.0
outer loop
vertex 2.500000000000006 0.9999999999999992 14.500000000000005
vertex 5.500000000000001 7.199999999999992 14.500000000000007
vertex 2.5000000000000053 7.200000000000004 14.500000000000005
endloop
endfacet
facet normal -1.3114509478384648e-15 -4.365460424532086e-17 1.0
outer loop
vertex 5.500000000000001 7.199999999999992 14.500000000000007
vertex 2.500000000000006 0.9999999999999992 14.500000000000005
vertex 5.500000000000002 1.000000000000004 14.500000000000007
endloop
endfacet
facet normal 1.0 2.4286128663675294e-16 1.3114509478384668e-15
outer loop
vertex 2.5000000000000018 1.0000000000000002 1.999999999999999
vertex 2.500000000000006 0.9999999999999992 14.500000000000005
vertex 2.500000000000004 -1.1534514420512511e-15 1.999999999999999
endloop
endfacet
facet normal 1.0 2.4286128663675294e-16 1.3114509478384668e-15
outer loop
vertex 2.4999999999999964 8.2 1.9999999999999991
vertex 2.5000000000000053 7.200000000000004 14.500000000000005
vertex 2.500000000000001 7.200000000000002 1.9999999999999991
endloop
endfacet
facet normal 1.0 2.4286128663675294e-16 1.3114509478384668e-15
outer loop
vertex 2.500000000000007 -2.144845908571996e-15 15.50000000000001
vertex 2.500000000000006 0.9999999999999992 14.500000000000005
vertex 2.500000000000001 8.200000000000001 15.50000000000001
endloop
endfacet
facet normal 1.0 2.4286128663675294e-16 1.3114509478384668e-15
outer loop
vertex 2.500000000000006 0.9999999999999992 14.500000000000005
vertex 2.500000000000007 -2.144845908571996e-15 15.50000000000001
vertex 2.500000000000004 -1.1534514420512511e-15 1.999999999999999
endloop
endfacet
facet normal 1.0 2.4286128663675294e-16 1.3114509478384668e-15
outer loop
vertex 2.500000000000001 8.200000000000001 15.50000000000001
vertex 2.500000000000006 0.9999999999999992 14.500000000000005
vertex 2.5000000000000053 7.200000000000004 14.500000000000005
endloop
endfacet
facet normal 1.0 2.4286128663675294e-16 1.3114509478384668e-15
outer loop
vertex 2.500000000000001 8.200000000000001 15.50000000000001
vertex 2.5000000000000053 7.200000000000004 14.500000000000005
vertex 2.4999999999999964 8.2 1.9999999999999991
endloop
endfacet
facet normal -1.3114509478384648e-15 -4.365460424532086e-17 1.0
outer loop
vertex 0.7500000000000063 3.7499999999999982 15.50000000000003
vertex -9.275104208416507e-15 4.700000000000004 15.500000000000002
vertex -1.2139132667254216e-14 3.7500000000000044 15.500000000000002
endloop
endfacet
facet normal -1.3114509478384648e-15 -4.365460424532086e-17 1.0
outer loop
vertex -9.275104208416507e-15 4.700000000000004 15.500000000000002
vertex 0.7500000000000063 3.7499999999999982 15.50000000000003
vertex 0.750000000000004 4.699999999999999 15.50000000000003
endloop
endfacet
facet normal -1.3114509478384648e-15 -4.365460424532086e-17 1.0
outer loop
vertex 0.750000000000004 4.699999999999999 15.50000000000003
vertex 0.7500000000000063 3.7499999999999982 15.50000000000003
vertex 0.7500000000000046 5.700000000000003 15.50000000000003
endloop
endfacet
facet normal -1.3114509478384648e-15 -4.365460424532086e-17 1.0
outer loop
vertex -9.374243655068583e-15 1.750000000000003 15.500000000000002
vertex 0.7500000000000037 2.7500000000000018 15.50000000000003
vertex -1.1918822785805161e-14 2.75 15.500000000000002
endloop
endfacet
facet normal -1.3114509478384648e-15 -4.365460424532086e-17 1.0
outer loop
vertex 0.7500000000000037 2.7500000000000018 15.50000000000003
vertex -9.374243655068583e-15 1.750000000000003 15.500000000000002
vertex 0.750000000000007 1.7500000000000049 15.50000000000003
endloop
endfacet
facet normal -1.3114509478384648e-15 -4.365460424532086e-17 1.0
outer loop
vertex 0.7500000000000037 2.7500000000000018 15.50000000000003
vertex 0.750000000000007 1.7500000000000049 15.50000000000003
vertex 0.7500000000000063 3.7499999999999982 15.50000000000003
endloop
endfacet
facet normal -1.3114509478384648e-15 -4.365460424532086e-17 1.0
outer loop
vertex 0.7500000000000046 5.700000000000003 15.50000000000003
vertex -1.2557721442007418e-14 6.450000000000012 15.500000000000002
vertex -1.4143952588440611e-14 5.6999999999999975 15.500000000000002
endloop
endfacet
facet normal -1.3114509478384648e-15 -4.365460424532086e-17 1.0
outer loop
vertex -1.2557721442007418e-14 6.450000000000012 15.500000000000002
vertex 0.7500000000000046 5.700000000000003 15.50000000000003
vertex 0.7500000000000077 6.450000000000015 15.50000000000003
endloop
endfacet
facet normal -1.3114509478384648e-15 -4.365460424532086e-17 1.0
outer loop
vertex 0.7500000000000077 6.450000000000015 15.50000000000003
vertex 0.7500000000000046 5.700000000000003 15.50000000000003
vertex 0.7500000000000063 3.7499999999999982 15.50000000000003
endloop
endfacet
facet normal -1.3114509478384648e-15 -4.365460424532086e-17 1.0
outer loop
vertex 0.7500000000000077 6.450000000000015 15.50000000000003
vertex 0.7500000000000063 3.7499999999999982 15.50000000000003
vertex 0.750000000000007 1.7500000000000049 15.50000000000003
endloop
endfacet
facet normal -1.3114509478384648e-15 -4.365460424532086e-17 1.0
outer loop
vertex 0.7500000000000077 6.450000000000015 15.50000000000003
vertex 0.750000000000007 1.7500000000000049 15.50000000000003
vertex 0.7500000000000079 0.7500000000000004 15.50000000000003
endloop
endfacet
facet normal -1.3114509478384648e-15 -4.365460424532086e-17 1.0
outer loop
vertex 2.500000000000007 -2.144845908571996e-15 15.50000000000001
vertex -9.748770453531975e-15 0.7500000000000004 15.500000000000002
vertex -9.868415782482393e-15 -1.0291421761209566e-15 15.500000000000002
endloop
endfacet
facet normal -1.3114509478384648e-15 -4.365460424532086e-17 1.0
outer loop
vertex -9.748770453531975e-15 0.7500000000000004 15.500000000000002
vertex 2.500000000000007 -2.144845908571996e-15 15.50000000000001
vertex 0.7500000000000079 0.7500000000000004 15.50000000000003
endloop
endfacet
facet normal -1.3114509478384648e-15 -4.365460424532086e-17 1.0
outer loop
vertex 0.7500000000000079 0.7500000000000004 15.50000000000003
vertex 2.500000000000007 -2.144845908571996e-15 15.50000000000001
vertex 2.500000000000001 8.200000000000001 15.50000000000001
endloop
endfacet
facet normal -1.3114509478384648e-15 -4.365460424532086e-17 1.0
outer loop
vertex -1.0663056461545551e-14 7.450000000000002 15.500000000000002
vertex 2.500000000000001 8.200000000000001 15.50000000000001
vertex -1.2205225631688931e-14 8.200000000000001 15.500000000000002
endloop
endfacet
facet normal -1.3114509478384648e-15 -4.365460424532086e-17 1.0
outer loop
vertex 2.500000000000001 8.200000000000001 15.50000000000001
vertex -1.0663056461545551e-14 7.450000000000002 15.500000000000002
vertex 0.750000000000007 7.450000000000005 15.50000000000003
endloop
endfacet
facet normal -1.3114509478384648e-15 -4.365460424532086e-17 1.0
outer loop
vertex 2.500000000000001 8.200000000000001 15.50000000000001
vertex 0.750000000000007 7.450000000000005 15.50000000000003
vertex 0.7500000000000077 6.450000000000015 15.50000000000003
endloop
endfacet
facet normal -1.3114509478384648e-15 -4.365460424532086e-17 1.0
outer loop
vertex 2.500000000000001 8.200000000000001 15.50000000000001
vertex 0.7500000000000077 6.450000000000015 15.50000000000003
vertex 0.7500000000000079 0.7500000000000004 15.50000000000003
endloop
endfacet
facet normal -1.0 -2.4286128663675294e-16 -1.3114509478384668e-15
outer loop
vertex 0.7500000000000037 2.7500000000000018 15.50000000000003
vertex 0.7500000000000037 3.7499999999999996 0.500000000000004
vertex 0.7500000000000003 2.7500000000000013 0.500000000000004
endloop
endfacet
facet normal -1.0 -2.4286128663675294e-16 -1.3114509478384668e-15
outer loop
vertex 0.7500000000000037 3.7499999999999996 0.500000000000004
vertex 0.7500000000000037 2.7500000000000018 15.50000000000003
vertex 0.7500000000000063 3.7499999999999982 15.50000000000003
endloop
endfacet
facet normal 2.4286128663675294e-16 -1.0 -4.3654604245320507e-17
outer loop
vertex 0.7500000000000037 3.7499999999999996 0.500000000000004
vertex -1.2139132667254216e-14 3.7500000000000044 15.500000000000002
vertex -1.5670710695106813e-17 3.7500000000000036 0.49999999999999906
endloop
endfacet
facet normal 2.4286128663675294e-16 -1.0 -4.3654604245320507e-17
outer loop
vertex -1.2139132667254216e-14 3.7500000000000044 15.500000000000002
vertex 0.7500000000000037 3.7499999999999996 0.500000000000004
vertex 0.7500000000000063 3.7499999999999982 15.50000000000003
endloop
endfacet
facet normal 2.4286128663675294e-16 -1.0 -4.3654604245320507e-17
outer loop
vertex 0.7500000000000038 1.7500000000000053 0.5000000000000034
vertex -9.374243655068583e-15 1.750000000000003 15.500000000000002
vertex 1.91204075198412e-15 1.7500000000000038 0.4999999999999984
endloop
endfacet
facet normal 2.4286128663675294e-16 -1.0 -4.3654604245320507e-17
outer loop
vertex -9.374243655068583e-15 1.750000000000003 15.500000000000002
vertex 0.7500000000000038 1.7500000000000053 0.5000000000000034
vertex 0.750000000000007 1.7500000000000049 15.50000000000003
endloop
endfacet
facet normal -1.0 -2.4286128663675294e-16 -1.3114509478384668e-15
outer loop
vertex 0.7500000000000046 5.700000000000003 15.50000000000003
vertex 0.7500000000000019 4.700000000000002 0.500000000000004
vertex 0.750000000000004 4.699999999999999 15.50000000000003
endloop
endfacet
facet normal -1.0 -2.4286128663675294e-16 -1.3114509478384668e-15
outer loop
vertex 0.7500000000000019 4.700000000000002 0.500000000000004
vertex 0.7500000000000046 5.700000000000003 15.50000000000003
vertex 0.7500000000000004 5.700000000000001 0.5000000000000043
endloop
endfacet
facet normal 2.4286128663675294e-16 -1.0 -4.3654604245320507e-17
outer loop
vertex 0.7500000000000004 5.700000000000001 0.5000000000000043
vertex -1.4143952588440611e-14 5.6999999999999975 15.500000000000002
vertex -1.9984596437365976e-15 5.699999999999998 0.49999999999999906
endloop
endfacet
facet normal 2.4286128663675294e-16 -1.0 -4.3654604245320507e-17
outer loop
vertex -1.4143952588440611e-14 5.6999999999999975 15.500000000000002
vertex 0.7500000000000004 5.700000000000001 0.5000000000000043
vertex 0.7500000000000046 5.700000000000003 15.50000000000003
endloop
endfacet
facet normal 2.4286128663675294e-16 -1.0 -4.3654604245320507e-17
outer loop
vertex 0.7500000000000028 7.450000000000007 0.5000000000000048
vertex -1.0663056461545551e-14 7.450000000000002 15.500000000000002
vertex 1.2621266017094092e-15 7.45000000000001 0.5000000000000001
endloop
endfacet
facet normal 2.4286128663675294e-16 -1.0 -4.3654604245320507e-17
outer loop
vertex -1.0663056461545551e-14 7.450000000000002 15.500000000000002
vertex 0.7500000000000028 7.450000000000007 0.5000000000000048
vertex 0.750000000000007 7.450000000000005 15.50000000000003
endloop
endfacet
facet normal -1.0 -3.055160172731123e-16 -6.547098072002435e-16
outer loop
vertex -1.1918822785805161e-14 2.75 15.500000000000002
vertex 1.91204075198412e-15 1.7500000000000038 0.4999999999999984
vertex -9.374243655068583e-15 1.750000000000003 15.500000000000002
endloop
endfacet
facet normal -1.0 -3.055160172731123e-16 -6.547098072002435e-16
outer loop
vertex 1.91204075198412e-15 1.7500000000000038 0.4999999999999984
vertex -1.1918822785805161e-14 2.75 15.500000000000002
vertex -5.66445414317743e-16 2.7499999999999987 0.49999999999999906
endloop
endfacet
facet normal -1.0 -3.055160172731123e-16 -6.547098072002435e-16
outer loop
vertex -9.275104208416507e-15 4.700000000000004 15.500000000000002
vertex 3.641473321359198e-15 4.700000000000004 0.49999999999999906
vertex -1.2139132667254216e-14 3.7500000000000044 15.500000000000002
endloop
endfacet
facet normal -1.0 -3.055160172731123e-16 -6.547098072002435e-16
outer loop
vertex -1.2557721442007418e-14 6.450000000000012 15.500000000000002
vertex -1.9984596437365976e-15 5.699999999999998 0.49999999999999906
vertex -1.4143952588440611e-14 5.6999999999999975 15.500000000000002
endloop
endfacet
facet normal -1.0 -3.055160172731123e-16 -6.547098072002435e-16
outer loop
vertex -1.9984596437365976e-15 5.699999999999998 0.49999999999999906
vertex -1.2557721442007418e-14 6.450000000000012 15.500000000000002
vertex -1.5670710695106813e-17 6.450000000000009 0.5000000000000001
endloop
endfacet
facet normal -1.0 -3.055160172731123e-16 -6.547098072002435e-16
outer loop
vertex -1.2205225631688931e-14 8.200000000000001 15.500000000000002
vertex 1.2621266017094092e-15 7.45000000000001 0.5000000000000001
vertex -1.0663056461545551e-14 7.450000000000002 15.500000000000002
endloop
endfacet
facet normal -1.0 -3.055160172731123e-16 -6.547098072002435e-16
outer loop
vertex -9.748770453531975e-15 0.7500000000000004 15.500000000000002
vertex -8.66570461443766e-17 0.0 0.0
vertex -9.868415782482393e-15 -1.0291421761209566e-15 15.500000000000002
endloop
endfacet
facet normal -1.0 -3.055160172731123e-16 -6.547098072002435e-16
outer loop
vertex -8.66570461443766e-17 0.0 0.0
vertex -9.748770453531975e-15 0.7500000000000004 15.500000000000002
vertex 1.3777892894701627e-15 0.7500000000000012 0.4999999999999984
endloop
endfacet
facet normal -1.0 -3.055160172731123e-16 -6.547098072002435e-16
outer loop
vertex -8.66570461443766e-17 0.0 0.0
vertex 1.3777892894701627e-15 0.7500000000000012 0.4999999999999984
vertex -5.0671854727395674e-15 8.200000000000006 3.579677548116278e-16
endloop
endfacet
facet normal -1.0 -3.055160172731123e-16 -6.547098072002435e-16
outer loop
vertex -5.0671854727395674e-15 8.200000000000006 3.579677548116278e-16
vertex 1.3777892894701627e-15 0.7500000000000012 0.4999999999999984
vertex 1.91204075198412e-15 1.7500000000000038 0.4999999999999984
endloop
endfacet
facet normal -1.0 -3.055160172731123e-16 -6.547098072002435e-16
outer loop
vertex -5.0671854727395674e-15 8.200000000000006 3.579677548116278e-16
vertex 1.91204075198412e-15 1.7500000000000038 0.4999999999999984
vertex -5.66445414317743e-16 2.7499999999999987 0.49999999999999906
endloop
endfacet
facet normal -1.0 -3.055160172731123e-16 -6.547098072002435e-16
outer loop
vertex -5.0671854727395674e-15 8.200000000000006 3.579677548116278e-16
vertex -5.66445414317743e-16 2.7499999999999987 0.49999999999999906
vertex -1.5670710695106813e-17 3.7500000000000036 0.49999999999999906
endloop
endfacet
facet normal -1.0 -3.055160172731123e-16 -6.547098072002435e-16
outer loop
vertex -5.0671854727395674e-15 8.200000000000006 3.579677548116278e-16
vertex -1.5670710695106813e-17 3.7500000000000036 0.49999999999999906
vertex 3.641473321359198e-15 4.700000000000004 0.49999999999999906
endloop
endfacet
facet normal -1.0 -3.055160172731123e-16 -6.547098072002435e-16
outer loop
vertex 3.641473321359198e-15 4.700000000000004 0.49999999999999906
vertex -1.5670710695106813e-17 3.7500000000000036 0.49999999999999906
vertex -1.2139132667254216e-14 3.7500000000000044 15.500000000000002
endloop
endfacet
facet normal -1.0 -3.055160172731123e-16 -6.547098072002435e-16
outer loop
vertex -5.0671854727395674e-15 8.200000000000006 3.579677548116278e-16
vertex 3.641473321359198e-15 4.700000000000004 0.49999999999999906
vertex -1.9984596437365976e-15 5.699999999999998 0.49999999999999906
endloop
endfacet
facet normal -1.0 -3.055160172731123e-16 -6.547098072002435e-16
outer loop
vertex -5.0671854727395674e-15 8.200000000000006 3.579677548116278e-16
vertex -1.9984596437365976e-15 5.699999999999998 0.49999999999999906
vertex -1.5670710695106813e-17 6.450000000000009 0.5000000000000001
endloop
endfacet
facet normal -1.0 -3.055160172731123e-16 -6.547098072002435e-16
outer loop
vertex -5.0671854727395674e-15 8.200000000000006 3.579677548116278e-16
vertex -1.5670710695106813e-17 6.450000000000009 0.5000000000000001
vertex 1.2621266017094092e-15 7.45000000000001 0.5000000000000001
endloop
endfacet
facet normal -1.0 -3.055160172731123e-16 -6.547098072002435e-16
outer loop
vertex -5.0671854727395674e-15 8.200000000000006 3.579677548116278e-16
vertex 1.2621266017094092e-15 7.45000000000001 0.5000000000000001
vertex -1.2205225631688931e-14 8.200000000000001 15.500000000000002
endloop
endfacet
facet normal -1.3114509478384668e-15 -7.100571746079854e-17 1.0
outer loop
vertex 2.500000000000004 -1.1534514420512511e-15 1.999999999999999
vertex 5.500000000000002 1.000000000000004 1.9999999999999947
vertex 2.5000000000000018 1.0000000000000002 1.999999999999999
endloop
endfacet
facet normal -1.3114509478384668e-15 -7.100571746079854e-17 1.0
outer loop
vertex 5.500000000000002 1.000000000000004 1.9999999999999947
vertex 2.500000000000004 -1.1534514420512511e-15 1.999999999999999
vertex 10.000000000000023 -4.975827885192347e-15 2.000000000000001
endloop
endfacet
facet normal -1.3114509478384668e-15 -7.100571746079854e-17 1.0
outer loop
vertex 2.500000000000001 7.200000000000002 1.9999999999999991
vertex 10.00000000000003 8.200000000000008 2.000000000000002
vertex 2.4999999999999964 8.2 1.9999999999999991
endloop
endfacet
facet normal -1.3114509478384668e-15 -7.100571746079854e-17 1.0
outer loop
vertex 10.00000000000003 8.200000000000008 2.000000000000002
vertex 2.500000000000001 7.200000000000002 1.9999999999999991
vertex 5.500000000000001 7.199999999999992 1.9999999999999947
endloop
endfacet
facet normal -1.3114509478384668e-15 -7.100571746079854e-17 1.0
outer loop
vertex 10.00000000000003 8.200000000000008 2.000000000000002
vertex 5.500000000000001 7.199999999999992 1.9999999999999947
vertex 5.500000000000002 1.000000000000004 1.9999999999999947
endloop
endfacet
facet normal -1.3114509478384668e-15 -7.100571746079854e-17 1.0
outer loop
vertex 10.00000000000003 8.200000000000008 2.000000000000002
vertex 5.500000000000002 1.000000000000004 1.9999999999999947
vertex 10.000000000000023 -4.975827885192347e-15 2.000000000000001
endloop
endfacet
facet normal 5.095527124416135e-16 2.888063272886668e-17 -1.0
outer loop
vertex 10.000000000000016 8.200000000000001 5.287437154777308e-15
vertex -8.66570461443766e-17 0.0 0.0
vertex -5.0671854727395674e-15 8.200000000000006 3.579677548116278e-16
endloop
endfacet
facet normal 5.095527124416135e-16 2.888063272886668e-17 -1.0
outer loop
vertex -8.66570461443766e-17 0.0 0.0
vertex 10.000000000000016 8.200000000000001 5.287437154777308e-15
vertex 10.000000000000016 -4.623332074873859e-15 5.287437154777308e-15
endloop
endfacet
facet normal 1.0 2.4286128663675294e-16 1.3114509478384668e-15
outer loop
vertex 10.000000000000016 -4.623332074873859e-15 5.287437154777308e-15
vertex 10.00000000000003 8.200000000000008 2.000000000000002
vertex 10.000000000000023 -4.975827885192347e-15 2.000000000000001
endloop
endfacet
facet normal 1.0 2.4286128663675294e-16 1.3114509478384668e-15
outer loop
vertex 10.00000000000003 8.200000000000008 2.000000000000002
vertex 10.000000000000016 -4.623332074873859e-15 5.287437154777308e-15
vertex 10.000000000000016 8.200000000000001 5.287437154777308e-15
endloop
endfacet
facet normal -2.4286128663675294e-16 1.0 4.3654604245320507e-17
outer loop
vertex -1.2557721442007418e-14 6.450000000000012 15.500000000000002
vertex 0.7500000000000064 6.450000000000012 0.5000000000000048
vertex -1.5670710695106813e-17 6.450000000000009 0.5000000000000001
endloop
endfacet
facet normal -2.4286128663675294e-16 1.0 4.3654604245320507e-17
outer loop
vertex 0.7500000000000064 6.450000000000012 0.5000000000000048
vertex -1.2557721442007418e-14 6.450000000000012 15.500000000000002
vertex 0.7500000000000077 6.450000000000015 15.50000000000003
endloop
endfacet
facet normal -1.0 -2.4286128663675294e-16 -1.3114509478384668e-15
outer loop
vertex 0.7500000000000077 6.450000000000015 15.50000000000003
vertex 0.7500000000000028 7.450000000000007 0.5000000000000048
vertex 0.7500000000000064 6.450000000000012 0.5000000000000048
endloop
endfacet
facet normal -1.0 -2.4286128663675294e-16 -1.3114509478384668e-15
outer loop
vertex 0.7500000000000028 7.450000000000007 0.5000000000000048
vertex 0.7500000000000077 6.450000000000015 15.50000000000003
vertex 0.750000000000007 7.450000000000005 15.50000000000003
endloop
endfacet
facet normal -2.4286128663675294e-16 1.0 4.3654604245320507e-17
outer loop
vertex -9.275104208416507e-15 4.700000000000004 15.500000000000002
vertex 0.7500000000000019 4.700000000000002 0.500000000000004
vertex 3.641473321359198e-15 4.700000000000004 0.49999999999999906
endloop
endfacet
facet normal -2.4286128663675294e-16 1.0 4.3654604245320507e-17
outer loop
vertex 0.7500000000000019 4.700000000000002 0.500000000000004
vertex -9.275104208416507e-15 4.700000000000004 15.500000000000002
vertex 0.750000000000004 4.699999999999999 15.50000000000003
endloop
endfacet
facet normal -2.4286128663675294e-16 1.0 4.3654604245320507e-17
outer loop
vertex -1.1918822785805161e-14 2.75 15.500000000000002
vertex 0.7500000000000003 2.7500000000000013 0.500000000000004
vertex -5.66445414317743e-16 2.7499999999999987 0.49999999999999906
endloop
endfacet
facet normal -2.4286128663675294e-16 1.0 4.3654604245320507e-17
outer loop
vertex 0.7500000000000003 2.7500000000000013 0.500000000000004
vertex -1.1918822785805161e-14 2.75 15.500000000000002
vertex 0.7500000000000037 2.7500000000000018 15.50000000000003
endloop
endfacet
facet normal -2.4286128663675294e-16 1.0 4.3654604245320507e-17
outer loop
vertex -9.748770453531975e-15 0.7500000000000004 15.500000000000002
vertex 0.7500000000000049 0.7500000000000008 0.5000000000000034
vertex 1.3777892894701627e-15 0.7500000000000012 0.4999999999999984
endloop
endfacet
facet normal -2.4286128663675294e-16 1.0 4.3654604245320507e-17
outer loop
vertex 0.7500000000000049 0.7500000000000008 0.5000000000000034
vertex -9.748770453531975e-15 0.7500000000000004 15.500000000000002
vertex 0.7500000000000079 0.7500000000000004 15.50000000000003
endloop
endfacet
facet normal -1.0 -9.693634783758352e-16 3.7207891089173583e-16
outer loop
vertex 0.750000000000007 1.7500000000000049 15.50000000000003
vertex 0.7500000000000049 0.7500000000000008 0.5000000000000034
vertex 0.7500000000000079 0.7500000000000004 15.50000000000003
endloop
endfacet
facet normal -1.0 -9.693634783758352e-16 3.7207891089173583e-16
outer loop
vertex 0.7500000000000049 0.7500000000000008 0.5000000000000034
vertex 0.750000000000007 1.7500000000000049 15.50000000000003
vertex 0.7500000000000038 1.7500000000000053 0.5000000000000034
endloop
endfacet
facet normal -1.3114509478384648e-15 -4.365460424532086e-17 1.0
outer loop
vertex 0.7500000000000049 0.7500000000000008 0.5000000000000034
vertex 1.91204075198412e-15 1.7500000000000038 0.4999999999999984
vertex 1.3777892894701627e-15 0.7500000000000012 0.4999999999999984
endloop
endfacet
facet normal -1.3114509478384648e-15 -4.365460424532086e-17 1.0
outer loop
vertex 1.91204075198412e-15 1.7500000000000038 0.4999999999999984
vertex 0.7500000000000049 0.7500000000000008 0.5000000000000034
vertex 0.7500000000000038 1.7500000000000053 0.5000000000000034
endloop
endfacet
facet normal -1.3114509478384648e-15 -4.365460424532086e-17 1.0
outer loop
vertex 0.7500000000000003 2.7500000000000013 0.500000000000004
vertex -1.5670710695106813e-17 3.7500000000000036 0.49999999999999906
vertex -5.66445414317743e-16 2.7499999999999987 0.49999999999999906
endloop
endfacet
facet normal -1.3114509478384648e-15 -4.365460424532086e-17 1.0
outer loop
vertex -1.5670710695106813e-17 3.7500000000000036 0.49999999999999906
vertex 0.7500000000000003 2.7500000000000013 0.500000000000004
vertex 0.7500000000000037 3.7499999999999996 0.500000000000004
endloop
endfacet
facet normal -1.3114509478384648e-15 -4.365460424532086e-17 1.0
outer loop
vertex 3.641473321359198e-15 4.700000000000004 0.49999999999999906
vertex 0.7500000000000004 5.700000000000001 0.5000000000000043
vertex -1.9984596437365976e-15 5.699999999999998 0.49999999999999906
endloop
endfacet
facet normal -1.3114509478384648e-15 -4.365460424532086e-17 1.0
outer loop
vertex 0.7500000000000004 5.700000000000001 0.5000000000000043
vertex 3.641473321359198e-15 4.700000000000004 0.49999999999999906
vertex 0.7500000000000019 4.700000000000002 0.500000000000004
endloop
endfacet
facet normal -1.3114509478384648e-15 -4.365460424532086e-17 1.0
outer loop
vertex 0.7500000000000064 6.450000000000012 0.5000000000000048
vertex 1.2621266017094092e-15 7.45000000000001 0.5000000000000001
vertex -1.5670710695106813e-17 6.450000000000009 0.5000000000000001
endloop
endfacet
facet normal -1.3114509478384648e-15 -4.365460424532086e-17 1.0
outer loop
vertex 1.2621266017094092e-15 7.45000000000001 0.5000000000000001
vertex 0.7500000000000064 6.450000000000012 0.5000000000000048
vertex 0.7500000000000028 7.450000000000007 0.5000000000000048
endloop
endfacet
endsolid Vernier_Calipers-Chinese-USB_Insert-Channeled_and_Tabbed-mk2
