solid 9_Pin_Jack_Case-15mm_Deep-insert
facet normal 1.0 -5.184173641634374e-16 1.8329782136553138e-13
outer loop
vertex 4.758759164897603 -18.153420904230998 -0.05000000000006001
vertex 4.758759164897601 -3.1946090219841388 -1.4981071938535706e-14
vertex 4.758759164897548 -18.153420904231044 -3.7540803798918886e-14
endloop
endfacet
facet normal 1.0 -5.184173641634374e-16 1.8329782136553138e-13
outer loop
vertex 4.758759164897601 -3.1946090219841388 -1.4981071938535706e-14
vertex 4.758759164897603 -18.153420904230998 -0.05000000000006001
vertex 4.7587591648975645 -3.1946090219842587 -0.05000000000003745
endloop
endfacet
facet normal 0.9480267192060676 0.31819072844974533 -1.4277473422234168e-14
outer loop
vertex 4.56418061767406 -2.614876034002537 -6.010053565930207e-14
vertex 4.758759164897791 -3.1946090219841334 12.999999999999984
vertex 4.758759164897601 -3.1946090219841388 -1.4981071938535706e-14
endloop
endfacet
facet normal 0.9480267192060676 0.31819072844974533 -1.4277473422234168e-14
outer loop
vertex 4.758759164897791 -3.1946090219841334 12.999999999999984
vertex 4.56418061767406 -2.614876034002537 -6.010053565930207e-14
vertex 4.564180617674256 -2.614876034002527 12.99999999999994
endloop
endfacet
facet normal 1.0 -3.676050400429526e-15 -1.4533673410054544e-14
outer loop
vertex 4.758759164897601 -3.1946090219841388 -1.4981071938535706e-14
vertex 4.758759164897735 -18.153420904231027 12.999999999999963
vertex 4.758759164897548 -18.153420904231044 -3.7540803798918886e-14
endloop
endfacet
facet normal 1.0 -3.676050400429526e-15 -1.4533673410054544e-14
outer loop
vertex 4.758759164897735 -18.153420904231027 12.999999999999963
vertex 4.758759164897601 -3.1946090219841388 -1.4981071938535706e-14
vertex 4.758759164897791 -3.1946090219841334 12.999999999999984
endloop
endfacet
facet normal 0.9871839904449643 -0.15958624317013187 -1.420882944285632e-14
outer loop
vertex 4.758759164897548 -18.153420904231044 -3.7540803798918886e-14
vertex 4.708787174416673 -18.462542467553895 12.999999999999963
vertex 4.708787174416483 -18.4625424675539 -3.7540803798918886e-14
endloop
endfacet
facet normal 0.9871839904449643 -0.15958624317013187 -1.420882944285632e-14
outer loop
vertex 4.708787174416673 -18.462542467553895 12.999999999999963
vertex 4.758759164897548 -18.153420904231044 -3.7540803798918886e-14
vertex 4.758759164897735 -18.153420904231027 12.999999999999963
endloop
endfacet
facet normal 0.9163902278332681 -0.4002860856083946 -1.3294131271038043e-14
outer loop
vertex 4.708787174416483 -18.4625424675539 -3.7540803798918886e-14
vertex 4.466236335972802 -19.017823368125047 12.99999999999995
vertex 4.46623633597261 -19.01782336812505 -4.882066972911047e-14
endloop
endfacet
facet normal 0.9163902278332681 -0.4002860856083946 -1.3294131271038043e-14
outer loop
vertex 4.466236335972802 -19.017823368125047 12.99999999999995
vertex 4.708787174416483 -18.4625424675539 -3.7540803798918886e-14
vertex 4.708787174416673 -18.462542467553895 12.999999999999963
endloop
endfacet
facet normal 0.7509644762606692 -0.6603426045580725 -1.0852549243369368e-14
outer loop
vertex 4.46623633597261 -19.01782336812505 -4.882066972911047e-14
vertex 4.171835938127837 -19.352625695057345 12.99999999999994
vertex 4.171835938127648 -19.352625695057345 -6.010053565930207e-14
endloop
endfacet
facet normal 0.7509644762606692 -0.6603426045580725 -1.0852549243369368e-14
outer loop
vertex 4.171835938127837 -19.352625695057345 12.99999999999994
vertex 4.46623633597261 -19.01782336812505 -4.882066972911047e-14
vertex 4.466236335972802 -19.017823368125047 12.99999999999995
endloop
endfacet
facet normal 0.5088554071617949 -0.8608520050520901 -6.9393350213534366e-15
outer loop
vertex 4.171835938127837 -19.352625695057345 12.99999999999994
vertex 3.6601541779535034 -19.65508422321623 -4.882066972911047e-14
vertex 4.171835938127648 -19.352625695057345 -6.010053565930207e-14
endloop
endfacet
facet normal 0.5088554071617949 -0.8608520050520901 -6.9393350213534366e-15
outer loop
vertex 3.6601541779535034 -19.65508422321623 -4.882066972911047e-14
vertex 4.171835938127837 -19.352625695057345 12.99999999999994
vertex 3.660154177953688 -19.65508422321622 12.99999999999995
endloop
endfacet
facet normal 0.1827765873304042 -0.9831544736834853 -1.9372734996260576e-15
outer loop
vertex 3.660154177953688 -19.65508422321622 12.99999999999995
vertex 3.0589400253044454 -19.766854930686268 -4.882066972911047e-14
vertex 3.6601541779535034 -19.65508422321623 -4.882066972911047e-14
endloop
endfacet
facet normal 0.1827765873304042 -0.9831544736834853 -1.9372734996260576e-15
outer loop
vertex 3.0589400253044454 -19.766854930686268 -4.882066972911047e-14
vertex 3.660154177953688 -19.65508422321622 12.99999999999995
vertex 3.0589400253046275 -19.76685493068626 12.99999999999995
endloop
endfacet
facet normal -0.13679957740995713 -0.9905987460220494 2.187585720203914e-15
outer loop
vertex 3.0589400253046275 -19.76685493068626 12.99999999999995
vertex 7.049916206369744e-15 -19.34442182700582 1.9387269567516795e-15
vertex 3.0589400253044454 -19.766854930686268 -4.882066972911047e-14
endloop
endfacet
facet normal -0.13679957740995713 -0.9905987460220494 2.187585720203914e-15
outer loop
vertex 7.049916206369744e-15 -19.34442182700582 1.9387269567516795e-15
vertex 3.0589400253046275 -19.76685493068626 12.99999999999995
vertex 2.0021762026090072e-13 -19.34442182700582 13.000000000000002
endloop
endfacet
facet normal -0.14230192391185437 0.989823298599798 1.4232012965366915e-15
outer loop
vertex 0.0 -2.15 0.0
vertex 2.765387357935952 -1.7524341496583684 12.999999999999963
vertex 2.7653873579357673 -1.7524341496583684 -3.7540803798918886e-14
endloop
endfacet
facet normal -0.14230192391185437 0.989823298599798 1.4232012965366915e-15
outer loop
vertex 2.765387357935952 -1.7524341496583684 12.999999999999963
vertex 0.0 -2.15 0.0
vertex 1.9316770405453097e-13 -2.149999999999983 13.000000000000002
endloop
endfacet
facet normal -0.0994991488886186 0.9950376472126271 1.0036230767555728e-15
outer loop
vertex 2.7653873579357673 -1.7524341496583684 -3.7540803798918886e-14
vertex 2.923897560942527 -1.73658386466312 12.99999999999994
vertex 2.9238975609423368 -1.7365838646631313 -6.010053565930207e-14
endloop
endfacet
facet normal -0.0994991488886186 0.9950376472126271 1.0036230767555728e-15
outer loop
vertex 2.923897560942527 -1.73658386466312 12.99999999999994
vertex 2.7653873579357673 -1.7524341496583684 -3.7540803798918886e-14
vertex 2.765387357935952 -1.7524341496583684 12.999999999999963
endloop
endfacet
facet normal 0.06108199921353743 0.9981327513773293 -1.320743022369169e-15
outer loop
vertex 2.923897560942527 -1.73658386466312 12.99999999999994
vertex 3.3895980363124396 -1.7650829956965957 -6.010053565930207e-14
vertex 2.9238975609423368 -1.7365838646631313 -6.010053565930207e-14
endloop
endfacet
facet normal 0.06108199921353743 0.9981327513773293 -1.320743022369169e-15
outer loop
vertex 3.3895980363124396 -1.7650829956965957 -6.010053565930207e-14
vertex 2.923897560942527 -1.73658386466312 12.99999999999994
vertex 3.389598036312627 -1.7650829956965957 12.99999999999994
endloop
endfacet
facet normal 0.3511636245115587 0.9363141079893569 -5.249642837872014e-15
outer loop
vertex 3.3895980363124396 -1.7650829956965957 -6.010053565930207e-14
vertex 3.9524577548302466 -1.9761829429895477 12.999999999999917
vertex 3.9524577548300606 -1.9761829429895532 -8.266026751968524e-14
endloop
endfacet
facet normal 0.3511636245115587 0.9363141079893569 -5.249642837872014e-15
outer loop
vertex 3.9524577548302466 -1.9761829429895477 12.999999999999917
vertex 3.3895980363124396 -1.7650829956965957 -6.010053565930207e-14
vertex 3.389598036312627 -1.7650829956965957 12.99999999999994
endloop
endfacet
facet normal 0.586162802953608 0.8101932907853346 -8.67992363018527e-15
outer loop
vertex 3.9524577548302466 -1.9761829429895477 12.999999999999917
vertex 4.193274783729803 -2.1504104838298446 -7.138040158949366e-14
vertex 3.9524577548300606 -1.9761829429895532 -8.266026751968524e-14
endloop
endfacet
facet normal 0.586162802953608 0.8101932907853346 -8.67992363018527e-15
outer loop
vertex 4.193274783729803 -2.1504104838298446 -7.138040158949366e-14
vertex 3.9524577548302466 -1.9761829429895477 12.999999999999917
vertex 4.1932747837299855 -2.150410483829839 12.999999999999929
endloop
endfacet
facet normal 0.7814155814497126 0.6240109687077685 -1.177111721865346e-14
outer loop
vertex 4.193274783729803 -2.1504104838298446 -7.138040158949366e-14
vertex 4.564180617674256 -2.614876034002527 12.99999999999994
vertex 4.56418061767406 -2.614876034002537 -6.010053565930207e-14
endloop
endfacet
facet normal 0.7814155814497126 0.6240109687077685 -1.177111721865346e-14
outer loop
vertex 4.564180617674256 -2.614876034002527 12.99999999999994
vertex 4.193274783729803 -2.1504104838298446 -7.138040158949366e-14
vertex 4.1932747837299855 -2.150410483829839 12.999999999999929
endloop
endfacet
facet normal -5.133219477543196e-15 -5.650977362752851e-16 -1.0
outer loop
vertex 2.7653873579357673 -1.7524341496583684 -3.7540803798918886e-14
vertex 6.3449245857327695e-15 -8.566098400228913 -1.4981071938535706e-14
vertex 0.0 -2.15 0.0
endloop
endfacet
facet normal -5.133219477543196e-15 -5.650977362752851e-16 -1.0
outer loop
vertex 6.3449245857327695e-15 -8.566098400228913 -1.4981071938535706e-14
vertex 2.7653873579357673 -1.7524341496583684 -3.7540803798918886e-14
vertex 0.38270792919687197 -8.62953257428796 -4.600070324656258e-14
endloop
endfacet
facet normal -5.133219477543196e-15 -5.650977362752851e-16 -1.0
outer loop
vertex 0.38270792919687197 -8.62953257428796 -4.600070324656258e-14
vertex 2.7653873579357673 -1.7524341496583684 -3.7540803798918886e-14
vertex 0.8937950495091244 -8.861493112760545 -4.600070324656258e-14
endloop
endfacet
facet normal -5.133219477543196e-15 -5.650977362752851e-16 -1.0
outer loop
vertex 0.8937950495091244 -8.861493112760545 -4.600070324656258e-14
vertex 2.7653873579357673 -1.7524341496583684 -3.7540803798918886e-14
vertex 1.3274314934334948 -9.217828867994552 -6.856043510694575e-14
endloop
endfacet
facet normal -5.133219477543196e-15 -5.650977362752851e-16 -1.0
outer loop
vertex 1.3274314934334948 -9.217828867994552 -6.856043510694575e-14
vertex 2.7653873579357673 -1.7524341496583684 -3.7540803798918886e-14
vertex 1.654065653934644 -9.674256147143456 -6.856043510694575e-14
endloop
endfacet
facet normal -5.133219477543196e-15 -5.650977362752851e-16 -1.0
outer loop
vertex 1.654065653934644 -9.674256147143456 -6.856043510694575e-14
vertex 2.7653873579357673 -1.7524341496583684 -3.7540803798918886e-14
vertex 1.8514379527628928 -10.199670185415007 -6.856043510694575e-14
endloop
endfacet
facet normal -5.133219477543196e-15 -5.650977362752851e-16 -1.0
outer loop
vertex 1.8514379527628928 -10.199670185415007 -6.856043510694575e-14
vertex 2.7653873579357673 -1.7524341496583684 -3.7540803798918886e-14
vertex 1.8990811892472994 -10.68655889156058 -6.856043510694575e-14
endloop
endfacet
facet normal -5.133219477543196e-15 -5.650977362752851e-16 -1.0
outer loop
vertex 1.8990811892472994 -10.68655889156058 -6.856043510694575e-14
vertex 2.7653873579357673 -1.7524341496583684 -3.7540803798918886e-14
vertex 1.9060977939262376 -10.758264884388746 -6.856043510694575e-14
endloop
endfacet
facet normal -5.133219477543196e-15 -5.650977362752851e-16 -1.0
outer loop
vertex 0.24418258845200427 -12.780702962017019 -2.3440971386179398e-14
vertex 7.049916206369744e-15 -19.34442182700582 1.9387269567516795e-15
vertex 5.639932965095795e-15 -12.804596818375062 -1.1103618025032346e-14
endloop
endfacet
facet normal -5.133219477543196e-15 -5.650977362752851e-16 -1.0
outer loop
vertex 7.049916206369744e-15 -19.34442182700582 1.9387269567516795e-15
vertex 0.24418258845200427 -12.780702962017019 -2.3440971386179398e-14
vertex 3.0589400253044454 -19.766854930686268 -4.882066972911047e-14
endloop
endfacet
facet normal -5.133219477543196e-15 -5.650977362752851e-16 -1.0
outer loop
vertex 3.0589400253044454 -19.766854930686268 -4.882066972911047e-14
vertex 0.24418258845200427 -12.780702962017019 -2.3440971386179398e-14
vertex 0.7695966267235552 -12.583330663188768 -4.600070324656258e-14
endloop
endfacet
facet normal -5.133219477543196e-15 -5.650977362752851e-16 -1.0
outer loop
vertex 3.0589400253044454 -19.766854930686268 -4.882066972911047e-14
vertex 0.7695966267235552 -12.583330663188768 -4.600070324656258e-14
vertex 1.2260239058724614 -12.256696502687625 -4.600070324656258e-14
endloop
endfacet
facet normal -5.133219477543196e-15 -5.650977362752851e-16 -1.0
outer loop
vertex 3.0589400253044454 -19.766854930686268 -4.882066972911047e-14
vertex 1.2260239058724614 -12.256696502687625 -4.600070324656258e-14
vertex 1.5823596611064676 -11.82306005876325 -6.856043510694575e-14
endloop
endfacet
facet normal -5.133219477543196e-15 -5.650977362752851e-16 -1.0
outer loop
vertex 3.0589400253044454 -19.766854930686268 -4.882066972911047e-14
vertex 1.5823596611064676 -11.82306005876325 -6.856043510694575e-14
vertex 1.814320199579059 -11.311972938450998 -6.856043510694575e-14
endloop
endfacet
facet normal -5.133219477543196e-15 -5.650977362752851e-16 -1.0
outer loop
vertex 3.0589400253044454 -19.766854930686268 -4.882066972911047e-14
vertex 1.814320199579059 -11.311972938450998 -6.856043510694575e-14
vertex 1.9060977939262376 -10.758264884388746 -6.856043510694575e-14
endloop
endfacet
facet normal -5.133219477543196e-15 -5.650977362752851e-16 -1.0
outer loop
vertex 3.0589400253044454 -19.766854930686268 -4.882066972911047e-14
vertex 1.9060977939262376 -10.758264884388746 -6.856043510694575e-14
vertex 2.7653873579357673 -1.7524341496583684 -3.7540803798918886e-14
endloop
endfacet
facet normal -5.133219477543196e-15 -5.650977362752851e-16 -1.0
outer loop
vertex 3.0589400253044454 -19.766854930686268 -4.882066972911047e-14
vertex 2.7653873579357673 -1.7524341496583684 -3.7540803798918886e-14
vertex 2.9238975609423368 -1.7365838646631313 -6.010053565930207e-14
endloop
endfacet
facet normal -5.133219477543196e-15 -5.650977362752851e-16 -1.0
outer loop
vertex 3.0589400253044454 -19.766854930686268 -4.882066972911047e-14
vertex 2.9238975609423368 -1.7365838646631313 -6.010053565930207e-14
vertex 3.3895980363124396 -1.7650829956965957 -6.010053565930207e-14
endloop
endfacet
facet normal -5.133219477543196e-15 -5.650977362752851e-16 -1.0
outer loop
vertex 3.0589400253044454 -19.766854930686268 -4.882066972911047e-14
vertex 3.3895980363124396 -1.7650829956965957 -6.010053565930207e-14
vertex 3.6601541779535034 -19.65508422321623 -4.882066972911047e-14
endloop
endfacet
facet normal -5.133219477543196e-15 -5.650977362752851e-16 -1.0
outer loop
vertex 3.6601541779535034 -19.65508422321623 -4.882066972911047e-14
vertex 3.3895980363124396 -1.7650829956965957 -6.010053565930207e-14
vertex 3.9524577548300606 -1.9761829429895532 -8.266026751968524e-14
endloop
endfacet
facet normal -5.133219477543196e-15 -5.650977362752851e-16 -1.0
outer loop
vertex 3.6601541779535034 -19.65508422321623 -4.882066972911047e-14
vertex 3.9524577548300606 -1.9761829429895532 -8.266026751968524e-14
vertex 4.171835938127648 -19.352625695057345 -6.010053565930207e-14
endloop
endfacet
facet normal -5.133219477543196e-15 -5.650977362752851e-16 -1.0
outer loop
vertex 4.171835938127648 -19.352625695057345 -6.010053565930207e-14
vertex 3.9524577548300606 -1.9761829429895532 -8.266026751968524e-14
vertex 4.193274783729803 -2.1504104838298446 -7.138040158949366e-14
endloop
endfacet
facet normal -5.133219477543196e-15 -5.650977362752851e-16 -1.0
outer loop
vertex 4.171835938127648 -19.352625695057345 -6.010053565930207e-14
vertex 4.193274783729803 -2.1504104838298446 -7.138040158949366e-14
vertex 4.46623633597261 -19.01782336812505 -4.882066972911047e-14
endloop
endfacet
facet normal -5.133219477543196e-15 -5.650977362752851e-16 -1.0
outer loop
vertex 4.46623633597261 -19.01782336812505 -4.882066972911047e-14
vertex 4.193274783729803 -2.1504104838298446 -7.138040158949366e-14
vertex 4.56418061767406 -2.614876034002537 -6.010053565930207e-14
endloop
endfacet
facet normal -5.133219477543196e-15 -5.650977362752851e-16 -1.0
outer loop
vertex 4.46623633597261 -19.01782336812505 -4.882066972911047e-14
vertex 4.56418061767406 -2.614876034002537 -6.010053565930207e-14
vertex 4.708787174416483 -18.4625424675539 -3.7540803798918886e-14
endloop
endfacet
facet normal -5.133219477543196e-15 -5.650977362752851e-16 -1.0
outer loop
vertex 4.708787174416483 -18.4625424675539 -3.7540803798918886e-14
vertex 4.56418061767406 -2.614876034002537 -6.010053565930207e-14
vertex 4.758759164897601 -3.1946090219841388 -1.4981071938535706e-14
endloop
endfacet
facet normal -5.133219477543196e-15 -5.650977362752851e-16 -1.0
outer loop
vertex 4.708787174416483 -18.4625424675539 -3.7540803798918886e-14
vertex 4.758759164897601 -3.1946090219841388 -1.4981071938535706e-14
vertex 4.758759164897548 -18.153420904231044 -3.7540803798918886e-14
endloop
endfacet
facet normal -0.99944367982316 0.03335162457123861 1.643323382419473e-14
outer loop
vertex 1.9060977939264512 -10.75826488438873 12.999999999999968
vertex 1.8990811892472994 -10.68655889156058 -6.856043510694575e-14
vertex 1.9060977939262376 -10.758264884388746 -6.856043510694575e-14
endloop
endfacet
facet normal -0.9952465611528412 -0.097387281066082 1.651630131575001e-14
outer loop
vertex 1.8990811892472994 -10.68655889156058 -6.856043510694575e-14
vertex 1.9060977939264512 -10.75826488438873 12.999999999999968
vertex 1.8990811892475152 -10.686558891560564 12.999999999999979
endloop
endfacet
facet normal -0.9952465611528412 -0.097387281066082 1.651630131575001e-14
outer loop
vertex 1.8990811892472994 -10.68655889156058 -6.856043510694575e-14
vertex 1.8990811892475152 -10.686558891560564 12.999999999999979
vertex 1.8514379527628928 -10.199670185415007 -6.856043510694575e-14
endloop
endfacet
facet normal -0.9740204978867203 -0.22645986332351636 1.6331016031694397e-14
outer loop
vertex 1.8514379527628928 -10.199670185415007 -6.856043510694575e-14
vertex 1.8990811892475152 -10.686558891560564 12.999999999999979
vertex 1.8514379527631057 -10.199670185414991 12.999999999999968
endloop
endfacet
facet normal -0.9567564266384253 0.29089025436764204 1.5497982172332064e-14
outer loop
vertex 1.8143201995792742 -11.311972938450984 12.999999999999973
vertex 1.9060977939262376 -10.758264884388746 -6.856043510694575e-14
vertex 1.814320199579059 -11.311972938450998 -6.856043510694575e-14
endloop
endfacet
facet normal -0.9994436798231597 0.033351624571245055 1.643323382419472e-14
outer loop
vertex 1.9060977939262376 -10.758264884388746 -6.856043510694575e-14
vertex 1.8143201995792742 -11.311972938450984 12.999999999999973
vertex 1.9060977939264512 -10.75826488438873 12.999999999999968
endloop
endfacet
facet normal -0.8488678040930346 0.5286051940477594 1.343315516500631e-14
outer loop
vertex 1.5823596611066841 -11.823060058763238 12.999999999999982
vertex 1.814320199579059 -11.311972938450998 -6.856043510694575e-14
vertex 1.5823596611064676 -11.82306005876325 -6.856043510694575e-14
endloop
endfacet
facet normal -0.9567564266384253 0.290890254367642 1.549798217233206e-14
outer loop
vertex 1.814320199579059 -11.311972938450998 -6.856043510694575e-14
vertex 1.5823596611066841 -11.823060058763238 12.999999999999982
vertex 1.8143201995792742 -11.311972938450984 12.999999999999973
endloop
endfacet
facet normal -0.6831302435190761 0.7302965633149097 1.0307262357893587e-14
outer loop
vertex 1.2260239058726756 -12.256696502687605 12.999999999999991
vertex 1.5823596611064676 -11.82306005876325 -6.856043510694575e-14
vertex 1.2260239058724614 -12.256696502687625 -4.600070324656258e-14
endloop
endfacet
facet normal -0.8488678040930353 0.5286051940477583 1.343315516500632e-14
outer loop
vertex 1.5823596611064676 -11.82306005876325 -6.856043510694575e-14
vertex 1.2260239058726756 -12.256696502687605 12.999999999999991
vertex 1.5823596611066841 -11.823060058763238 12.999999999999982
endloop
endfacet
facet normal -0.4708384857754003 0.8822194286642798 6.616050131910451e-15
outer loop
vertex 0.7695966267237702 -12.583330663188752 13.000000000000002
vertex 1.2260239058724614 -12.256696502687625 -4.600070324656258e-14
vertex 0.7695966267235552 -12.583330663188768 -4.600070324656258e-14
endloop
endfacet
facet normal -0.6831302435190769 0.730296563314909 1.0307262357893599e-14
outer loop
vertex 1.2260239058724614 -12.256696502687625 -4.600070324656258e-14
vertex 0.7695966267237702 -12.583330663188752 13.000000000000002
vertex 1.2260239058726756 -12.256696502687605 12.999999999999991
endloop
endfacet
facet normal -0.22645986332352425 0.9740204978867184 2.4137835765408833e-15
outer loop
vertex 0.24418258845200427 -12.780702962017019 -2.3440971386179398e-14
vertex 0.7695966267237702 -12.583330663188752 13.000000000000002
vertex 0.7695966267235552 -12.583330663188768 -4.600070324656258e-14
endloop
endfacet
facet normal -0.4708384857754003 0.8822194286642798 6.616050131910451e-15
outer loop
vertex 0.7695966267237702 -12.583330663188752 13.000000000000002
vertex 0.24418258845200427 -12.780702962017019 -2.3440971386179398e-14
vertex 0.24418258845222354 -12.780702962017001 13.000000000000016
endloop
endfacet
facet normal -0.09738728106608806 0.9952465611528405 1.3086854056579869e-16
outer loop
vertex 5.639932965095795e-15 -12.804596818375062 -1.1103618025032346e-14
vertex 0.24418258845222354 -12.780702962017001 13.000000000000016
vertex 0.24418258845200427 -12.780702962017019 -2.3440971386179398e-14
endloop
endfacet
facet normal -0.2264598633235227 0.9740204978867187 2.413783576540856e-15
outer loop
vertex 0.24418258845222354 -12.780702962017001 13.000000000000016
vertex 5.639932965095795e-15 -12.804596818375062 -1.1103618025032346e-14
vertex 1.9598767053707888e-13 -12.804596818375042 13.000000000000012
endloop
endfacet
facet normal -0.29089025436764476 -0.9567564266384244 6.069587715558069e-15
outer loop
vertex 0.38270792919708346 -8.629532574287941 12.999999999999996
vertex 6.3449245857327695e-15 -8.566098400228913 -1.4981071938535706e-14
vertex 0.38270792919687197 -8.62953257428796 -4.600070324656258e-14
endloop
endfacet
facet normal -0.16351987466535353 -0.9865400400335644 4.136739041088509e-15
outer loop
vertex 6.3449245857327695e-15 -8.566098400228913 -1.4981071938535706e-14
vertex 0.38270792919708346 -8.629532574287941 12.999999999999996
vertex 1.9739765377835283e-13 -8.56609840022889 13.000000000000002
endloop
endfacet
facet normal -0.5286051940477549 -0.8488678040930374 9.66595735313061e-15
outer loop
vertex 0.8937950495093351 -8.861493112760531 12.999999999999984
vertex 0.38270792919687197 -8.62953257428796 -4.600070324656258e-14
vertex 0.8937950495091244 -8.861493112760545 -4.600070324656258e-14
endloop
endfacet
facet normal -0.2908902543676469 -0.9567564266384238 6.069587715558102e-15
outer loop
vertex 0.38270792919687197 -8.62953257428796 -4.600070324656258e-14
vertex 0.8937950495093351 -8.861493112760531 12.999999999999984
vertex 0.38270792919708346 -8.629532574287941 12.999999999999996
endloop
endfacet
facet normal -0.7302965633149053 -0.6831302435190806 1.2814166432489669e-14
outer loop
vertex 1.3274314934337075 -9.217828867994534 12.999999999999977
vertex 0.8937950495091244 -8.861493112760545 -4.600070324656258e-14
vertex 1.3274314934334948 -9.217828867994552 -6.856043510694575e-14
endloop
endfacet
facet normal -0.5286051940477556 -0.848867804093037 9.665957353130622e-15
outer loop
vertex 0.8937950495091244 -8.861493112760545 -4.600070324656258e-14
vertex 1.3274314934337075 -9.217828867994534 12.999999999999977
vertex 0.8937950495093351 -8.861493112760531 12.999999999999984
endloop
endfacet
facet normal -0.8822194286642787 -0.470838485775402 1.513318551264254e-14
outer loop
vertex 1.654065653934859 -9.67425614714344 12.99999999999997
vertex 1.3274314934334948 -9.217828867994552 -6.856043510694575e-14
vertex 1.654065653934644 -9.674256147143456 -6.856043510694575e-14
endloop
endfacet
facet normal -0.7302965633149062 -0.6831302435190799 1.281416643248968e-14
outer loop
vertex 1.3274314934334948 -9.217828867994552 -6.856043510694575e-14
vertex 1.654065653934859 -9.67425614714344 12.99999999999997
vertex 1.3274314934337075 -9.217828867994534 12.999999999999977
endloop
endfacet
facet normal -0.9740204978867205 -0.22645986332351525 1.6331016031694397e-14
outer loop
vertex 1.8514379527631057 -10.199670185414991 12.999999999999968
vertex 1.654065653934644 -9.674256147143456 -6.856043510694575e-14
vertex 1.8514379527628928 -10.199670185415007 -6.856043510694575e-14
endloop
endfacet
facet normal -0.8822194286642785 -0.4708384857754024 1.5133185512642536e-14
outer loop
vertex 1.654065653934644 -9.674256147143456 -6.856043510694575e-14
vertex 1.8514379527631057 -10.199670185414991 12.999999999999968
vertex 1.654065653934859 -9.67425614714344 12.99999999999997
endloop
endfacet
facet normal 1.2723939830922414e-14 7.703410062542591e-16 1.0
outer loop
vertex 2.0021762026090072e-13 -19.34442182700582 13.000000000000002
vertex 0.24418258845222354 -12.780702962017001 13.000000000000016
vertex 1.9598767053707888e-13 -12.804596818375042 13.000000000000012
endloop
endfacet
facet normal 1.2723939830922414e-14 7.703410062542591e-16 1.0
outer loop
vertex 0.24418258845222354 -12.780702962017001 13.000000000000016
vertex 2.0021762026090072e-13 -19.34442182700582 13.000000000000002
vertex 3.0589400253046275 -19.76685493068626 12.99999999999995
endloop
endfacet
facet normal 1.2723939830922414e-14 7.703410062542591e-16 1.0
outer loop
vertex 0.24418258845222354 -12.780702962017001 13.000000000000016
vertex 3.0589400253046275 -19.76685493068626 12.99999999999995
vertex 0.7695966267237702 -12.583330663188752 13.000000000000002
endloop
endfacet
facet normal 1.2723939830922414e-14 7.703410062542591e-16 1.0
outer loop
vertex 0.7695966267237702 -12.583330663188752 13.000000000000002
vertex 3.0589400253046275 -19.76685493068626 12.99999999999995
vertex 1.2260239058726756 -12.256696502687605 12.999999999999991
endloop
endfacet
facet normal 1.2723939830922414e-14 7.703410062542591e-16 1.0
outer loop
vertex 1.2260239058726756 -12.256696502687605 12.999999999999991
vertex 3.0589400253046275 -19.76685493068626 12.99999999999995
vertex 1.5823596611066841 -11.823060058763238 12.999999999999982
endloop
endfacet
facet normal 1.2723939830922414e-14 7.703410062542591e-16 1.0
outer loop
vertex 1.5823596611066841 -11.823060058763238 12.999999999999982
vertex 3.0589400253046275 -19.76685493068626 12.99999999999995
vertex 1.8143201995792742 -11.311972938450984 12.999999999999973
endloop
endfacet
facet normal 1.2723939830922414e-14 7.703410062542591e-16 1.0
outer loop
vertex 1.8143201995792742 -11.311972938450984 12.999999999999973
vertex 3.0589400253046275 -19.76685493068626 12.99999999999995
vertex 1.9060977939264512 -10.75826488438873 12.999999999999968
endloop
endfacet
facet normal 1.2723939830922414e-14 7.703410062542591e-16 1.0
outer loop
vertex 1.9060977939264512 -10.75826488438873 12.999999999999968
vertex 3.0589400253046275 -19.76685493068626 12.99999999999995
vertex 2.765387357935952 -1.7524341496583684 12.999999999999963
endloop
endfacet
facet normal 1.2723939830922414e-14 7.703410062542591e-16 1.0
outer loop
vertex 2.765387357935952 -1.7524341496583684 12.999999999999963
vertex 3.0589400253046275 -19.76685493068626 12.99999999999995
vertex 2.923897560942527 -1.73658386466312 12.99999999999994
endloop
endfacet
facet normal 1.2723939830922414e-14 7.703410062542591e-16 1.0
outer loop
vertex 2.923897560942527 -1.73658386466312 12.99999999999994
vertex 3.0589400253046275 -19.76685493068626 12.99999999999995
vertex 3.389598036312627 -1.7650829956965957 12.99999999999994
endloop
endfacet
facet normal 1.2723939830922414e-14 7.703410062542591e-16 1.0
outer loop
vertex 3.389598036312627 -1.7650829956965957 12.99999999999994
vertex 3.0589400253046275 -19.76685493068626 12.99999999999995
vertex 3.660154177953688 -19.65508422321622 12.99999999999995
endloop
endfacet
facet normal 1.2723939830922414e-14 7.703410062542591e-16 1.0
outer loop
vertex 3.389598036312627 -1.7650829956965957 12.99999999999994
vertex 3.660154177953688 -19.65508422321622 12.99999999999995
vertex 3.9524577548302466 -1.9761829429895477 12.999999999999917
endloop
endfacet
facet normal 1.2723939830922414e-14 7.703410062542591e-16 1.0
outer loop
vertex 3.9524577548302466 -1.9761829429895477 12.999999999999917
vertex 3.660154177953688 -19.65508422321622 12.99999999999995
vertex 4.171835938127837 -19.352625695057345 12.99999999999994
endloop
endfacet
facet normal 1.2723939830922414e-14 7.703410062542591e-16 1.0
outer loop
vertex 3.9524577548302466 -1.9761829429895477 12.999999999999917
vertex 4.171835938127837 -19.352625695057345 12.99999999999994
vertex 4.1932747837299855 -2.150410483829839 12.999999999999929
endloop
endfacet
facet normal 1.2723939830922414e-14 7.703410062542591e-16 1.0
outer loop
vertex 4.1932747837299855 -2.150410483829839 12.999999999999929
vertex 4.171835938127837 -19.352625695057345 12.99999999999994
vertex 4.466236335972802 -19.017823368125047 12.99999999999995
endloop
endfacet
facet normal 1.2723939830922414e-14 7.703410062542591e-16 1.0
outer loop
vertex 4.1932747837299855 -2.150410483829839 12.999999999999929
vertex 4.466236335972802 -19.017823368125047 12.99999999999995
vertex 4.564180617674256 -2.614876034002527 12.99999999999994
endloop
endfacet
facet normal 1.2723939830922414e-14 7.703410062542591e-16 1.0
outer loop
vertex 4.564180617674256 -2.614876034002527 12.99999999999994
vertex 4.466236335972802 -19.017823368125047 12.99999999999995
vertex 4.708787174416673 -18.462542467553895 12.999999999999963
endloop
endfacet
facet normal 1.2723939830922414e-14 7.703410062542591e-16 1.0
outer loop
vertex 4.564180617674256 -2.614876034002527 12.99999999999994
vertex 4.708787174416673 -18.462542467553895 12.999999999999963
vertex 4.758759164897791 -3.1946090219841334 12.999999999999984
endloop
endfacet
facet normal 1.2723939830922414e-14 7.703410062542591e-16 1.0
outer loop
vertex 4.758759164897791 -3.1946090219841334 12.999999999999984
vertex 4.708787174416673 -18.462542467553895 12.999999999999963
vertex 4.758759164897735 -18.153420904231027 12.999999999999963
endloop
endfacet
facet normal 1.2723939830922414e-14 7.703410062542591e-16 1.0
outer loop
vertex 1.9739765377835283e-13 -8.56609840022889 13.000000000000002
vertex 2.765387357935952 -1.7524341496583684 12.999999999999963
vertex 1.9316770405453097e-13 -2.149999999999983 13.000000000000002
endloop
endfacet
facet normal 1.2723939830922414e-14 7.703410062542591e-16 1.0
outer loop
vertex 2.765387357935952 -1.7524341496583684 12.999999999999963
vertex 1.9739765377835283e-13 -8.56609840022889 13.000000000000002
vertex 0.38270792919708346 -8.629532574287941 12.999999999999996
endloop
endfacet
facet normal 1.2723939830922414e-14 7.703410062542591e-16 1.0
outer loop
vertex 2.765387357935952 -1.7524341496583684 12.999999999999963
vertex 0.38270792919708346 -8.629532574287941 12.999999999999996
vertex 0.8937950495093351 -8.861493112760531 12.999999999999984
endloop
endfacet
facet normal 1.2723939830922414e-14 7.703410062542591e-16 1.0
outer loop
vertex 2.765387357935952 -1.7524341496583684 12.999999999999963
vertex 0.8937950495093351 -8.861493112760531 12.999999999999984
vertex 1.3274314934337075 -9.217828867994534 12.999999999999977
endloop
endfacet
facet normal 1.2723939830922414e-14 7.703410062542591e-16 1.0
outer loop
vertex 2.765387357935952 -1.7524341496583684 12.999999999999963
vertex 1.3274314934337075 -9.217828867994534 12.999999999999977
vertex 1.654065653934859 -9.67425614714344 12.99999999999997
endloop
endfacet
facet normal 1.2723939830922414e-14 7.703410062542591e-16 1.0
outer loop
vertex 2.765387357935952 -1.7524341496583684 12.999999999999963
vertex 1.654065653934859 -9.67425614714344 12.99999999999997
vertex 1.8514379527631057 -10.199670185414991 12.999999999999968
endloop
endfacet
facet normal 1.2723939830922414e-14 7.703410062542591e-16 1.0
outer loop
vertex 2.765387357935952 -1.7524341496583684 12.999999999999963
vertex 1.8514379527631057 -10.199670185414991 12.999999999999968
vertex 1.8990811892475152 -10.686558891560564 12.999999999999979
endloop
endfacet
facet normal 1.2723939830922414e-14 7.703410062542591e-16 1.0
outer loop
vertex 2.765387357935952 -1.7524341496583684 12.999999999999963
vertex 1.8990811892475152 -10.686558891560564 12.999999999999979
vertex 1.9060977939264512 -10.75826488438873 12.999999999999968
endloop
endfacet
facet normal -1.0 -4.31199073190233e-16 1.4750593908712064e-14
outer loop
vertex 1.9598767053707888e-13 -12.804596818375042 13.000000000000012
vertex 7.049916206369744e-15 -19.34442182700582 1.9387269567516795e-15
vertex 2.0021762026090072e-13 -19.34442182700582 13.000000000000002
endloop
endfacet
facet normal -1.0 -4.31199073190233e-16 1.4750593908712064e-14
outer loop
vertex 7.049916206369744e-15 -19.34442182700582 1.9387269567516795e-15
vertex 1.9598767053707888e-13 -12.804596818375042 13.000000000000012
vertex 5.639932965095795e-15 -12.804596818375062 -1.1103618025032346e-14
endloop
endfacet
facet normal 0.9561202090209584 0.29297465061284544 1.3896547103416501e-14
outer loop
vertex 4.857101020805392 15.402227289993426 7.472911178751928e-14
vertex 5.051610961959871 14.767445798815155 13.000000000000089
vertex 5.05161096196006 14.767445798815155 8.600897771771087e-14
endloop
endfacet
facet normal 0.9561202090209584 0.29297465061284544 1.3896547103416501e-14
outer loop
vertex 5.051610961959871 14.767445798815155 13.000000000000089
vertex 4.857101020805392 15.402227289993426 7.472911178751928e-14
vertex 4.857101020805203 15.402227289993426 13.000000000000078
endloop
endfacet
facet normal 0.9999996632559177 0.0008206631776434496 1.4533819926688404e-14
outer loop
vertex 5.061485392230604 2.735192842441365 1.0856870957809406e-13
vertex 5.051610961959871 14.767445798815155 13.000000000000089
vertex 5.061485392230415 2.7351928424413594 13.000000000000112
endloop
endfacet
facet normal 0.9999996632559177 0.0008206631776434496 1.4533819926688404e-14
outer loop
vertex 5.051610961959871 14.767445798815155 13.000000000000089
vertex 5.061485392230604 2.735192842441365 1.0856870957809406e-13
vertex 5.05161096196006 14.767445798815155 8.600897771771087e-14
endloop
endfacet
facet normal 0.9992032840227572 -0.03990986341917876 1.4504764721224162e-14
outer loop
vertex 5.055057725690201 2.574266570950102 8.600897771771087e-14
vertex 5.061485392230415 2.7351928424413594 13.000000000000112
vertex 5.055057725690012 2.5742665709500963 13.000000000000089
endloop
endfacet
facet normal 0.9992032840227572 -0.03990986341917876 1.4504764721224162e-14
outer loop
vertex 5.061485392230415 2.7351928424413594 13.000000000000112
vertex 5.055057725690201 2.574266570950102 8.600897771771087e-14
vertex 5.061485392230604 2.735192842441365 1.0856870957809406e-13
endloop
endfacet
facet normal -1.3744740597204514e-14 -1.034878227764251e-16 1.0
outer loop
vertex 3.354642173786193 0.48228005548154335 13.000000000000044
vertex -1.896427459513461e-13 6.416098400228904 13.000000000000004
vertex -1.896427459513461e-13 -5.639932965095795e-15 13.000000000000004
endloop
endfacet
facet normal -1.3744740597204514e-14 -1.034878227764251e-16 1.0
outer loop
vertex -1.896427459513461e-13 6.416098400228904 13.000000000000004
vertex 3.354642173786193 0.48228005548154335 13.000000000000044
vertex 0.17100012486517047 6.387754979940766 13.00000000000001
endloop
endfacet
facet normal -1.3744740597204514e-14 -1.034878227764251e-16 1.0
outer loop
vertex 0.17100012486517047 6.387754979940766 13.00000000000001
vertex 3.354642173786193 0.48228005548154335 13.000000000000044
vertex 0.24270611769334638 6.394771584619698 13.000000000000016
endloop
endfacet
facet normal -1.3744740597204514e-14 -1.034878227764251e-16 1.0
outer loop
vertex 0.24270611769334638 6.394771584619698 13.000000000000016
vertex 3.354642173786193 0.48228005548154335 13.000000000000044
vertex 0.7295948238389096 6.442414821104114 13.000000000000027
endloop
endfacet
facet normal -1.3744740597204514e-14 -1.034878227764251e-16 1.0
outer loop
vertex 0.7295948238389096 6.442414821104114 13.000000000000027
vertex 3.354642173786193 0.48228005548154335 13.000000000000044
vertex 1.2550088621104591 6.639787119932364 13.000000000000039
endloop
endfacet
facet normal -1.3744740597204514e-14 -1.034878227764251e-16 1.0
outer loop
vertex 1.2550088621104591 6.639787119932364 13.000000000000039
vertex 3.354642173786193 0.48228005548154335 13.000000000000044
vertex 1.711436141259364 6.966421280433513 13.00000000000005
endloop
endfacet
facet normal -1.3744740597204514e-14 -1.034878227764251e-16 1.0
outer loop
vertex 1.711436141259364 6.966421280433513 13.00000000000005
vertex 3.354642173786193 0.48228005548154335 13.000000000000044
vertex 2.0677718964933725 7.400057724357876 13.00000000000006
endloop
endfacet
facet normal -1.3744740597204514e-14 -1.034878227764251e-16 1.0
outer loop
vertex 2.0677718964933725 7.400057724357876 13.00000000000006
vertex 3.354642173786193 0.48228005548154335 13.000000000000044
vertex 2.2997324349659616 7.911144844670132 13.000000000000066
endloop
endfacet
facet normal -1.3744740597204514e-14 -1.034878227764251e-16 1.0
outer loop
vertex 2.2997324349659616 7.911144844670132 13.000000000000066
vertex 3.354642173786193 0.48228005548154335 13.000000000000044
vertex 2.3915100293131415 8.464852898732389 13.000000000000073
endloop
endfacet
facet normal -1.3744740597204514e-14 -1.034878227764251e-16 1.0
outer loop
vertex 2.3915100293131415 8.464852898732389 13.000000000000073
vertex 3.354642173786193 0.48228005548154335 13.000000000000044
vertex 3.058940025304252 16.771988723325368 13.000000000000055
endloop
endfacet
facet normal -1.3744740597204514e-14 -1.034878227764251e-16 1.0
outer loop
vertex 3.058940025304252 16.771988723325368 13.000000000000055
vertex 3.354642173786193 0.48228005548154335 13.000000000000044
vertex 3.2173945532074972 16.74316612212055 13.000000000000044
endloop
endfacet
facet normal -1.3744740597204514e-14 -1.034878227764251e-16 1.0
outer loop
vertex 3.2173945532074972 16.74316612212055 13.000000000000044
vertex 3.354642173786193 0.48228005548154335 13.000000000000044
vertex 3.6829314231381014 16.583392386488956 13.000000000000066
endloop
endfacet
facet normal -1.3744740597204514e-14 -1.034878227764251e-16 1.0
outer loop
vertex 3.6829314231381014 16.583392386488956 13.000000000000066
vertex 3.354642173786193 0.48228005548154335 13.000000000000044
vertex 4.094578086289013 0.8610709704680239 13.000000000000089
endloop
endfacet
facet normal -1.3744740597204514e-14 -1.034878227764251e-16 1.0
outer loop
vertex 3.6829314231381014 16.583392386488956 13.000000000000066
vertex 4.094578086289013 0.8610709704680239 13.000000000000089
vertex 4.370008929899448 16.096691533541346 13.000000000000078
endloop
endfacet
facet normal -1.3744740597204514e-14 -1.034878227764251e-16 1.0
outer loop
vertex 4.370008929899448 16.096691533541346 13.000000000000078
vertex 4.094578086289013 0.8610709704680239 13.000000000000089
vertex 4.6741306764937 1.4822219013045914 13.000000000000032
endloop
endfacet
facet normal -1.3744740597204514e-14 -1.034878227764251e-16 1.0
outer loop
vertex 4.370008929899448 16.096691533541346 13.000000000000078
vertex 4.6741306764937 1.4822219013045914 13.000000000000032
vertex 4.857101020805203 15.402227289993426 13.000000000000078
endloop
endfacet
facet normal -1.3744740597204514e-14 -1.034878227764251e-16 1.0
outer loop
vertex 4.857101020805203 15.402227289993426 13.000000000000078
vertex 4.6741306764937 1.4822219013045914 13.000000000000032
vertex 5.005068316199011 2.251168249518203 13.0000000000001
endloop
endfacet
facet normal -1.3744740597204514e-14 -1.034878227764251e-16 1.0
outer loop
vertex 4.857101020805203 15.402227289993426 13.000000000000078
vertex 5.005068316199011 2.251168249518203 13.0000000000001
vertex 5.051610961959871 14.767445798815155 13.000000000000089
endloop
endfacet
facet normal -1.3744740597204514e-14 -1.034878227764251e-16 1.0
outer loop
vertex 5.051610961959871 14.767445798815155 13.000000000000089
vertex 5.005068316199011 2.251168249518203 13.0000000000001
vertex 5.055057725690012 2.5742665709500963 13.000000000000089
endloop
endfacet
facet normal -1.3744740597204514e-14 -1.034878227764251e-16 1.0
outer loop
vertex 5.051610961959871 14.767445798815155 13.000000000000089
vertex 5.055057725690012 2.5742665709500963 13.000000000000089
vertex 5.061485392230415 2.7351928424413594 13.000000000000112
endloop
endfacet
facet normal -1.3744740597204514e-14 -1.034878227764251e-16 1.0
outer loop
vertex 0.24270611769334638 10.678346198501412 13.000000000000027
vertex -1.896427459513461e-13 17.194421827005808 13.000000000000004
vertex -1.896427459513461e-13 10.654596818375047 13.000000000000016
endloop
endfacet
facet normal -1.3744740597204514e-14 -1.034878227764251e-16 1.0
outer loop
vertex -1.896427459513461e-13 17.194421827005808 13.000000000000004
vertex 0.24270611769334638 10.678346198501412 13.000000000000027
vertex 3.058940025304252 16.771988723325368 13.000000000000055
endloop
endfacet
facet normal -1.3744740597204514e-14 -1.034878227764251e-16 1.0
outer loop
vertex 3.058940025304252 16.771988723325368 13.000000000000055
vertex 0.24270611769334638 10.678346198501412 13.000000000000027
vertex 0.314412110521522 10.685362803180356 13.000000000000032
endloop
endfacet
facet normal -1.3744740597204514e-14 -1.034878227764251e-16 1.0
outer loop
vertex 3.058940025304252 16.771988723325368 13.000000000000055
vertex 0.314412110521522 10.685362803180356 13.000000000000032
vertex 0.8681201645837769 10.593585208833169 13.000000000000044
endloop
endfacet
facet normal -1.3744740597204514e-14 -1.034878227764251e-16 1.0
outer loop
vertex 3.058940025304252 16.771988723325368 13.000000000000055
vertex 0.8681201645837769 10.593585208833169 13.000000000000044
vertex 1.3792072848960282 10.36162467036058 13.000000000000055
endloop
endfacet
facet normal -1.3744740597204514e-14 -1.034878227764251e-16 1.0
outer loop
vertex 3.058940025304252 16.771988723325368 13.000000000000055
vertex 1.3792072848960282 10.36162467036058 13.000000000000055
vertex 1.8128437288203971 10.00528891512658 13.000000000000066
endloop
endfacet
facet normal -1.3744740597204514e-14 -1.034878227764251e-16 1.0
outer loop
vertex 3.058940025304252 16.771988723325368 13.000000000000055
vertex 1.8128437288203971 10.00528891512658 13.000000000000066
vertex 2.1394778893215496 9.548861635977676 13.000000000000073
endloop
endfacet
facet normal -1.3744740597204514e-14 -1.034878227764251e-16 1.0
outer loop
vertex 3.058940025304252 16.771988723325368 13.000000000000055
vertex 2.1394778893215496 9.548861635977676 13.000000000000073
vertex 2.3368501881497967 9.02344759770612 13.000000000000073
endloop
endfacet
facet normal -1.3744740597204514e-14 -1.034878227764251e-16 1.0
outer loop
vertex 3.058940025304252 16.771988723325368 13.000000000000055
vertex 2.3368501881497967 9.02344759770612 13.000000000000073
vertex 2.384493424634207 8.536558891560546 13.000000000000066
endloop
endfacet
facet normal -1.3744740597204514e-14 -1.034878227764251e-16 1.0
outer loop
vertex 3.058940025304252 16.771988723325368 13.000000000000055
vertex 2.384493424634207 8.536558891560546 13.000000000000066
vertex 2.3915100293131415 8.464852898732389 13.000000000000073
endloop
endfacet
facet normal 0.5780339109396747 0.8160127436528086 8.401579461755609e-15
outer loop
vertex 3.6829314231381014 16.583392386488956 13.000000000000066
vertex 4.370008929899637 16.096691533541346 7.472911178751928e-14
vertex 3.68293142313829 16.583392386488956 6.34492458573277e-14
endloop
endfacet
facet normal 0.5780339109396747 0.8160127436528086 8.401579461755609e-15
outer loop
vertex 4.370008929899637 16.096691533541346 7.472911178751928e-14
vertex 3.6829314231381014 16.583392386488956 13.000000000000066
vertex 4.370008929899448 16.096691533541346 13.000000000000078
endloop
endfacet
facet normal 0.17896169165571527 0.9838560427825429 2.601039679676467e-15
outer loop
vertex 3.0589400253044405 16.771988723325368 5.2169379927136103e-14
vertex 3.2173945532074972 16.74316612212055 13.000000000000044
vertex 3.217394553207686 16.74316612212055 4.088951399694451e-14
endloop
endfacet
facet normal 0.17896169165571527 0.9838560427825429 2.601039679676467e-15
outer loop
vertex 3.2173945532074972 16.74316612212055 13.000000000000044
vertex 3.0589400253044405 16.771988723325368 5.2169379927136103e-14
vertex 3.058940025304252 16.771988723325368 13.000000000000055
endloop
endfacet
facet normal 0.3246171818914229 0.9458454869696588 4.718185004362276e-15
outer loop
vertex 3.2173945532074972 16.74316612212055 13.000000000000044
vertex 3.68293142313829 16.583392386488956 6.34492458573277e-14
vertex 3.217394553207686 16.74316612212055 4.088951399694451e-14
endloop
endfacet
facet normal 0.3246171818914229 0.9458454869696588 4.718185004362276e-15
outer loop
vertex 3.68293142313829 16.583392386488956 6.34492458573277e-14
vertex 3.2173945532074972 16.74316612212055 13.000000000000044
vertex 3.6829314231381014 16.583392386488956 13.000000000000066
endloop
endfacet
facet normal 0.818695932949576 0.5742272802399964 1.1899224959002324e-14
outer loop
vertex 4.370008929899637 16.096691533541346 7.472911178751928e-14
vertex 4.857101020805203 15.402227289993426 13.000000000000078
vertex 4.857101020805392 15.402227289993426 7.472911178751928e-14
endloop
endfacet
facet normal 0.818695932949576 0.5742272802399964 1.1899224959002324e-14
outer loop
vertex 4.857101020805203 15.402227289993426 13.000000000000078
vertex 4.370008929899637 16.096691533541346 7.472911178751928e-14
vertex 4.370008929899448 16.096691533541346 13.000000000000078
endloop
endfacet
facet normal 0.9185431177198365 -0.39532080755953464 1.3179041388616266e-14
outer loop
vertex 4.674130676493889 1.4822219013045972 2.9609648066752924e-14
vertex 5.005068316199011 2.251168249518203 13.0000000000001
vertex 4.6741306764937 1.4822219013045914 13.000000000000032
endloop
endfacet
facet normal 0.9185431177198365 -0.39532080755953464 1.3179041388616266e-14
outer loop
vertex 5.005068316199011 2.251168249518203 13.0000000000001
vertex 4.674130676493889 1.4822219013045972 2.9609648066752924e-14
vertex 5.0050683161992 2.2511682495182086 9.728884364790246e-14
endloop
endfacet
facet normal 0.7311658081615802 -0.6821997954964686 1.0330356216841507e-14
outer loop
vertex 4.094578086289202 0.8610709704680296 8.600897771771087e-14
vertex 4.6741306764937 1.4822219013045914 13.000000000000032
vertex 4.094578086289013 0.8610709704680239 13.000000000000089
endloop
endfacet
facet normal 0.7311658081615802 -0.6821997954964686 1.0330356216841507e-14
outer loop
vertex 4.6741306764937 1.4822219013045914 13.000000000000032
vertex 4.094578086289202 0.8610709704680296 8.600897771771087e-14
vertex 4.674130676493889 1.4822219013045972 2.9609648066752924e-14
endloop
endfacet
facet normal -0.4708384857753989 0.8822194286642805 -7.040592938495743e-15
outer loop
vertex 1.2550088621104591 6.639787119932364 13.000000000000039
vertex 1.7114361412595867 6.966421280433525 -1.4099832412739487e-15
vertex 1.2550088621106819 6.639787119932375 -1.4099832412739487e-15
endloop
endfacet
facet normal -0.6831302435190769 0.7302965633149089 -1.0933796827223497e-14
outer loop
vertex 1.7114361412595867 6.966421280433525 -1.4099832412739487e-15
vertex 1.2550088621104591 6.639787119932364 13.000000000000039
vertex 1.711436141259364 6.966421280433513 13.00000000000005
endloop
endfacet
facet normal -0.22645986332351783 0.97402049788672 -2.3095630847078338e-15
outer loop
vertex 0.7295948238389096 6.442414821104114 13.000000000000027
vertex 1.2550088621106819 6.639787119932375 -1.4099832412739487e-15
vertex 0.7295948238391239 6.442414821104137 -2.3969715101657127e-14
endloop
endfacet
facet normal -0.4708384857753982 0.8822194286642808 -7.04059293849573e-15
outer loop
vertex 1.2550088621106819 6.639787119932375 -1.4099832412739487e-15
vertex 0.7295948238389096 6.442414821104114 13.000000000000027
vertex 1.2550088621104591 6.639787119932364 13.000000000000039
endloop
endfacet
facet normal -0.0952184842596042 0.9954563979679387 1.5073911310214682e-16
outer loop
vertex 0.17100012486517047 6.387754979940766 13.00000000000001
vertex 0.2427061176935621 6.394771584619721 -2.3969715101657127e-14
vertex 0.17100012486538618 6.387754979940789 -2.3969715101657127e-14
endloop
endfacet
facet normal -0.09738728106609132 0.9952465611528403 1.1441105796059254e-16
outer loop
vertex 0.2427061176935621 6.394771584619721 -2.3969715101657127e-14
vertex 0.17100012486517047 6.387754979940766 13.00000000000001
vertex 0.7295948238391239 6.442414821104137 -2.3969715101657127e-14
endloop
endfacet
facet normal -0.22645986332351706 0.97402049788672 -2.3095630847078196e-15
outer loop
vertex 0.7295948238391239 6.442414821104137 -2.3969715101657127e-14
vertex 0.17100012486517047 6.387754979940766 13.00000000000001
vertex 0.7295948238389096 6.442414821104114 13.000000000000027
endloop
endfacet
facet normal -0.22645986332351783 0.97402049788672 -2.3095630847078338e-15
outer loop
vertex 0.7295948238389096 6.442414821104114 13.000000000000027
vertex 0.17100012486517047 6.387754979940766 13.00000000000001
vertex 0.24270611769334638 6.394771584619698 13.000000000000016
endloop
endfacet
facet normal -0.7302965633149049 -0.683130243519081 -1.3573146262140452e-14
outer loop
vertex 1.8128437288203971 10.00528891512658 13.000000000000066
vertex 2.139477889321772 9.548861635977687 2.1149748619109232e-14
vertex 2.1394778893215496 9.548861635977676 13.000000000000073
endloop
endfacet
facet normal -0.8822194286642794 -0.4708384857754011 -1.573163149865868e-14
outer loop
vertex 2.139477889321772 9.548861635977687 2.1149748619109232e-14
vertex 1.8128437288203971 10.00528891512658 13.000000000000066
vertex 1.8128437288206198 10.0052889151266 2.1149748619109232e-14
endloop
endfacet
facet normal -0.0952184842596042 0.9954563979679387 1.5073911310214682e-16
outer loop
vertex 0.17100012486517047 6.387754979940766 13.00000000000001
vertex 0.17100012486538618 6.387754979940789 -2.3969715101657127e-14
vertex 0.0 6.416098400228927 -1.5509815654013436e-14
endloop
endfacet
facet normal -0.03335162457122971 -0.9994436798231603 -1.8116381365600773e-15
outer loop
vertex 0.31441211052173634 10.685362803180366 -1.4099832412739487e-15
vertex 0.0 10.654596818375058 -1.127986593019159e-14
vertex 0.2427061176935621 10.678346198501435 -2.3969715101657127e-14
endloop
endfacet
facet normal 0.09738728106609172 -0.99524656115284 3.9607917480341583e-16
outer loop
vertex 0.0 10.654596818375058 -1.127986593019159e-14
vertex 0.31441211052173634 10.685362803180366 -1.4099832412739487e-15
vertex -1.896427459513461e-13 10.654596818375047 13.000000000000016
endloop
endfacet
facet normal 0.09738728106609172 -0.99524656115284 3.9607917480341583e-16
outer loop
vertex -1.896427459513461e-13 10.654596818375047 13.000000000000016
vertex 0.31441211052173634 10.685362803180366 -1.4099832412739487e-15
vertex 0.24270611769334638 10.678346198501412 13.000000000000027
endloop
endfacet
facet normal 0.09738728106609172 -0.99524656115284 3.9607917480341583e-16
outer loop
vertex 0.24270611769334638 10.678346198501412 13.000000000000027
vertex 0.31441211052173634 10.685362803180366 -1.4099832412739487e-15
vertex 0.314412110521522 10.685362803180356 13.000000000000032
endloop
endfacet
facet normal -0.8488678040930351 0.5286051940477587 -1.3768115347084368e-14
outer loop
vertex 2.0677718964933725 7.400057724357876 13.00000000000006
vertex 1.7114361412595867 6.966421280433525 -1.4099832412739487e-15
vertex 1.711436141259364 6.966421280433513 13.00000000000005
endloop
endfacet
facet normal -0.6831302435190769 0.7302965633149089 -1.0933796827223497e-14
outer loop
vertex 1.7114361412595867 6.966421280433525 -1.4099832412739487e-15
vertex 2.0677718964933725 7.400057724357876 13.00000000000006
vertex 2.067771896493595 7.400057724357898 2.1149748619109232e-14
endloop
endfacet
facet normal -0.7302965633149049 -0.683130243519081 -1.3573146262140452e-14
outer loop
vertex 1.8128437288203971 10.00528891512658 13.000000000000066
vertex 1.379207284896251 10.361624670360603 2.1149748619109232e-14
vertex 1.8128437288206198 10.0052889151266 2.1149748619109232e-14
endloop
endfacet
facet normal -0.5286051940477545 -0.8488678040930377 -1.0474986497530471e-14
outer loop
vertex 1.379207284896251 10.361624670360603 2.1149748619109232e-14
vertex 1.8128437288203971 10.00528891512658 13.000000000000066
vertex 1.3792072848960282 10.36162467036058 13.000000000000055
endloop
endfacet
facet normal -0.9952465611528409 -0.0973872810660835 -1.7196213864956295e-14
outer loop
vertex 2.384493424634207 8.536558891560546 13.000000000000066
vertex 2.3915100293133644 8.464852898732401 2.1149748619109232e-14
vertex 2.3915100293131415 8.464852898732389 13.000000000000073
endloop
endfacet
facet normal -0.9994436798231598 0.033351624571246054 -1.7090825364296155e-14
outer loop
vertex 2.3915100293133644 8.464852898732401 2.1149748619109232e-14
vertex 2.384493424634207 8.536558891560546 13.000000000000066
vertex 2.38449342463443 8.536558891560569 2.1149748619109232e-14
endloop
endfacet
facet normal -0.9952465611528409 -0.0973872810660835 -1.7196213864956295e-14
outer loop
vertex 2.38449342463443 8.536558891560569 2.1149748619109232e-14
vertex 2.384493424634207 8.536558891560546 13.000000000000066
vertex 2.3368501881497967 9.02344759770612 13.000000000000073
endloop
endfacet
facet normal -0.9952465611528409 -0.0973872810660835 -1.7196213864956295e-14
outer loop
vertex 2.38449342463443 8.536558891560569 2.1149748619109232e-14
vertex 2.3368501881497967 9.02344759770612 13.000000000000073
vertex 2.3368501881500197 9.023447597706141 2.1149748619109232e-14
endloop
endfacet
facet normal 0.13679957740995582 0.9905987460220497 1.9908619326780737e-15
outer loop
vertex -1.896427459513461e-13 17.194421827005808 13.000000000000004
vertex 3.0589400253044405 16.771988723325368 5.2169379927136103e-14
vertex 0.0 17.194421827005808 1.4099832412739487e-15
endloop
endfacet
facet normal 0.13679957740995582 0.9905987460220497 1.9908619326780737e-15
outer loop
vertex 3.0589400253044405 16.771988723325368 5.2169379927136103e-14
vertex -1.896427459513461e-13 17.194421827005808 13.000000000000004
vertex 3.058940025304252 16.771988723325368 13.000000000000055
endloop
endfacet
facet normal -0.2908902543676416 -0.9567564266384255 -6.323674519981219e-15
outer loop
vertex 0.8681201645837769 10.593585208833169 13.000000000000044
vertex 0.31441211052173634 10.685362803180366 -1.4099832412739487e-15
vertex 0.8681201645839927 10.593585208833192 -1.4099832412739487e-15
endloop
endfacet
facet normal -0.03335162457122971 -0.9994436798231603 -1.8116381365600773e-15
outer loop
vertex 0.31441211052173634 10.685362803180366 -1.4099832412739487e-15
vertex 0.8681201645837769 10.593585208833169 13.000000000000044
vertex 0.314412110521522 10.685362803180356 13.000000000000032
endloop
endfacet
facet normal -0.5286051940477545 -0.8488678040930377 -1.0474986497530471e-14
outer loop
vertex 1.379207284896251 10.361624670360603 2.1149748619109232e-14
vertex 0.8681201645837769 10.593585208833169 13.000000000000044
vertex 0.8681201645839927 10.593585208833192 -1.4099832412739487e-15
endloop
endfacet
facet normal -0.2908902543676416 -0.9567564266384255 -6.323674519981219e-15
outer loop
vertex 0.8681201645837769 10.593585208833169 13.000000000000044
vertex 1.379207284896251 10.361624670360603 2.1149748619109232e-14
vertex 1.3792072848960282 10.36162467036058 13.000000000000055
endloop
endfacet
facet normal -0.9994436798231597 0.03335162457124916 -1.7090825364296152e-14
outer loop
vertex 2.3915100293131415 8.464852898732389 13.000000000000073
vertex 2.2997324349661845 7.911144844670154 2.1149748619109232e-14
vertex 2.2997324349659616 7.911144844670132 13.000000000000066
endloop
endfacet
facet normal -0.9567564266384256 0.2908902543676409 -1.5926174926447627e-14
outer loop
vertex 2.2997324349661845 7.911144844670154 2.1149748619109232e-14
vertex 2.3915100293131415 8.464852898732389 13.000000000000073
vertex 2.3915100293133644 8.464852898732401 2.1149748619109232e-14
endloop
endfacet
facet normal -0.8822194286642789 -0.47083848577540177 -1.5731631498658677e-14
outer loop
vertex 2.1394778893215496 9.548861635977676 13.000000000000073
vertex 2.3368501881500197 9.023447597706141 2.1149748619109232e-14
vertex 2.3368501881497967 9.02344759770612 13.000000000000073
endloop
endfacet
facet normal -0.9740204978867202 -0.22645986332351653 -1.6993483472084916e-14
outer loop
vertex 2.3368501881500197 9.023447597706141 2.1149748619109232e-14
vertex 2.1394778893215496 9.548861635977676 13.000000000000073
vertex 2.139477889321772 9.548861635977687 2.1149748619109232e-14
endloop
endfacet
facet normal -0.9567564266384256 0.2908902543676412 -1.592617492644763e-14
outer loop
vertex 2.2997324349659616 7.911144844670132 13.000000000000066
vertex 2.067771896493595 7.400057724357898 2.1149748619109232e-14
vertex 2.0677718964933725 7.400057724357876 13.00000000000006
endloop
endfacet
facet normal -0.8488678040930343 0.5286051940477599 -1.3768115347084354e-14
outer loop
vertex 2.067771896493595 7.400057724357898 2.1149748619109232e-14
vertex 2.2997324349659616 7.911144844670132 13.000000000000066
vertex 2.2997324349661845 7.911144844670154 2.1149748619109232e-14
endloop
endfacet
facet normal 0.9882417200561002 -0.1528996492493044 1.4296306400587792e-14
outer loop
vertex 5.0050683161992 2.2511682495182086 9.728884364790246e-14
vertex 5.055057725690012 2.5742665709500963 13.000000000000089
vertex 5.005068316199011 2.251168249518203 13.0000000000001
endloop
endfacet
facet normal 0.9882417200561002 -0.1528996492493044 1.4296306400587792e-14
outer loop
vertex 5.055057725690012 2.5742665709500963 13.000000000000089
vertex 5.0050683161992 2.2511682495182086 9.728884364790246e-14
vertex 5.055057725690201 2.574266570950102 8.600897771771087e-14
endloop
endfacet
facet normal 0.16351987466537854 0.9865400400335603 4.09763436426531e-15
outer loop
vertex 0.17100012486517047 6.387754979940766 13.00000000000001
vertex 0.0 6.416098400228927 -1.5509815654013436e-14
vertex -1.896427459513461e-13 6.416098400228904 13.000000000000004
endloop
endfacet
facet normal -1.0 -1.7585964174225688e-29 -1.4587903534718917e-14
outer loop
vertex -1.896427459513461e-13 6.416098400228904 13.000000000000004
vertex 0.0 0.0 0.0
vertex -1.896427459513461e-13 -5.639932965095795e-15 13.000000000000004
endloop
endfacet
facet normal -1.0 -1.7585964174225688e-29 -1.4587903534718917e-14
outer loop
vertex 0.0 0.0 0.0
vertex -1.896427459513461e-13 6.416098400228904 13.000000000000004
vertex 0.0 6.416098400228927 -1.5509815654013436e-14
endloop
endfacet
facet normal -1.0 8.560052728538014e-31 -1.458790353471891e-14
outer loop
vertex -1.896427459513461e-13 17.194421827005808 13.000000000000004
vertex 0.0 10.654596818375058 -1.127986593019159e-14
vertex -1.896427459513461e-13 10.654596818375047 13.000000000000016
endloop
endfacet
facet normal -1.0 8.560052728538014e-31 -1.458790353471891e-14
outer loop
vertex 0.0 10.654596818375058 -1.127986593019159e-14
vertex -1.896427459513461e-13 17.194421827005808 13.000000000000004
vertex 0.0 17.194421827005808 1.4099832412739487e-15
endloop
endfacet
facet normal -1.0 -8.240891621283093e-16 1.477770897104426e-14
outer loop
vertex 1.9739765377835283e-13 -8.56609840022889 13.000000000000002
vertex 0.0 -2.15 0.0
vertex 6.3449245857327695e-15 -8.566098400228913 -1.4981071938535706e-14
endloop
endfacet
facet normal -1.0 -8.240891621283093e-16 1.477770897104426e-14
outer loop
vertex 0.0 -2.15 0.0
vertex 1.9739765377835283e-13 -8.56609840022889 13.000000000000002
vertex 1.9316770405453097e-13 -2.149999999999983 13.000000000000002
endloop
endfacet
facet normal 0.14230192391185228 -0.9898232985997982 1.641970423188989e-15
outer loop
vertex 3.354642173786382 0.482280055481549 4.088951399694451e-14
vertex -1.896427459513461e-13 -5.639932965095795e-15 13.000000000000004
vertex 0.0 0.0 0.0
endloop
endfacet
facet normal 0.14230192391185228 -0.9898232985997982 1.641970423188989e-15
outer loop
vertex -1.896427459513461e-13 -5.639932965095795e-15 13.000000000000004
vertex 3.354642173786382 0.482280055481549 4.088951399694451e-14
vertex 3.354642173786193 0.48228005548154335 13.000000000000044
endloop
endfacet
facet normal 2.042773189177219e-14 3.211445449589157e-16 -1.0
outer loop
vertex 3.0589400253044405 16.771988723325368 5.2169379927136103e-14
vertex 0.0 10.654596818375058 -1.127986593019159e-14
vertex 0.0 17.194421827005808 1.4099832412739487e-15
endloop
endfacet
facet normal 2.042773189177219e-14 3.211445449589157e-16 -1.0
outer loop
vertex 0.0 10.654596818375058 -1.127986593019159e-14
vertex 3.0589400253044405 16.771988723325368 5.2169379927136103e-14
vertex 0.2427061176935621 10.678346198501435 -2.3969715101657127e-14
endloop
endfacet
facet normal 2.042773189177219e-14 3.211445449589157e-16 -1.0
outer loop
vertex 0.2427061176935621 10.678346198501435 -2.3969715101657127e-14
vertex 3.0589400253044405 16.771988723325368 5.2169379927136103e-14
vertex 0.31441211052173634 10.685362803180366 -1.4099832412739487e-15
endloop
endfacet
facet normal 2.042773189177219e-14 3.211445449589157e-16 -1.0
outer loop
vertex 0.31441211052173634 10.685362803180366 -1.4099832412739487e-15
vertex 3.0589400253044405 16.771988723325368 5.2169379927136103e-14
vertex 0.8681201645839927 10.593585208833192 -1.4099832412739487e-15
endloop
endfacet
facet normal 2.042773189177219e-14 3.211445449589157e-16 -1.0
outer loop
vertex 0.8681201645839927 10.593585208833192 -1.4099832412739487e-15
vertex 3.0589400253044405 16.771988723325368 5.2169379927136103e-14
vertex 1.379207284896251 10.361624670360603 2.1149748619109232e-14
endloop
endfacet
facet normal 2.042773189177219e-14 3.211445449589157e-16 -1.0
outer loop
vertex 1.379207284896251 10.361624670360603 2.1149748619109232e-14
vertex 3.0589400253044405 16.771988723325368 5.2169379927136103e-14
vertex 1.8128437288206198 10.0052889151266 2.1149748619109232e-14
endloop
endfacet
facet normal 2.042773189177219e-14 3.211445449589157e-16 -1.0
outer loop
vertex 1.8128437288206198 10.0052889151266 2.1149748619109232e-14
vertex 3.0589400253044405 16.771988723325368 5.2169379927136103e-14
vertex 2.139477889321772 9.548861635977687 2.1149748619109232e-14
endloop
endfacet
facet normal 2.042773189177219e-14 3.211445449589157e-16 -1.0
outer loop
vertex 2.139477889321772 9.548861635977687 2.1149748619109232e-14
vertex 3.0589400253044405 16.771988723325368 5.2169379927136103e-14
vertex 2.3368501881500197 9.023447597706141 2.1149748619109232e-14
endloop
endfacet
facet normal 2.042773189177219e-14 3.211445449589157e-16 -1.0
outer loop
vertex 2.3368501881500197 9.023447597706141 2.1149748619109232e-14
vertex 3.0589400253044405 16.771988723325368 5.2169379927136103e-14
vertex 2.38449342463443 8.536558891560569 2.1149748619109232e-14
endloop
endfacet
facet normal 2.042773189177219e-14 3.211445449589157e-16 -1.0
outer loop
vertex 2.38449342463443 8.536558891560569 2.1149748619109232e-14
vertex 3.0589400253044405 16.771988723325368 5.2169379927136103e-14
vertex 2.3915100293133644 8.464852898732401 2.1149748619109232e-14
endloop
endfacet
facet normal 2.042773189177219e-14 3.211445449589157e-16 -1.0
outer loop
vertex 0.17100012486538618 6.387754979940789 -2.3969715101657127e-14
vertex 0.0 0.0 0.0
vertex 0.0 6.416098400228927 -1.5509815654013436e-14
endloop
endfacet
facet normal 2.042773189177219e-14 3.211445449589157e-16 -1.0
outer loop
vertex 0.0 0.0 0.0
vertex 0.17100012486538618 6.387754979940789 -2.3969715101657127e-14
vertex 3.354642173786382 0.482280055481549 4.088951399694451e-14
endloop
endfacet
facet normal 2.042773189177219e-14 3.211445449589157e-16 -1.0
outer loop
vertex 3.354642173786382 0.482280055481549 4.088951399694451e-14
vertex 0.17100012486538618 6.387754979940789 -2.3969715101657127e-14
vertex 0.2427061176935621 6.394771584619721 -2.3969715101657127e-14
endloop
endfacet
facet normal 2.042773189177219e-14 3.211445449589157e-16 -1.0
outer loop
vertex 3.354642173786382 0.482280055481549 4.088951399694451e-14
vertex 0.2427061176935621 6.394771584619721 -2.3969715101657127e-14
vertex 0.7295948238391239 6.442414821104137 -2.3969715101657127e-14
endloop
endfacet
facet normal 2.042773189177219e-14 3.211445449589157e-16 -1.0
outer loop
vertex 3.354642173786382 0.482280055481549 4.088951399694451e-14
vertex 0.7295948238391239 6.442414821104137 -2.3969715101657127e-14
vertex 1.2550088621106819 6.639787119932375 -1.4099832412739487e-15
endloop
endfacet
facet normal 2.042773189177219e-14 3.211445449589157e-16 -1.0
outer loop
vertex 3.354642173786382 0.482280055481549 4.088951399694451e-14
vertex 1.2550088621106819 6.639787119932375 -1.4099832412739487e-15
vertex 1.7114361412595867 6.966421280433525 -1.4099832412739487e-15
endloop
endfacet
facet normal 2.042773189177219e-14 3.211445449589157e-16 -1.0
outer loop
vertex 3.354642173786382 0.482280055481549 4.088951399694451e-14
vertex 1.7114361412595867 6.966421280433525 -1.4099832412739487e-15
vertex 2.067771896493595 7.400057724357898 2.1149748619109232e-14
endloop
endfacet
facet normal 2.042773189177219e-14 3.211445449589157e-16 -1.0
outer loop
vertex 3.354642173786382 0.482280055481549 4.088951399694451e-14
vertex 2.067771896493595 7.400057724357898 2.1149748619109232e-14
vertex 2.2997324349661845 7.911144844670154 2.1149748619109232e-14
endloop
endfacet
facet normal 2.042773189177219e-14 3.211445449589157e-16 -1.0
outer loop
vertex 3.354642173786382 0.482280055481549 4.088951399694451e-14
vertex 2.2997324349661845 7.911144844670154 2.1149748619109232e-14
vertex 2.3915100293133644 8.464852898732401 2.1149748619109232e-14
endloop
endfacet
facet normal 2.042773189177219e-14 3.211445449589157e-16 -1.0
outer loop
vertex 3.354642173786382 0.482280055481549 4.088951399694451e-14
vertex 2.3915100293133644 8.464852898732401 2.1149748619109232e-14
vertex 3.0589400253044405 16.771988723325368 5.2169379927136103e-14
endloop
endfacet
facet normal 2.042773189177219e-14 3.211445449589157e-16 -1.0
outer loop
vertex 3.354642173786382 0.482280055481549 4.088951399694451e-14
vertex 3.0589400253044405 16.771988723325368 5.2169379927136103e-14
vertex 3.217394553207686 16.74316612212055 4.088951399694451e-14
endloop
endfacet
facet normal 2.042773189177219e-14 3.211445449589157e-16 -1.0
outer loop
vertex 3.354642173786382 0.482280055481549 4.088951399694451e-14
vertex 3.217394553207686 16.74316612212055 4.088951399694451e-14
vertex 3.68293142313829 16.583392386488956 6.34492458573277e-14
endloop
endfacet
facet normal 2.042773189177219e-14 3.211445449589157e-16 -1.0
outer loop
vertex 3.354642173786382 0.482280055481549 4.088951399694451e-14
vertex 3.68293142313829 16.583392386488956 6.34492458573277e-14
vertex 4.094578086289202 0.8610709704680296 8.600897771771087e-14
endloop
endfacet
facet normal 2.042773189177219e-14 3.211445449589157e-16 -1.0
outer loop
vertex 4.094578086289202 0.8610709704680296 8.600897771771087e-14
vertex 3.68293142313829 16.583392386488956 6.34492458573277e-14
vertex 4.370008929899637 16.096691533541346 7.472911178751928e-14
endloop
endfacet
facet normal 2.042773189177219e-14 3.211445449589157e-16 -1.0
outer loop
vertex 4.094578086289202 0.8610709704680296 8.600897771771087e-14
vertex 4.370008929899637 16.096691533541346 7.472911178751928e-14
vertex 4.674130676493889 1.4822219013045972 2.9609648066752924e-14
endloop
endfacet
facet normal 2.042773189177219e-14 3.211445449589157e-16 -1.0
outer loop
vertex 4.674130676493889 1.4822219013045972 2.9609648066752924e-14
vertex 4.370008929899637 16.096691533541346 7.472911178751928e-14
vertex 4.857101020805392 15.402227289993426 7.472911178751928e-14
endloop
endfacet
facet normal 2.042773189177219e-14 3.211445449589157e-16 -1.0
outer loop
vertex 4.674130676493889 1.4822219013045972 2.9609648066752924e-14
vertex 4.857101020805392 15.402227289993426 7.472911178751928e-14
vertex 5.0050683161992 2.2511682495182086 9.728884364790246e-14
endloop
endfacet
facet normal 2.042773189177219e-14 3.211445449589157e-16 -1.0
outer loop
vertex 5.0050683161992 2.2511682495182086 9.728884364790246e-14
vertex 4.857101020805392 15.402227289993426 7.472911178751928e-14
vertex 5.05161096196006 14.767445798815155 8.600897771771087e-14
endloop
endfacet
facet normal 2.042773189177219e-14 3.211445449589157e-16 -1.0
outer loop
vertex 5.0050683161992 2.2511682495182086 9.728884364790246e-14
vertex 5.05161096196006 14.767445798815155 8.600897771771087e-14
vertex 5.055057725690201 2.574266570950102 8.600897771771087e-14
endloop
endfacet
facet normal 2.042773189177219e-14 3.211445449589157e-16 -1.0
outer loop
vertex 5.055057725690201 2.574266570950102 8.600897771771087e-14
vertex 5.05161096196006 14.767445798815155 8.600897771771087e-14
vertex 5.061485392230604 2.735192842441365 1.0856870957809406e-13
endloop
endfacet
facet normal 0.4556846424011543 -0.8901412846732434 6.237095893549968e-15
outer loop
vertex 4.094578086289202 0.8610709704680296 8.600897771771087e-14
vertex 3.354642173786193 0.48228005548154335 13.000000000000044
vertex 3.354642173786382 0.482280055481549 4.088951399694451e-14
endloop
endfacet
facet normal 0.4556846424011543 -0.8901412846732434 6.237095893549968e-15
outer loop
vertex 3.354642173786193 0.48228005548154335 13.000000000000044
vertex 4.094578086289202 0.8610709704680296 8.600897771771087e-14
vertex 4.094578086289013 0.8610709704680239 13.000000000000089
endloop
endfacet
endsolid 9_Pin_Jack_Case-15mm_Deep-insert
